{
copyright = "Copyright (c) 2015, Cadson Demak (info@cadsondemak.com)";
customParameters = (
{
name = vendorID;
value = CDK;
},
{
name = license;

glyphs = (
{
glyphname = A;
lastChange = "2015-07-18 10:04:44 +0000";
layers = (
{
layerId = "63696E93-80B4-4894-80FD-D92E433586BC";
name = "Light ExtraLight";
paths = (
{
closed = 1;
nodes = (
"88 0 LINE SMOOTH",
"104 0 OFFCURVE",
"108 6 OFFCURVE",
"113 17 CURVE SMOOTH",
"189 197 LINE",
"531 197 LINE",
"607 17 LINE SMOOTH",
"612 6 OFFCURVE",
"616 0 OFFCURVE",
"632 0 CURVE SMOOTH",
"651 0 LINE SMOOTH",
"661 0 OFFCURVE",
"667 8 OFFCURVE",
"663 18 CURVE SMOOTH",
"389 663 LINE SMOOTH",
"384 676 OFFCURVE",
"381 680 OFFCURVE",
"369 680 CURVE SMOOTH",
"351 680 LINE SMOOTH",
"339 680 OFFCURVE",
"336 676 OFFCURVE",
"331 663 CURVE SMOOTH",
"57 18 LINE SMOOTH",
"53 8 OFFCURVE",
"59 0 OFFCURVE",
"69 0 CURVE SMOOTH"
);
},
{
closed = 1;
nodes = (
"360 601 LINE",
"510 246 LINE",
"209 246 LINE"
);
}
);
width = 720;
}
);
note = A;
unicode = 0041;
},
{
glyphname = Aacute;
lastChange = "2015-07-18 10:04:43 +0000";
layers = (
{
layerId = "63696E93-80B4-4894-80FD-D92E433586BC";
name = "Light ExtraLight";
paths = (
{
closed = 1;
nodes = (
"88 0 LINE SMOOTH",
"104 0 OFFCURVE",
"108 6 OFFCURVE",
"113 17 CURVE SMOOTH",
"189 197 LINE",
"531 197 LINE",
"607 17 LINE SMOOTH",
"612 6 OFFCURVE",
"616 0 OFFCURVE",
"632 0 CURVE SMOOTH",
"651 0 LINE SMOOTH",
"661 0 OFFCURVE",
"667 8 OFFCURVE",
"663 18 CURVE SMOOTH",
"389 663 LINE SMOOTH",
"384 676 OFFCURVE",
"381 680 OFFCURVE",
"369 680 CURVE SMOOTH",
"351 680 LINE SMOOTH",
"339 680 OFFCURVE",
"336 676 OFFCURVE",
"331 663 CURVE SMOOTH",
"57 18 LINE SMOOTH",
"53 8 OFFCURVE",
"59 0 OFFCURVE",
"69 0 CURVE SMOOTH"
);
},
{
closed = 1;
nodes = (
"360 601 LINE",
"510 246 LINE",
"209 246 LINE"
);
},
{
closed = 1;
nodes = (
"374 741 LINE SMOOTH",
"385 741 OFFCURVE",
"390 744 OFFCURVE",
"394 752 CURVE SMOOTH",
"461 896 LINE SMOOTH",
"466 906 OFFCURVE",
"463 912 OFFCURVE",
"451 912 CURVE SMOOTH",
"424 912 LINE SMOOTH",
"410 912 OFFCURVE",
"406 909 OFFCURVE",
"402 898 CURVE SMOOTH",
"351 757 LINE SMOOTH",
"347 747 OFFCURVE",
"349 741 OFFCURVE",
"359 741 CURVE SMOOTH"
);
}
);
width = 720;
}
);
note = Aacute;
unicode = 00C1;
},
{
glyphname = Abreve;
lastChange = "2015-07-18 10:04:44 +0000";
layers = (
{
layerId = "63696E93-80B4-4894-80FD-D92E433586BC";
name = "Light ExtraLight";
paths = (
{
closed = 1;
nodes = (
"88 0 LINE SMOOTH",
"104 0 OFFCURVE",
"108 6 OFFCURVE",
"113 17 CURVE SMOOTH",
"189 197 LINE",
"531 197 LINE",
"607 17 LINE SMOOTH",
"612 6 OFFCURVE",
"616 0 OFFCURVE",
"632 0 CURVE SMOOTH",
"651 0 LINE SMOOTH",
"661 0 OFFCURVE",
"667 8 OFFCURVE",
"663 18 CURVE SMOOTH",
"389 663 LINE SMOOTH",
"384 676 OFFCURVE",
"381 680 OFFCURVE",
"369 680 CURVE SMOOTH",
"351 680 LINE SMOOTH",
"339 680 OFFCURVE",
"336 676 OFFCURVE",
"331 663 CURVE SMOOTH",
"57 18 LINE SMOOTH",
"53 8 OFFCURVE",
"59 0 OFFCURVE",
"69 0 CURVE SMOOTH"
);
},
{
closed = 1;
nodes = (
"360 601 LINE",
"510 246 LINE",
"209 246 LINE"
);
},
{
closed = 1;
nodes = (
"457 758 OFFCURVE",
"501 821 OFFCURVE",
"501 911 CURVE SMOOTH",
"501 922 OFFCURVE",
"495 929 OFFCURVE",
"485 929 CURVE SMOOTH",
"461 929 LINE SMOOTH",
"447 929 OFFCURVE",
"444 922 OFFCURVE",
"444 910 CURVE SMOOTH",
"444 853 OFFCURVE",
"430 809 OFFCURVE",
"360 809 CURVE SMOOTH",
"290 809 OFFCURVE",
"276 853 OFFCURVE",
"276 910 CURVE SMOOTH",
"276 922 OFFCURVE",
"273 929 OFFCURVE",
"259 929 CURVE SMOOTH",
"235 929 LINE SMOOTH",
"225 929 OFFCURVE",
"219 922 OFFCURVE",
"219 911 CURVE SMOOTH",
"219 821 OFFCURVE",
"263 758 OFFCURVE",
"360 758 CURVE SMOOTH"
);
}
);
width = 720;
}
);
note = Abreve;
unicode = 0102;
},
{
glyphname = Abreveacute;
lastChange = "2015-07-18 10:04:44 +0000";
layers = (
{
layerId = "63696E93-80B4-4894-80FD-D92E433586BC";
name = "Light ExtraLight";
paths = (
{
closed = 1;
nodes = (
"88 0 LINE SMOOTH",
"104 0 OFFCURVE",
"108 6 OFFCURVE",
"113 17 CURVE SMOOTH",
"189 197 LINE",
"531 197 LINE",
"607 17 LINE SMOOTH",
"612 6 OFFCURVE",
"616 0 OFFCURVE",
"632 0 CURVE SMOOTH",
"651 0 LINE SMOOTH",
"661 0 OFFCURVE",
"667 8 OFFCURVE",
"663 18 CURVE SMOOTH",
"389 663 LINE SMOOTH",
"384 676 OFFCURVE",
"381 680 OFFCURVE",
"369 680 CURVE SMOOTH",
"351 680 LINE SMOOTH",
"339 680 OFFCURVE",
"336 676 OFFCURVE",
"331 663 CURVE SMOOTH",
"57 18 LINE SMOOTH",
"53 8 OFFCURVE",
"59 0 OFFCURVE",
"69 0 CURVE SMOOTH"
);
},
{
closed = 1;
nodes = (
"360 601 LINE",
"510 246 LINE",
"209 246 LINE"
);
},
{
closed = 1;
nodes = (
"437 746 OFFCURVE",
"501 787 OFFCURVE",
"501 867 CURVE SMOOTH",
"501 878 OFFCURVE",
"495 885 OFFCURVE",
"485 885 CURVE SMOOTH",
"461 885 LINE SMOOTH",
"447 885 OFFCURVE",
"444 878 OFFCURVE",
"444 866 CURVE SMOOTH",
"444 819 OFFCURVE",
"410 797 OFFCURVE",
"360 797 CURVE SMOOTH",
"310 797 OFFCURVE",
"276 819 OFFCURVE",
"276 866 CURVE SMOOTH",
"276 878 OFFCURVE",
"273 885 OFFCURVE",
"259 885 CURVE SMOOTH",
"235 885 LINE SMOOTH",
"225 885 OFFCURVE",
"219 878 OFFCURVE",
"219 867 CURVE SMOOTH",
"219 787 OFFCURVE",
"283 746 OFFCURVE",
"360 746 CURVE SMOOTH"
);
},
{
closed = 1;
nodes = (
"360 859 LINE SMOOTH",
"371 859 OFFCURVE",
"376 862 OFFCURVE",
"380 870 CURVE SMOOTH",
"435 981 LINE SMOOTH",
"440 991 OFFCURVE",
"437 997 OFFCURVE",
"425 997 CURVE SMOOTH",
"398 997 LINE SMOOTH",
"384 997 OFFCURVE",
"380 994 OFFCURVE",
"376 983 CURVE SMOOTH",
"337 875 LINE SMOOTH",
"333 865 OFFCURVE",
"335 859 OFFCURVE",
"345 859 CURVE SMOOTH"
);
}
);
width = 720;
}
);
note = Abreveacute;
unicode = 1EAE;
},
{
glyphname = Abrevedotbelow;
lastChange = "2015-07-18 10:04:46 +0000";
layers = (
{
layerId = "63696E93-80B4-4894-80FD-D92E433586BC";
name = "Light ExtraLight";
paths = (
{
closed = 1;
nodes = (
"88 0 LINE SMOOTH",
"104 0 OFFCURVE",
"108 6 OFFCURVE",
"113 17 CURVE SMOOTH",
"189 197 LINE",
"531 197 LINE",
"607 17 LINE SMOOTH",
"612 6 OFFCURVE",
"616 0 OFFCURVE",
"632 0 CURVE SMOOTH",
"651 0 LINE SMOOTH",
"661 0 OFFCURVE",
"667 8 OFFCURVE",
"663 18 CURVE SMOOTH",
"389 663 LINE SMOOTH",
"384 676 OFFCURVE",
"381 680 OFFCURVE",
"369 680 CURVE SMOOTH",
"351 680 LINE SMOOTH",
"339 680 OFFCURVE",
"336 676 OFFCURVE",
"331 663 CURVE SMOOTH",
"57 18 LINE SMOOTH",
"53 8 OFFCURVE",
"59 0 OFFCURVE",
"69 0 CURVE SMOOTH"
);
},
{
closed = 1;
nodes = (
"367 -161 LINE SMOOTH",
"387 -161 OFFCURVE",
"400 -145 OFFCURVE",
"400 -126 CURVE SMOOTH",
"400 -113 LINE SMOOTH",
"400 -94 OFFCURVE",
"386 -78 OFFCURVE",
"367 -78 CURVE SMOOTH",
"353 -78 LINE SMOOTH",
"334 -78 OFFCURVE",
"320 -94 OFFCURVE",
"320 -113 CURVE SMOOTH",
"320 -126 LINE SMOOTH",
"320 -145 OFFCURVE",
"334 -161 OFFCURVE",
"353 -161 CURVE SMOOTH"
);
},
{
closed = 1;
nodes = (
"360 601 LINE",
"510 246 LINE",
"209 246 LINE"
);
},
{
closed = 1;
nodes = (
"457 746 OFFCURVE",
"501 809 OFFCURVE",
"501 899 CURVE SMOOTH",
"501 910 OFFCURVE",
"495 917 OFFCURVE",
"485 917 CURVE SMOOTH",
"461 917 LINE SMOOTH",
"447 917 OFFCURVE",
"444 910 OFFCURVE",
"444 898 CURVE SMOOTH",
"444 841 OFFCURVE",
"430 797 OFFCURVE",
"360 797 CURVE SMOOTH",
"290 797 OFFCURVE",
"276 841 OFFCURVE",
"276 898 CURVE SMOOTH",
"276 910 OFFCURVE",
"273 917 OFFCURVE",
"259 917 CURVE SMOOTH",
"235 917 LINE SMOOTH",
"225 917 OFFCURVE",
"219 910 OFFCURVE",
"219 899 CURVE SMOOTH",
"219 809 OFFCURVE",
"263 746 OFFCURVE",
"360 746 CURVE SMOOTH"
);
}
);
width = 720;
}
);
note = Abrevedotbelow;
unicode = 1EB6;
},
{
glyphname = Abrevegrave;
lastChange = "2015-07-18 10:04:45 +0000";
layers = (
{
layerId = "63696E93-80B4-4894-80FD-D92E433586BC";
name = "Light ExtraLight";
paths = (
{
closed = 1;
nodes = (
"88 0 LINE SMOOTH",
"104 0 OFFCURVE",
"108 6 OFFCURVE",
"113 17 CURVE SMOOTH",
"189 197 LINE",
"531 197 LINE",
"607 17 LINE SMOOTH",
"612 6 OFFCURVE",
"616 0 OFFCURVE",
"632 0 CURVE SMOOTH",
"651 0 LINE SMOOTH",
"661 0 OFFCURVE",
"667 8 OFFCURVE",
"663 18 CURVE SMOOTH",
"389 663 LINE SMOOTH",
"384 676 OFFCURVE",
"381 680 OFFCURVE",
"369 680 CURVE SMOOTH",
"351 680 LINE SMOOTH",
"339 680 OFFCURVE",
"336 676 OFFCURVE",
"331 663 CURVE SMOOTH",
"57 18 LINE SMOOTH",
"53 8 OFFCURVE",
"59 0 OFFCURVE",
"69 0 CURVE SMOOTH"
);
},
{
closed = 1;
nodes = (
"360 601 LINE",
"510 246 LINE",
"209 246 LINE"
);
},
{
closed = 1;
nodes = (
"437 746 OFFCURVE",
"501 787 OFFCURVE",
"501 867 CURVE SMOOTH",
"501 878 OFFCURVE",
"495 885 OFFCURVE",
"485 885 CURVE SMOOTH",
"461 885 LINE SMOOTH",
"447 885 OFFCURVE",
"444 878 OFFCURVE",
"444 866 CURVE SMOOTH",
"444 819 OFFCURVE",
"410 797 OFFCURVE",
"360 797 CURVE SMOOTH",
"310 797 OFFCURVE",
"276 819 OFFCURVE",
"276 866 CURVE SMOOTH",
"276 878 OFFCURVE",
"273 885 OFFCURVE",
"259 885 CURVE SMOOTH",
"235 885 LINE SMOOTH",
"225 885 OFFCURVE",
"219 878 OFFCURVE",
"219 867 CURVE SMOOTH",
"219 787 OFFCURVE",
"283 746 OFFCURVE",
"360 746 CURVE SMOOTH"
);
},
{
closed = 1;
nodes = (
"375 859 LINE SMOOTH",
"385 859 OFFCURVE",
"387 865 OFFCURVE",
"383 875 CURVE SMOOTH",
"344 983 LINE SMOOTH",
"340 994 OFFCURVE",
"336 997 OFFCURVE",
"322 997 CURVE SMOOTH",
"295 997 LINE SMOOTH",
"283 997 OFFCURVE",
"280 991 OFFCURVE",
"285 981 CURVE SMOOTH",
"340 870 LINE SMOOTH",
"344 862 OFFCURVE",
"349 859 OFFCURVE",
"360 859 CURVE SMOOTH"
);
}
);
width = 720;
}
);
note = Abrevegrave;
unicode = 1EB0;
},
{
glyphname = Abrevehookabove;
lastChange = "2015-07-18 10:04:45 +0000";
layers = (
{
layerId = "63696E93-80B4-4894-80FD-D92E433586BC";
name = "Light ExtraLight";
paths = (
{
closed = 1;
nodes = (
"88 0 LINE SMOOTH",
"104 0 OFFCURVE",
"108 6 OFFCURVE",
"113 17 CURVE SMOOTH",
"189 197 LINE",
"531 197 LINE",
"607 17 LINE SMOOTH",
"612 6 OFFCURVE",
"616 0 OFFCURVE",
"632 0 CURVE SMOOTH",
"651 0 LINE SMOOTH",
"661 0 OFFCURVE",
"667 8 OFFCURVE",
"663 18 CURVE SMOOTH",
"389 663 LINE SMOOTH",
"384 676 OFFCURVE",
"381 680 OFFCURVE",
"369 680 CURVE SMOOTH",
"351 680 LINE SMOOTH",
"339 680 OFFCURVE",
"336 676 OFFCURVE",
"331 663 CURVE SMOOTH",
"57 18 LINE SMOOTH",
"53 8 OFFCURVE",
"59 0 OFFCURVE",
"69 0 CURVE SMOOTH"
);
},
{
closed = 1;
nodes = (
"360 601 LINE",
"510 246 LINE",
"209 246 LINE"
);
},
{
closed = 1;
nodes = (
"437 746 OFFCURVE",
"500 786 OFFCURVE",
"500 866 CURVE SMOOTH",
"500 877 OFFCURVE",
"494 884 OFFCURVE",
"484 884 CURVE SMOOTH",
"462 884 LINE SMOOTH",
"448 884 OFFCURVE",
"445 877 OFFCURVE",
"445 865 CURVE SMOOTH",
"445 818 OFFCURVE",
"417 795 OFFCURVE",
"360 795 CURVE SMOOTH",
"303 795 OFFCURVE",
"275 818 OFFCURVE",
"275 865 CURVE SMOOTH",
"275 877 OFFCURVE",
"272 884 OFFCURVE",
"258 884 CURVE SMOOTH",
"236 884 LINE SMOOTH",
"226 884 OFFCURVE",
"220 877 OFFCURVE",
"220 866 CURVE SMOOTH",
"220 786 OFFCURVE",
"283 746 OFFCURVE",
"360 746 CURVE SMOOTH"
);
},
{
closed = 1;
nodes = (
"350 853 LINE SMOOTH",
"363 853 OFFCURVE",
"370 861 OFFCURVE",
"370 876 CURVE SMOOTH",
"370 885 LINE",
"410 885 OFFCURVE",
"447 906 OFFCURVE",
"447 955 CURVE SMOOTH",
"447 1001 OFFCURVE",
"415 1025 OFFCURVE",
"358 1025 CURVE SMOOTH",
"329 1025 OFFCURVE",
"299 1017 OFFCURVE",
"281 1006 CURVE",
"277 1003 OFFCURVE",
"276 1002 OFFCURVE",
"278 997 CURVE",
"292 970 LINE",
"293 967 OFFCURVE",
"295 967 OFFCURVE",
"299 969 CURVE SMOOTH",
"314 977 OFFCURVE",
"336 982 OFFCURVE",
"356 982 CURVE SMOOTH",
"384 982 OFFCURVE",
"398 976 OFFCURVE",
"398 955 CURVE SMOOTH",
"398 933 OFFCURVE",
"388 925 OFFCURVE",
"354 925 CURVE SMOOTH",
"332 925 OFFCURVE",
"320 914 OFFCURVE",
"320 895 CURVE SMOOTH",
"320 876 LINE SMOOTH",
"320 861 OFFCURVE",
"327 853 OFFCURVE",
"342 853 CURVE SMOOTH"
);
}
);
width = 720;
}
);
note = Abrevehookabove;
unicode = 1EB2;
},
{
glyphname = Abrevetilde;
lastChange = "2015-07-18 10:04:45 +0000";
layers = (
{
layerId = "63696E93-80B4-4894-80FD-D92E433586BC";
name = "Light ExtraLight";
paths = (
{
closed = 1;
nodes = (
"88 0 LINE SMOOTH",
"104 0 OFFCURVE",
"108 6 OFFCURVE",
"113 17 CURVE SMOOTH",
"189 197 LINE",
"531 197 LINE",
"607 17 LINE SMOOTH",
"612 6 OFFCURVE",
"616 0 OFFCURVE",
"632 0 CURVE SMOOTH",
"651 0 LINE SMOOTH",
"661 0 OFFCURVE",
"667 8 OFFCURVE",
"663 18 CURVE SMOOTH",
"389 663 LINE SMOOTH",
"384 676 OFFCURVE",
"381 680 OFFCURVE",
"369 680 CURVE SMOOTH",
"351 680 LINE SMOOTH",
"339 680 OFFCURVE",
"336 676 OFFCURVE",
"331 663 CURVE SMOOTH",
"57 18 LINE SMOOTH",
"53 8 OFFCURVE",
"59 0 OFFCURVE",
"69 0 CURVE SMOOTH"
);
},
{
closed = 1;
nodes = (
"360 601 LINE",
"510 246 LINE",
"209 246 LINE"
);
},
{
closed = 1;
nodes = (
"441 746 OFFCURVE",
"504 786 OFFCURVE",
"504 866 CURVE SMOOTH",
"504 877 OFFCURVE",
"498 884 OFFCURVE",
"488 884 CURVE SMOOTH",
"466 884 LINE SMOOTH",
"452 884 OFFCURVE",
"449 877 OFFCURVE",
"449 865 CURVE SMOOTH",
"449 818 OFFCURVE",
"421 795 OFFCURVE",
"364 795 CURVE SMOOTH",
"307 795 OFFCURVE",
"279 818 OFFCURVE",
"279 865 CURVE SMOOTH",
"279 877 OFFCURVE",
"276 884 OFFCURVE",
"262 884 CURVE SMOOTH",
"240 884 LINE SMOOTH",
"230 884 OFFCURVE",
"224 877 OFFCURVE",
"224 866 CURVE SMOOTH",
"224 786 OFFCURVE",
"287 746 OFFCURVE",
"364 746 CURVE SMOOTH"
);
},
{
closed = 1;
nodes = (
"464 921 OFFCURVE",
"495 937 OFFCURVE",
"518 968 CURVE SMOOTH",
"531 985 OFFCURVE",
"530 994 OFFCURVE",
"521 1002 CURVE",
"507 1016 OFFCURVE",
"493 1012 OFFCURVE",
"481 996 CURVE SMOOTH",
"466 975 OFFCURVE",
"453 966 OFFCURVE",
"424 966 CURVE SMOOTH",
"375 966 OFFCURVE",
"370 1022 OFFCURVE",
"295 1022 CURVE SMOOTH",
"257 1022 OFFCURVE",
"226 1006 OFFCURVE",
"203 975 CURVE SMOOTH",
"190 958 OFFCURVE",
"191 949 OFFCURVE",
"200 941 CURVE",
"214 927 OFFCURVE",
"228 931 OFFCURVE",
"240 947 CURVE SMOOTH",
"255 968 OFFCURVE",
"268 977 OFFCURVE",
"297 977 CURVE SMOOTH",
"344 977 OFFCURVE",
"359 921 OFFCURVE",
"426 921 CURVE SMOOTH"
);
}
);
width = 720;
}
);
note = Abrevetilde;
unicode = 1EB4;
},
{
glyphname = Acaron;
lastChange = "2015-07-18 10:04:44 +0000";
layers = (
{
layerId = "63696E93-80B4-4894-80FD-D92E433586BC";
name = "Light ExtraLight";
paths = (
{
closed = 1;
nodes = (
"88 0 LINE SMOOTH",
"104 0 OFFCURVE",
"108 6 OFFCURVE",
"113 17 CURVE SMOOTH",
"189 197 LINE",
"531 197 LINE",
"607 17 LINE SMOOTH",
"612 6 OFFCURVE",
"616 0 OFFCURVE",
"632 0 CURVE SMOOTH",
"651 0 LINE SMOOTH",
"661 0 OFFCURVE",
"667 8 OFFCURVE",
"663 18 CURVE SMOOTH",
"389 663 LINE SMOOTH",
"384 676 OFFCURVE",
"381 680 OFFCURVE",
"369 680 CURVE SMOOTH",
"351 680 LINE SMOOTH",
"339 680 OFFCURVE",
"336 676 OFFCURVE",
"331 663 CURVE SMOOTH",
"57 18 LINE SMOOTH",
"53 8 OFFCURVE",
"59 0 OFFCURVE",
"69 0 CURVE SMOOTH"
);
},
{
closed = 1;
nodes = (
"360 601 LINE",
"510 246 LINE",
"209 246 LINE"
);
},
{
closed = 1;
nodes = (
"366 746 LINE SMOOTH",
"378 746 OFFCURVE",
"381 752 OFFCURVE",
"389 763 CURVE SMOOTH",
"501 919 LINE",
"508 928 OFFCURVE",
"499 937 OFFCURVE",
"489 937 CURVE SMOOTH",
"470 937 LINE SMOOTH",
"454 937 OFFCURVE",
"451 930 OFFCURVE",
"444 920 CURVE SMOOTH",
"360 798 LINE",
"276 920 LINE SMOOTH",
"269 930 OFFCURVE",
"266 937 OFFCURVE",
"250 937 CURVE SMOOTH",
"231 937 LINE SMOOTH",
"221 937 OFFCURVE",
"212 928 OFFCURVE",
"219 919 CURVE",
"331 763 LINE SMOOTH",
"339 752 OFFCURVE",
"342 746 OFFCURVE",
"354 746 CURVE SMOOTH"
);
}
);
width = 720;
}
);
note = Acaron;
unicode = 01CD;
},
{
glyphname = Acircumflex;
lastChange = "2015-07-18 10:04:43 +0000";
layers = (
{
layerId = "63696E93-80B4-4894-80FD-D92E433586BC";
name = "Light ExtraLight";
paths = (
{
closed = 1;
nodes = (
"88 0 LINE SMOOTH",
"104 0 OFFCURVE",
"108 6 OFFCURVE",
"113 17 CURVE SMOOTH",
"189 197 LINE",
"531 197 LINE",
"607 17 LINE SMOOTH",
"612 6 OFFCURVE",
"616 0 OFFCURVE",
"632 0 CURVE SMOOTH",
"651 0 LINE SMOOTH",
"661 0 OFFCURVE",
"667 8 OFFCURVE",
"663 18 CURVE SMOOTH",
"389 663 LINE SMOOTH",
"384 676 OFFCURVE",
"381 680 OFFCURVE",
"369 680 CURVE SMOOTH",
"351 680 LINE SMOOTH",
"339 680 OFFCURVE",
"336 676 OFFCURVE",
"331 663 CURVE SMOOTH",
"57 18 LINE SMOOTH",
"53 8 OFFCURVE",
"59 0 OFFCURVE",
"69 0 CURVE SMOOTH"
);
},
{
closed = 1;
nodes = (
"360 601 LINE",
"510 246 LINE",
"209 246 LINE"
);
},
{
closed = 1;
nodes = (
"250 734 LINE SMOOTH",
"266 734 OFFCURVE",
"269 741 OFFCURVE",
"276 751 CURVE SMOOTH",
"360 873 LINE",
"444 751 LINE SMOOTH",
"451 741 OFFCURVE",
"454 734 OFFCURVE",
"470 734 CURVE SMOOTH",
"489 734 LINE SMOOTH",
"499 734 OFFCURVE",
"508 743 OFFCURVE",
"501 752 CURVE",
"389 908 LINE SMOOTH",
"381 919 OFFCURVE",
"378 925 OFFCURVE",
"366 925 CURVE SMOOTH",
"354 925 LINE SMOOTH",
"342 925 OFFCURVE",
"339 919 OFFCURVE",
"331 908 CURVE SMOOTH",
"219 752 LINE",
"212 743 OFFCURVE",
"221 734 OFFCURVE",
"231 734 CURVE SMOOTH"
);
}
);
width = 720;
}
);
note = Acircumflex;
unicode = 00C2;
},
{
glyphname = Acircumflexacute;
lastChange = "2015-07-18 10:04:45 +0000";
layers = (
{
layerId = "63696E93-80B4-4894-80FD-D92E433586BC";
name = "Light ExtraLight";
paths = (
{
closed = 1;
nodes = (
"88 0 LINE SMOOTH",
"104 0 OFFCURVE",
"108 6 OFFCURVE",
"113 17 CURVE SMOOTH",
"189 197 LINE",
"531 197 LINE",
"607 17 LINE SMOOTH",
"612 6 OFFCURVE",
"616 0 OFFCURVE",
"632 0 CURVE SMOOTH",
"651 0 LINE SMOOTH",
"661 0 OFFCURVE",
"667 8 OFFCURVE",
"663 18 CURVE SMOOTH",
"389 663 LINE SMOOTH",
"384 676 OFFCURVE",
"381 680 OFFCURVE",
"369 680 CURVE SMOOTH",
"351 680 LINE SMOOTH",
"339 680 OFFCURVE",
"336 676 OFFCURVE",
"331 663 CURVE SMOOTH",
"57 18 LINE SMOOTH",
"53 8 OFFCURVE",
"59 0 OFFCURVE",
"69 0 CURVE SMOOTH"
);
},
{
closed = 1;
nodes = (
"360 601 LINE",
"510 246 LINE",
"209 246 LINE"
);
},
{
closed = 1;
nodes = (
"249 747 LINE SMOOTH",
"261 747 OFFCURVE",
"264 748 OFFCURVE",
"273 758 CURVE SMOOTH",
"357 856 LINE",
"441 758 LINE SMOOTH",
"450 748 OFFCURVE",
"453 747 OFFCURVE",
"465 747 CURVE SMOOTH",
"484 747 LINE SMOOTH",
"494 747 OFFCURVE",
"500 756 OFFCURVE",
"493 765 CURVE",
"386 891 LINE SMOOTH",
"377 901 OFFCURVE",
"372 908 OFFCURVE",
"360 908 CURVE SMOOTH",
"354 908 LINE SMOOTH",
"342 908 OFFCURVE",
"337 901 OFFCURVE",
"328 891 CURVE SMOOTH",
"221 765 LINE",
"214 756 OFFCURVE",
"220 747 OFFCURVE",
"230 747 CURVE SMOOTH"
);
},
{
closed = 1;
nodes = (
"471 852 LINE SMOOTH",
"482 852 OFFCURVE",
"487 855 OFFCURVE",
"491 863 CURVE SMOOTH",
"546 974 LINE SMOOTH",
"551 984 OFFCURVE",
"548 990 OFFCURVE",
"536 990 CURVE SMOOTH",
"509 990 LINE SMOOTH",
"495 990 OFFCURVE",
"491 987 OFFCURVE",
"487 976 CURVE SMOOTH",
"448 868 LINE SMOOTH",
"444 858 OFFCURVE",
"446 852 OFFCURVE",
"456 852 CURVE SMOOTH"
);
}
);
width = 720;
}
);
note = Acircumflexacute;
unicode = 1EA4;
},
{
glyphname = Acircumflexdotbelow;
lastChange = "2015-07-18 10:04:44 +0000";
layers = (
{
layerId = "63696E93-80B4-4894-80FD-D92E433586BC";
name = "Light ExtraLight";
paths = (
{
closed = 1;
nodes = (
"88 0 LINE SMOOTH",
"104 0 OFFCURVE",
"108 6 OFFCURVE",
"113 17 CURVE SMOOTH",
"189 197 LINE",
"531 197 LINE",
"607 17 LINE SMOOTH",
"612 6 OFFCURVE",
"616 0 OFFCURVE",
"632 0 CURVE SMOOTH",
"651 0 LINE SMOOTH",
"661 0 OFFCURVE",
"667 8 OFFCURVE",
"663 18 CURVE SMOOTH",
"389 663 LINE SMOOTH",
"384 676 OFFCURVE",
"381 680 OFFCURVE",
"369 680 CURVE SMOOTH",
"351 680 LINE SMOOTH",
"339 680 OFFCURVE",
"336 676 OFFCURVE",
"331 663 CURVE SMOOTH",
"57 18 LINE SMOOTH",
"53 8 OFFCURVE",
"59 0 OFFCURVE",
"69 0 CURVE SMOOTH"
);
},
{
closed = 1;
nodes = (
"367 -161 LINE SMOOTH",
"387 -161 OFFCURVE",
"400 -145 OFFCURVE",
"400 -126 CURVE SMOOTH",
"400 -113 LINE SMOOTH",
"400 -94 OFFCURVE",
"386 -78 OFFCURVE",
"367 -78 CURVE SMOOTH",
"353 -78 LINE SMOOTH",
"334 -78 OFFCURVE",
"320 -94 OFFCURVE",
"320 -113 CURVE SMOOTH",
"320 -126 LINE SMOOTH",
"320 -145 OFFCURVE",
"334 -161 OFFCURVE",
"353 -161 CURVE SMOOTH"
);
},
{
closed = 1;
nodes = (
"360 601 LINE",
"510 246 LINE",
"209 246 LINE"
);
},
{
closed = 1;
nodes = (
"250 746 LINE SMOOTH",
"266 746 OFFCURVE",
"269 753 OFFCURVE",
"276 763 CURVE SMOOTH",
"360 885 LINE",
"444 763 LINE SMOOTH",
"451 753 OFFCURVE",
"454 746 OFFCURVE",
"470 746 CURVE SMOOTH",
"489 746 LINE SMOOTH",
"499 746 OFFCURVE",
"508 755 OFFCURVE",
"501 764 CURVE",
"389 920 LINE SMOOTH",
"381 931 OFFCURVE",
"378 937 OFFCURVE",
"366 937 CURVE SMOOTH",
"354 937 LINE SMOOTH",
"342 937 OFFCURVE",
"339 931 OFFCURVE",
"331 920 CURVE SMOOTH",
"219 764 LINE",
"212 755 OFFCURVE",
"221 746 OFFCURVE",
"231 746 CURVE SMOOTH"
);
}
);
width = 720;
}
);
note = Acircumflexdotbelow;
unicode = 1EAC;
},
{
glyphname = Acircumflexgrave;
lastChange = "2015-07-18 10:04:44 +0000";
layers = (
{
layerId = "63696E93-80B4-4894-80FD-D92E433586BC";
name = "Light ExtraLight";
paths = (
{
closed = 1;
nodes = (
"88 0 LINE SMOOTH",
"104 0 OFFCURVE",
"108 6 OFFCURVE",
"113 17 CURVE SMOOTH",
"189 197 LINE",
"531 197 LINE",
"607 17 LINE SMOOTH",
"612 6 OFFCURVE",
"616 0 OFFCURVE",
"632 0 CURVE SMOOTH",
"651 0 LINE SMOOTH",
"661 0 OFFCURVE",
"667 8 OFFCURVE",
"663 18 CURVE SMOOTH",
"389 663 LINE SMOOTH",
"384 676 OFFCURVE",
"381 680 OFFCURVE",
"369 680 CURVE SMOOTH",
"351 680 LINE SMOOTH",
"339 680 OFFCURVE",
"336 676 OFFCURVE",
"331 663 CURVE SMOOTH",
"57 18 LINE SMOOTH",
"53 8 OFFCURVE",
"59 0 OFFCURVE",
"69 0 CURVE SMOOTH"
);
},
{
closed = 1;
nodes = (
"360 601 LINE",
"510 246 LINE",
"209 246 LINE"
);
},
{
closed = 1;
nodes = (
"267 852 LINE SMOOTH",
"277 852 OFFCURVE",
"279 858 OFFCURVE",
"275 868 CURVE SMOOTH",
"236 976 LINE SMOOTH",
"232 987 OFFCURVE",
"228 990 OFFCURVE",
"214 990 CURVE SMOOTH",
"187 990 LINE SMOOTH",
"175 990 OFFCURVE",
"172 984 OFFCURVE",
"177 974 CURVE SMOOTH",
"232 863 LINE SMOOTH",
"236 855 OFFCURVE",
"241 852 OFFCURVE",
"252 852 CURVE SMOOTH"
);
},
{
closed = 1;
nodes = (
"258 747 LINE SMOOTH",
"270 747 OFFCURVE",
"273 748 OFFCURVE",
"282 758 CURVE SMOOTH",
"366 856 LINE",
"450 758 LINE SMOOTH",
"459 748 OFFCURVE",
"462 747 OFFCURVE",
"474 747 CURVE SMOOTH",
"493 747 LINE SMOOTH",
"503 747 OFFCURVE",
"509 756 OFFCURVE",
"502 765 CURVE",
"395 891 LINE SMOOTH",
"386 901 OFFCURVE",
"381 908 OFFCURVE",
"369 908 CURVE SMOOTH",
"363 908 LINE SMOOTH",
"351 908 OFFCURVE",
"346 901 OFFCURVE",
"337 891 CURVE SMOOTH",
"230 765 LINE",
"223 756 OFFCURVE",
"229 747 OFFCURVE",
"239 747 CURVE SMOOTH"
);
}
);
width = 720;
}
);
note = Acircumflexgrave;
unicode = 1EA6;
},
{
glyphname = Acircumflexhookabove;
lastChange = "2015-07-18 10:04:45 +0000";
layers = (
{
layerId = "63696E93-80B4-4894-80FD-D92E433586BC";
name = "Light ExtraLight";
paths = (
{
closed = 1;
nodes = (
"88 0 LINE SMOOTH",
"104 0 OFFCURVE",
"108 6 OFFCURVE",
"113 17 CURVE SMOOTH",
"189 197 LINE",
"531 197 LINE",
"607 17 LINE SMOOTH",
"612 6 OFFCURVE",
"616 0 OFFCURVE",
"632 0 CURVE SMOOTH",
"651 0 LINE SMOOTH",
"661 0 OFFCURVE",
"667 8 OFFCURVE",
"663 18 CURVE SMOOTH",
"389 663 LINE SMOOTH",
"384 676 OFFCURVE",
"381 680 OFFCURVE",
"369 680 CURVE SMOOTH",
"351 680 LINE SMOOTH",
"339 680 OFFCURVE",
"336 676 OFFCURVE",
"331 663 CURVE SMOOTH",
"57 18 LINE SMOOTH",
"53 8 OFFCURVE",
"59 0 OFFCURVE",
"69 0 CURVE SMOOTH"
);
},
{
closed = 1;
nodes = (
"360 601 LINE",
"510 246 LINE",
"209 246 LINE"
);
},
{
closed = 1;
nodes = (
"253 747 LINE SMOOTH",
"265 747 OFFCURVE",
"268 748 OFFCURVE",
"277 758 CURVE SMOOTH",
"361 856 LINE",
"445 758 LINE SMOOTH",
"454 748 OFFCURVE",
"457 747 OFFCURVE",
"469 747 CURVE SMOOTH",
"488 747 LINE SMOOTH",
"498 747 OFFCURVE",
"504 756 OFFCURVE",
"497 765 CURVE",
"390 891 LINE SMOOTH",
"381 901 OFFCURVE",
"376 908 OFFCURVE",
"364 908 CURVE SMOOTH",
"358 908 LINE SMOOTH",
"346 908 OFFCURVE",
"341 901 OFFCURVE",
"332 891 CURVE SMOOTH",
"225 765 LINE",
"218 756 OFFCURVE",
"224 747 OFFCURVE",
"234 747 CURVE SMOOTH"
);
},
{
closed = 1;
nodes = (
"484 843 LINE SMOOTH",
"499 843 OFFCURVE",
"506 851 OFFCURVE",
"506 866 CURVE SMOOTH",
"506 878 LINE",
"547 878 OFFCURVE",
"586 902 OFFCURVE",
"586 954 CURVE SMOOTH",
"586 1002 OFFCURVE",
"552 1029 OFFCURVE",
"492 1029 CURVE SMOOTH",
"463 1029 OFFCURVE",
"431 1021 OFFCURVE",
"412 1009 CURVE",
"408 1006 OFFCURVE",
"407 1005 OFFCURVE",
"409 1000 CURVE",
"423 971 LINE",
"424 968 OFFCURVE",
"427 968 OFFCURVE",
"431 970 CURVE",
"447 979 OFFCURVE",
"470 984 OFFCURVE",
"490 984 CURVE SMOOTH",
"520 984 OFFCURVE",
"535 975 OFFCURVE",
"535 954 CURVE SMOOTH",
"535 930 OFFCURVE",
"524 920 OFFCURVE",
"488 920 CURVE SMOOTH",
"466 920 OFFCURVE",
"453 909 OFFCURVE",
"453 889 CURVE SMOOTH",
"453 866 LINE SMOOTH",
"453 851 OFFCURVE",
"460 843 OFFCURVE",
"476 843 CURVE SMOOTH"
);
}
);
width = 720;
}
);
note = Acircumflexhookabove;
unicode = 1EA8;
},
{
glyphname = Acircumflextilde;
lastChange = "2015-07-18 10:04:45 +0000";
layers = (
{
layerId = "63696E93-80B4-4894-80FD-D92E433586BC";
name = "Light ExtraLight";
paths = (
{
closed = 1;
nodes = (
"88 0 LINE SMOOTH",
"104 0 OFFCURVE",
"108 6 OFFCURVE",
"113 17 CURVE SMOOTH",
"189 197 LINE",
"531 197 LINE",
"607 17 LINE SMOOTH",
"612 6 OFFCURVE",
"616 0 OFFCURVE",
"632 0 CURVE SMOOTH",
"651 0 LINE SMOOTH",
"661 0 OFFCURVE",
"667 8 OFFCURVE",
"663 18 CURVE SMOOTH",
"389 663 LINE SMOOTH",
"384 676 OFFCURVE",
"381 680 OFFCURVE",
"369 680 CURVE SMOOTH",
"351 680 LINE SMOOTH",
"339 680 OFFCURVE",
"336 676 OFFCURVE",
"331 663 CURVE SMOOTH",
"57 18 LINE SMOOTH",
"53 8 OFFCURVE",
"59 0 OFFCURVE",
"69 0 CURVE SMOOTH"
);
},
{
closed = 1;
nodes = (
"360 601 LINE",
"510 246 LINE",
"209 246 LINE"
);
},
{
closed = 1;
nodes = (
"252 747 LINE SMOOTH",
"264 747 OFFCURVE",
"267 748 OFFCURVE",
"276 758 CURVE SMOOTH",
"360 856 LINE",
"444 758 LINE SMOOTH",
"453 748 OFFCURVE",
"456 747 OFFCURVE",
"468 747 CURVE SMOOTH",
"487 747 LINE SMOOTH",
"497 747 OFFCURVE",
"503 756 OFFCURVE",
"496 765 CURVE",
"389 891 LINE SMOOTH",
"380 901 OFFCURVE",
"375 908 OFFCURVE",
"363 908 CURVE SMOOTH",
"357 908 LINE SMOOTH",
"345 908 OFFCURVE",
"340 901 OFFCURVE",
"331 891 CURVE SMOOTH",
"224 765 LINE",
"217 756 OFFCURVE",
"223 747 OFFCURVE",
"233 747 CURVE SMOOTH"
);
},
{
closed = 1;
nodes = (
"464 925 OFFCURVE",
"495 941 OFFCURVE",
"518 972 CURVE SMOOTH",
"531 989 OFFCURVE",
"530 998 OFFCURVE",
"521 1006 CURVE",
"507 1020 OFFCURVE",
"493 1016 OFFCURVE",
"481 1000 CURVE SMOOTH",
"466 979 OFFCURVE",
"453 970 OFFCURVE",
"424 970 CURVE SMOOTH",
"375 970 OFFCURVE",
"370 1026 OFFCURVE",
"295 1026 CURVE SMOOTH",
"257 1026 OFFCURVE",
"226 1010 OFFCURVE",
"203 979 CURVE SMOOTH",
"190 962 OFFCURVE",
"191 953 OFFCURVE",
"200 945 CURVE",
"214 931 OFFCURVE",
"228 935 OFFCURVE",
"240 951 CURVE SMOOTH",
"255 972 OFFCURVE",
"268 981 OFFCURVE",
"297 981 CURVE SMOOTH",
"344 981 OFFCURVE",
"359 925 OFFCURVE",
"426 925 CURVE SMOOTH"
);
}
);
width = 720;
}
);
note = Acircumflextilde;
unicode = 1EAA;
},
{
glyphname = Adieresis;
lastChange = "2015-07-18 10:04:46 +0000";
layers = (
{
layerId = "63696E93-80B4-4894-80FD-D92E433586BC";
name = "Light ExtraLight";
paths = (
{
closed = 1;
nodes = (
"88 0 LINE SMOOTH",
"104 0 OFFCURVE",
"108 6 OFFCURVE",
"113 17 CURVE SMOOTH",
"189 197 LINE",
"531 197 LINE",
"607 17 LINE SMOOTH",
"612 6 OFFCURVE",
"616 0 OFFCURVE",
"632 0 CURVE SMOOTH",
"651 0 LINE SMOOTH",
"661 0 OFFCURVE",
"667 8 OFFCURVE",
"663 18 CURVE SMOOTH",
"389 663 LINE SMOOTH",
"384 676 OFFCURVE",
"381 680 OFFCURVE",
"369 680 CURVE SMOOTH",
"351 680 LINE SMOOTH",
"339 680 OFFCURVE",
"336 676 OFFCURVE",
"331 663 CURVE SMOOTH",
"57 18 LINE SMOOTH",
"53 8 OFFCURVE",
"59 0 OFFCURVE",
"69 0 CURVE SMOOTH"
);
},
{
closed = 1;
nodes = (
"360 601 LINE",
"510 246 LINE",
"209 246 LINE"
);
},
{
closed = 1;
nodes = (
"277 738 LINE SMOOTH",
"297 738 OFFCURVE",
"310 754 OFFCURVE",
"310 773 CURVE SMOOTH",
"310 786 LINE SMOOTH",
"310 805 OFFCURVE",
"296 821 OFFCURVE",
"277 821 CURVE SMOOTH",
"263 821 LINE SMOOTH",
"244 821 OFFCURVE",
"230 805 OFFCURVE",
"230 786 CURVE SMOOTH",
"230 773 LINE SMOOTH",
"230 754 OFFCURVE",
"244 738 OFFCURVE",
"263 738 CURVE SMOOTH"
);
},
{
closed = 1;
nodes = (
"457 738 LINE SMOOTH",
"477 738 OFFCURVE",
"490 754 OFFCURVE",
"490 773 CURVE SMOOTH",
"490 786 LINE SMOOTH",
"490 805 OFFCURVE",
"476 821 OFFCURVE",
"457 821 CURVE SMOOTH",
"443 821 LINE SMOOTH",
"424 821 OFFCURVE",
"410 805 OFFCURVE",
"410 786 CURVE SMOOTH",
"410 773 LINE SMOOTH",
"410 754 OFFCURVE",
"424 738 OFFCURVE",
"443 738 CURVE SMOOTH"
);
}
);
width = 720;
}
);
note = Adieresis;
unicode = 00C4;
},
{
glyphname = Adotbelow;
lastChange = "2015-07-18 10:04:45 +0000";
layers = (
{
layerId = "63696E93-80B4-4894-80FD-D92E433586BC";
name = "Light ExtraLight";
paths = (
{
closed = 1;
nodes = (
"88 0 LINE SMOOTH",
"104 0 OFFCURVE",
"108 6 OFFCURVE",
"113 17 CURVE SMOOTH",
"189 197 LINE",
"531 197 LINE",
"607 17 LINE SMOOTH",
"612 6 OFFCURVE",
"616 0 OFFCURVE",
"632 0 CURVE SMOOTH",
"651 0 LINE SMOOTH",
"661 0 OFFCURVE",
"667 8 OFFCURVE",
"663 18 CURVE SMOOTH",
"389 663 LINE SMOOTH",
"384 676 OFFCURVE",
"381 680 OFFCURVE",
"369 680 CURVE SMOOTH",
"351 680 LINE SMOOTH",
"339 680 OFFCURVE",
"336 676 OFFCURVE",
"331 663 CURVE SMOOTH",
"57 18 LINE SMOOTH",
"53 8 OFFCURVE",
"59 0 OFFCURVE",
"69 0 CURVE SMOOTH"
);
},
{
closed = 1;
nodes = (
"367 -161 LINE SMOOTH",
"387 -161 OFFCURVE",
"400 -145 OFFCURVE",
"400 -126 CURVE SMOOTH",
"400 -113 LINE SMOOTH",
"400 -94 OFFCURVE",
"386 -78 OFFCURVE",
"367 -78 CURVE SMOOTH",
"353 -78 LINE SMOOTH",
"334 -78 OFFCURVE",
"320 -94 OFFCURVE",
"320 -113 CURVE SMOOTH",
"320 -126 LINE SMOOTH",
"320 -145 OFFCURVE",
"334 -161 OFFCURVE",
"353 -161 CURVE SMOOTH"
);
},
{
closed = 1;
nodes = (
"360 601 LINE",
"510 246 LINE",
"209 246 LINE"
);
}
);
width = 720;
}
);
note = Adotbelow;
unicode = 1EA0;
},
{
glyphname = Agrave;
lastChange = "2015-07-18 10:04:46 +0000";
layers = (
{
layerId = "63696E93-80B4-4894-80FD-D92E433586BC";
name = "Light ExtraLight";
paths = (
{
closed = 1;
nodes = (
"88 0 LINE SMOOTH",
"104 0 OFFCURVE",
"108 6 OFFCURVE",
"113 17 CURVE SMOOTH",
"189 197 LINE",
"531 197 LINE",
"607 17 LINE SMOOTH",
"612 6 OFFCURVE",
"616 0 OFFCURVE",
"632 0 CURVE SMOOTH",
"651 0 LINE SMOOTH",
"661 0 OFFCURVE",
"667 8 OFFCURVE",
"663 18 CURVE SMOOTH",
"389 663 LINE SMOOTH",
"384 676 OFFCURVE",
"381 680 OFFCURVE",
"369 680 CURVE SMOOTH",
"351 680 LINE SMOOTH",
"339 680 OFFCURVE",
"336 676 OFFCURVE",
"331 663 CURVE SMOOTH",
"57 18 LINE SMOOTH",
"53 8 OFFCURVE",
"59 0 OFFCURVE",
"69 0 CURVE SMOOTH"
);
},
{
closed = 1;
nodes = (
"360 601 LINE",
"510 246 LINE",
"209 246 LINE"
);
},
{
closed = 1;
nodes = (
"377 741 LINE SMOOTH",
"387 741 OFFCURVE",
"389 747 OFFCURVE",
"385 757 CURVE SMOOTH",
"334 898 LINE SMOOTH",
"330 909 OFFCURVE",
"326 912 OFFCURVE",
"312 912 CURVE SMOOTH",
"285 912 LINE SMOOTH",
"273 912 OFFCURVE",
"270 906 OFFCURVE",
"275 896 CURVE SMOOTH",
"342 752 LINE SMOOTH",
"346 744 OFFCURVE",
"351 741 OFFCURVE",
"362 741 CURVE SMOOTH"
);
}
);
width = 720;
}
);
note = Agrave;
unicode = 00C0;
},
{
glyphname = Ahookabove;
lastChange = "2015-07-18 10:04:45 +0000";
layers = (
{
layerId = "63696E93-80B4-4894-80FD-D92E433586BC";
name = "Light ExtraLight";
paths = (
{
closed = 1;
nodes = (
"88 0 LINE SMOOTH",
"104 0 OFFCURVE",
"108 6 OFFCURVE",
"113 17 CURVE SMOOTH",
"189 197 LINE",
"531 197 LINE",
"607 17 LINE SMOOTH",
"612 6 OFFCURVE",
"616 0 OFFCURVE",
"632 0 CURVE SMOOTH",
"651 0 LINE SMOOTH",
"661 0 OFFCURVE",
"667 8 OFFCURVE",
"663 18 CURVE SMOOTH",
"389 663 LINE SMOOTH",
"384 676 OFFCURVE",
"381 680 OFFCURVE",
"369 680 CURVE SMOOTH",
"351 680 LINE SMOOTH",
"339 680 OFFCURVE",
"336 676 OFFCURVE",
"331 663 CURVE SMOOTH",
"57 18 LINE SMOOTH",
"53 8 OFFCURVE",
"59 0 OFFCURVE",
"69 0 CURVE SMOOTH"
);
},
{
closed = 1;
nodes = (
"360 601 LINE",
"510 246 LINE",
"209 246 LINE"
);
},
{
closed = 1;
nodes = (
"364 737 LINE SMOOTH",
"380 737 OFFCURVE",
"387 745 OFFCURVE",
"387 760 CURVE SMOOTH",
"387 787 LINE",
"439 787 OFFCURVE",
"491 819 OFFCURVE",
"491 878 CURVE SMOOTH",
"491 931 OFFCURVE",
"453 968 OFFCURVE",
"370 968 CURVE SMOOTH",
"332 968 OFFCURVE",
"293 958 OFFCURVE",
"268 942 CURVE",
"264 939 OFFCURVE",
"263 938 OFFCURVE",
"265 933 CURVE",
"279 903 LINE",
"280 900 OFFCURVE",
"283 900 OFFCURVE",
"287 902 CURVE SMOOTH",
"314 916 OFFCURVE",
"338 922 OFFCURVE",
"370 922 CURVE SMOOTH",
"416 922 OFFCURVE",
"439 909 OFFCURVE",
"439 878 CURVE SMOOTH",
"439 845 OFFCURVE",
"423 829 OFFCURVE",
"368 829 CURVE SMOOTH",
"346 829 OFFCURVE",
"333 818 OFFCURVE",
"333 798 CURVE SMOOTH",
"333 760 LINE SMOOTH",
"333 745 OFFCURVE",
"340 737 OFFCURVE",
"356 737 CURVE SMOOTH"
);
}
);
width = 720;
}
);
note = Ahookabove;
unicode = 1EA2;
},
{
glyphname = Amacron;
lastChange = "2015-07-18 10:04:44 +0000";
layers = (
{
layerId = "63696E93-80B4-4894-80FD-D92E433586BC";
name = "Light ExtraLight";
paths = (
{
closed = 1;
nodes = (
"88 0 LINE SMOOTH",
"104 0 OFFCURVE",
"108 6 OFFCURVE",
"113 17 CURVE SMOOTH",
"189 197 LINE",
"531 197 LINE",
"607 17 LINE SMOOTH",
"612 6 OFFCURVE",
"616 0 OFFCURVE",
"632 0 CURVE SMOOTH",
"651 0 LINE SMOOTH",
"661 0 OFFCURVE",
"667 8 OFFCURVE",
"663 18 CURVE SMOOTH",
"389 663 LINE SMOOTH",
"384 676 OFFCURVE",
"381 680 OFFCURVE",
"369 680 CURVE SMOOTH",
"351 680 LINE SMOOTH",
"339 680 OFFCURVE",
"336 676 OFFCURVE",
"331 663 CURVE SMOOTH",
"57 18 LINE SMOOTH",
"53 8 OFFCURVE",
"59 0 OFFCURVE",
"69 0 CURVE SMOOTH"
);
},
{
closed = 1;
nodes = (
"360 601 LINE",
"510 246 LINE",
"209 246 LINE"
);
},
{
closed = 1;
nodes = (
"499 801 LINE SMOOTH",
"514 801 OFFCURVE",
"522 805 OFFCURVE",
"522 821 CURVE SMOOTH",
"522 828 LINE SMOOTH",
"522 844 OFFCURVE",
"514 850 OFFCURVE",
"499 850 CURVE SMOOTH",
"221 850 LINE SMOOTH",
"206 850 OFFCURVE",
"198 844 OFFCURVE",
"198 828 CURVE SMOOTH",
"198 821 LINE SMOOTH",
"198 805 OFFCURVE",
"206 801 OFFCURVE",
"221 801 CURVE SMOOTH"
);
}
);
width = 720;
}
);
note = Amacron;
unicode = 0100;
},
{
glyphname = Aogonek;
lastChange = "2015-07-18 10:04:45 +0000";
layers = (
{
layerId = "63696E93-80B4-4894-80FD-D92E433586BC";
name = "Light ExtraLight";
paths = (
{
closed = 1;
nodes = (
"88 0 LINE SMOOTH",
"104 0 OFFCURVE",
"108 6 OFFCURVE",
"113 17 CURVE SMOOTH",
"189 197 LINE",
"531 197 LINE",
"607 17 LINE SMOOTH",
"612 6 OFFCURVE",
"616 0 OFFCURVE",
"632 0 CURVE SMOOTH",
"651 0 LINE SMOOTH",
"661 0 OFFCURVE",
"667 8 OFFCURVE",
"663 18 CURVE SMOOTH",
"389 663 LINE SMOOTH",
"384 676 OFFCURVE",
"381 680 OFFCURVE",
"369 680 CURVE SMOOTH",
"351 680 LINE SMOOTH",
"339 680 OFFCURVE",
"336 676 OFFCURVE",
"331 663 CURVE SMOOTH",
"57 18 LINE SMOOTH",
"53 8 OFFCURVE",
"59 0 OFFCURVE",
"69 0 CURVE SMOOTH"
);
},
{
closed = 1;
nodes = (
"628 -197 OFFCURVE",
"648 -195 OFFCURVE",
"659 -189 CURVE",
"671 -183 OFFCURVE",
"672 -179 OFFCURVE",
"669 -172 CURVE SMOOTH",
"659 -150 LINE SMOOTH",
"655 -141 OFFCURVE",
"652 -142 OFFCURVE",
"645 -145 CURVE",
"639 -148 OFFCURVE",
"632 -149 OFFCURVE",
"623 -149 CURVE SMOOTH",
"608 -149 OFFCURVE",
"599 -139 OFFCURVE",
"599 -122 CURVE SMOOTH",
"599 -93 OFFCURVE",
"610 -66 OFFCURVE",
"656 -10 CURVE SMOOTH",
"663 -2 OFFCURVE",
"658 6 OFFCURVE",
"646 6 CURVE SMOOTH",
"625 6 LINE SMOOTH",
"612 6 OFFCURVE",
"608 2 OFFCURVE",
"600 -7 CURVE SMOOTH",
"556 -57 OFFCURVE",
"539 -94 OFFCURVE",
"539 -130 CURVE SMOOTH",
"539 -166 OFFCURVE",
"563 -197 OFFCURVE",
"612 -197 CURVE SMOOTH"
);
},
{
closed = 1;
nodes = (
"360 601 LINE",
"510 246 LINE",
"209 246 LINE"
);
}
);
width = 720;
}
);
note = Aogonek;
unicode = 0104;
},
{
glyphname = Aring;
lastChange = "2015-07-18 10:04:44 +0000";
layers = (
{
layerId = "63696E93-80B4-4894-80FD-D92E433586BC";
name = "Light ExtraLight";
paths = (
{
closed = 1;
nodes = (
"88 0 LINE SMOOTH",
"104 0 OFFCURVE",
"108 6 OFFCURVE",
"113 17 CURVE SMOOTH",
"189 197 LINE",
"531 197 LINE",
"607 17 LINE SMOOTH",
"612 6 OFFCURVE",
"616 0 OFFCURVE",
"632 0 CURVE SMOOTH",
"651 0 LINE SMOOTH",
"661 0 OFFCURVE",
"667 8 OFFCURVE",
"663 18 CURVE SMOOTH",
"389 663 LINE SMOOTH",
"384 676 OFFCURVE",
"381 680 OFFCURVE",
"369 680 CURVE SMOOTH",
"351 680 LINE SMOOTH",
"339 680 OFFCURVE",
"336 676 OFFCURVE",
"331 663 CURVE SMOOTH",
"57 18 LINE SMOOTH",
"53 8 OFFCURVE",
"59 0 OFFCURVE",
"69 0 CURVE SMOOTH"
);
},
{
closed = 1;
nodes = (
"360 601 LINE",
"510 246 LINE",
"209 246 LINE"
);
},
{
closed = 1;
nodes = (
"421 640 OFFCURVE",
"470 688 OFFCURVE",
"470 749 CURVE SMOOTH",
"470 810 OFFCURVE",
"421 859 OFFCURVE",
"360 859 CURVE SMOOTH",
"299 859 OFFCURVE",
"251 810 OFFCURVE",
"251 749 CURVE SMOOTH",
"251 688 OFFCURVE",
"299 640 OFFCURVE",
"360 640 CURVE SMOOTH"
);
},
{
closed = 1;
nodes = (
"322 680 OFFCURVE",
"291 711 OFFCURVE",
"291 749 CURVE SMOOTH",
"291 787 OFFCURVE",
"322 818 OFFCURVE",
"360 818 CURVE SMOOTH",
"398 818 OFFCURVE",
"429 787 OFFCURVE",
"429 749 CURVE SMOOTH",
"429 711 OFFCURVE",
"398 680 OFFCURVE",
"360 680 CURVE SMOOTH"
);
}
);
width = 720;
}
);
note = Aring;
unicode = 00C5;
},
{
glyphname = Aringacute;
lastChange = "2015-07-18 10:04:44 +0000";
layers = (
{
layerId = "63696E93-80B4-4894-80FD-D92E433586BC";
name = "Light ExtraLight";
paths = (
{
closed = 1;
nodes = (
"88 0 LINE SMOOTH",
"104 0 OFFCURVE",
"108 6 OFFCURVE",
"113 17 CURVE SMOOTH",
"189 197 LINE",
"531 197 LINE",
"607 17 LINE SMOOTH",
"612 6 OFFCURVE",
"616 0 OFFCURVE",
"632 0 CURVE SMOOTH",
"651 0 LINE SMOOTH",
"661 0 OFFCURVE",
"667 8 OFFCURVE",
"663 18 CURVE SMOOTH",
"389 663 LINE SMOOTH",
"384 676 OFFCURVE",
"381 680 OFFCURVE",
"369 680 CURVE SMOOTH",
"351 680 LINE SMOOTH",
"339 680 OFFCURVE",
"336 676 OFFCURVE",
"331 663 CURVE SMOOTH",
"57 18 LINE SMOOTH",
"53 8 OFFCURVE",
"59 0 OFFCURVE",
"69 0 CURVE SMOOTH"
);
},
{
closed = 1;
nodes = (
"360 601 LINE",
"510 246 LINE",
"209 246 LINE"
);
},
{
closed = 1;
nodes = (
"421 640 OFFCURVE",
"470 688 OFFCURVE",
"470 749 CURVE SMOOTH",
"470 810 OFFCURVE",
"421 859 OFFCURVE",
"360 859 CURVE SMOOTH",
"299 859 OFFCURVE",
"251 810 OFFCURVE",
"251 749 CURVE SMOOTH",
"251 688 OFFCURVE",
"299 640 OFFCURVE",
"360 640 CURVE SMOOTH"
);
},
{
closed = 1;
nodes = (
"322 680 OFFCURVE",
"291 711 OFFCURVE",
"291 749 CURVE SMOOTH",
"291 787 OFFCURVE",
"322 818 OFFCURVE",
"360 818 CURVE SMOOTH",
"398 818 OFFCURVE",
"429 787 OFFCURVE",
"429 749 CURVE SMOOTH",
"429 711 OFFCURVE",
"398 680 OFFCURVE",
"360 680 CURVE SMOOTH"
);
},
{
closed = 1;
nodes = (
"351 891 LINE SMOOTH",
"362 891 OFFCURVE",
"367 894 OFFCURVE",
"371 902 CURVE SMOOTH",
"438 1046 LINE SMOOTH",
"443 1056 OFFCURVE",
"440 1062 OFFCURVE",
"428 1062 CURVE SMOOTH",
"401 1062 LINE SMOOTH",
"387 1062 OFFCURVE",
"383 1059 OFFCURVE",
"379 1048 CURVE SMOOTH",
"328 907 LINE SMOOTH",
"324 897 OFFCURVE",
"326 891 OFFCURVE",
"336 891 CURVE SMOOTH"
);
}
);
width = 720;
}
);
note = Aringacute;
unicode = 01FA;
},
{
glyphname = Atilde;
lastChange = "2015-07-18 10:04:46 +0000";
layers = (
{
layerId = "63696E93-80B4-4894-80FD-D92E433586BC";
name = "Light ExtraLight";
paths = (
{
closed = 1;
nodes = (
"88 0 LINE SMOOTH",
"104 0 OFFCURVE",
"108 6 OFFCURVE",
"113 17 CURVE SMOOTH",
"189 197 LINE",
"531 197 LINE",
"607 17 LINE SMOOTH",
"612 6 OFFCURVE",
"616 0 OFFCURVE",
"632 0 CURVE SMOOTH",
"651 0 LINE SMOOTH",
"661 0 OFFCURVE",
"667 8 OFFCURVE",
"663 18 CURVE SMOOTH",
"389 663 LINE SMOOTH",
"384 676 OFFCURVE",
"381 680 OFFCURVE",
"369 680 CURVE SMOOTH",
"351 680 LINE SMOOTH",
"339 680 OFFCURVE",
"336 676 OFFCURVE",
"331 663 CURVE SMOOTH",
"57 18 LINE SMOOTH",
"53 8 OFFCURVE",
"59 0 OFFCURVE",
"69 0 CURVE SMOOTH"
);
},
{
closed = 1;
nodes = (
"360 601 LINE",
"510 246 LINE",
"209 246 LINE"
);
},
{
closed = 1;
nodes = (
"479 738 OFFCURVE",
"515 755 OFFCURVE",
"540 786 CURVE SMOOTH",
"554 803 OFFCURVE",
"552 813 OFFCURVE",
"543 821 CURVE SMOOTH",
"528 835 OFFCURVE",
"515 831 OFFCURVE",
"502 815 CURVE SMOOTH",
"485 795 OFFCURVE",
"466 784 OFFCURVE",
"434 784 CURVE SMOOTH",
"374 784 OFFCURVE",
"366 841 OFFCURVE",
"285 841 CURVE SMOOTH",
"242 841 OFFCURVE",
"206 824 OFFCURVE",
"181 793 CURVE SMOOTH",
"167 776 OFFCURVE",
"169 766 OFFCURVE",
"178 758 CURVE SMOOTH",
"193 744 OFFCURVE",
"206 748 OFFCURVE",
"219 764 CURVE SMOOTH",
"236 784 OFFCURVE",
"255 795 OFFCURVE",
"287 795 CURVE SMOOTH",
"345 795 OFFCURVE",
"359 738 OFFCURVE",
"436 738 CURVE SMOOTH"
);
}
);
width = 720;
}
);
note = Atilde;
unicode = 00C3;
},
{
glyphname = AE;
lastChange = "2015-07-18 10:04:46 +0000";
layers = (
{
layerId = "63696E93-80B4-4894-80FD-D92E433586BC";
name = "Light ExtraLight";
paths = (
{
closed = 1;
nodes = (
"88 0 LINE SMOOTH",
"104 0 OFFCURVE",
"108 6 OFFCURVE",
"113 17 CURVE SMOOTH",
"189 197 LINE",
"435 197 LINE",
"435 23 LINE SMOOTH",
"435 8 OFFCURVE",
"442 0 OFFCURVE",
"458 0 CURVE SMOOTH",
"829 0 LINE SMOOTH",
"844 0 OFFCURVE",
"852 4 OFFCURVE",
"852 20 CURVE SMOOTH",
"852 27 LINE SMOOTH",
"852 43 OFFCURVE",
"844 49 OFFCURVE",
"829 49 CURVE SMOOTH",
"489 49 LINE",
"489 316 LINE",
"742 316 LINE SMOOTH",
"757 316 OFFCURVE",
"765 322 OFFCURVE",
"765 338 CURVE SMOOTH",
"765 345 LINE SMOOTH",
"765 361 OFFCURVE",
"757 365 OFFCURVE",
"742 365 CURVE SMOOTH",
"489 365 LINE",
"489 631 LINE",
"829 631 LINE SMOOTH",
"844 631 OFFCURVE",
"852 637 OFFCURVE",
"852 653 CURVE SMOOTH",
"852 660 LINE SMOOTH",
"852 676 OFFCURVE",
"844 680 OFFCURVE",
"829 680 CURVE SMOOTH",
"351 680 LINE SMOOTH",
"339 680 OFFCURVE",
"336 676 OFFCURVE",
"331 663 CURVE SMOOTH",
"57 18 LINE SMOOTH",
"53 8 OFFCURVE",
"59 0 OFFCURVE",
"69 0 CURVE SMOOTH"
);
},
{
closed = 1;
nodes = (
"369 631 LINE",
"435 631 LINE",
"435 246 LINE",
"209 246 LINE"
);
}
);
width = 907;
}
);
note = AE;
unicode = 00C6;
},
{
glyphname = AEacute;
lastChange = "2015-07-18 10:04:43 +0000";
layers = (
{
layerId = "63696E93-80B4-4894-80FD-D92E433586BC";
name = "Light ExtraLight";
paths = (
{
closed = 1;
nodes = (
"88 0 LINE SMOOTH",
"104 0 OFFCURVE",
"108 6 OFFCURVE",
"113 17 CURVE SMOOTH",
"189 197 LINE",
"435 197 LINE",
"435 23 LINE SMOOTH",
"435 8 OFFCURVE",
"442 0 OFFCURVE",
"458 0 CURVE SMOOTH",
"829 0 LINE SMOOTH",
"844 0 OFFCURVE",
"852 4 OFFCURVE",
"852 20 CURVE SMOOTH",
"852 27 LINE SMOOTH",
"852 43 OFFCURVE",
"844 49 OFFCURVE",
"829 49 CURVE SMOOTH",
"489 49 LINE",
"489 316 LINE",
"742 316 LINE SMOOTH",
"757 316 OFFCURVE",
"765 322 OFFCURVE",
"765 338 CURVE SMOOTH",
"765 345 LINE SMOOTH",
"765 361 OFFCURVE",
"757 365 OFFCURVE",
"742 365 CURVE SMOOTH",
"489 365 LINE",
"489 631 LINE",
"829 631 LINE SMOOTH",
"844 631 OFFCURVE",
"852 637 OFFCURVE",
"852 653 CURVE SMOOTH",
"852 660 LINE SMOOTH",
"852 676 OFFCURVE",
"844 680 OFFCURVE",
"829 680 CURVE SMOOTH",
"351 680 LINE SMOOTH",
"339 680 OFFCURVE",
"336 676 OFFCURVE",
"331 663 CURVE SMOOTH",
"57 18 LINE SMOOTH",
"53 8 OFFCURVE",
"59 0 OFFCURVE",
"69 0 CURVE SMOOTH"
);
},
{
closed = 1;
nodes = (
"369 631 LINE",
"435 631 LINE",
"435 246 LINE",
"209 246 LINE"
);
},
{
closed = 1;
nodes = (
"478 741 LINE SMOOTH",
"489 741 OFFCURVE",
"494 744 OFFCURVE",
"498 752 CURVE SMOOTH",
"565 896 LINE SMOOTH",
"570 906 OFFCURVE",
"567 912 OFFCURVE",
"555 912 CURVE SMOOTH",
"528 912 LINE SMOOTH",
"514 912 OFFCURVE",
"510 909 OFFCURVE",
"506 898 CURVE SMOOTH",
"455 757 LINE SMOOTH",
"451 747 OFFCURVE",
"453 741 OFFCURVE",
"463 741 CURVE SMOOTH"
);
}
);
width = 910;
}
);
note = AEacute;
unicode = 01FC;
},
{
glyphname = B;
lastChange = "2015-07-18 10:04:43 +0000";
layers = (
{
layerId = "63696E93-80B4-4894-80FD-D92E433586BC";
name = "Light ExtraLight";
paths = (
{
closed = 1;
nodes = (
"391 0 LINE SMOOTH",
"529 0 OFFCURVE",
"592 87 OFFCURVE",
"592 188 CURVE SMOOTH",
"592 265 OFFCURVE",
"557 327 OFFCURVE",
"467 354 CURVE",
"534 382 OFFCURVE",
"570 440 OFFCURVE",
"570 505 CURVE SMOOTH",
"570 607 OFFCURVE",
"510 680 OFFCURVE",
"384 680 CURVE SMOOTH",
"98 680 LINE SMOOTH",
"82 680 OFFCURVE",
"75 672 OFFCURVE",
"75 657 CURVE SMOOTH",
"75 23 LINE SMOOTH",
"75 8 OFFCURVE",
"82 0 OFFCURVE",
"98 0 CURVE SMOOTH"
);
},
{
closed = 1;
nodes = (
"129 329 LINE",
"372 329 LINE SMOOTH",
"475 329 OFFCURVE",
"540 285 OFFCURVE",
"540 188 CURVE SMOOTH",
"540 114 OFFCURVE",
"502 49 OFFCURVE",
"392 49 CURVE SMOOTH",
"129 49 LINE"
);
},
{
closed = 1;
nodes = (
"129 631 LINE",
"378 631 LINE SMOOTH",
"470 631 OFFCURVE",
"518 588 OFFCURVE",
"518 505 CURVE SMOOTH",
"518 437 OFFCURVE",
"471 378 OFFCURVE",
"379 378 CURVE SMOOTH",
"129 378 LINE"
);
}
);
width = 647;
}
);
note = B;
unicode = 0042;
},
{
glyphname = C;
lastChange = "2015-07-18 10:04:39 +0000";
layers = (
{
layerId = "63696E93-80B4-4894-80FD-D92E433586BC";
name = "Light ExtraLight";
paths = (
{
closed = 1;
nodes = (
"487 -15 OFFCURVE",
"557 0 OFFCURVE",
"612 35 CURVE SMOOTH",
"620 40 OFFCURVE",
"621 44 OFFCURVE",
"617 51 CURVE SMOOTH",
"604 73 LINE SMOOTH",
"600 80 OFFCURVE",
"597 81 OFFCURVE",
"590 76 CURVE",
"541 45 OFFCURVE",
"480 31 OFFCURVE",
"394 31 CURVE SMOOTH",
"230 31 OFFCURVE",
"107 122 OFFCURVE",
"107 340 CURVE SMOOTH",
"107 558 OFFCURVE",
"225 649 OFFCURVE",
"394 649 CURVE SMOOTH",
"474 649 OFFCURVE",
"538 631 OFFCURVE",
"576 606 CURVE SMOOTH",
"584 601 OFFCURVE",
"586 602 OFFCURVE",
"590 609 CURVE SMOOTH",
"603 631 LINE SMOOTH",
"608 639 OFFCURVE",
"605 642 OFFCURVE",
"598 647 CURVE",
"547 680 OFFCURVE",
"470 695 OFFCURVE",
"393 695 CURVE SMOOTH",
"176 695 OFFCURVE",
"55 562 OFFCURVE",
"55 340 CURVE SMOOTH",
"55 118 OFFCURVE",
"176 -15 OFFCURVE",
"393 -15 CURVE SMOOTH"
);
}
);
width = 675;
}
);
note = C;
unicode = 0043;
},
{
glyphname = Cacute;
lastChange = "2015-07-18 10:04:44 +0000";
layers = (
{
layerId = "63696E93-80B4-4894-80FD-D92E433586BC";
name = "Light ExtraLight";
paths = (
{
closed = 1;
nodes = (
"487 -15 OFFCURVE",
"557 0 OFFCURVE",
"612 35 CURVE SMOOTH",
"620 40 OFFCURVE",
"621 44 OFFCURVE",
"617 51 CURVE SMOOTH",
"604 73 LINE SMOOTH",
"600 80 OFFCURVE",
"597 81 OFFCURVE",
"590 76 CURVE",
"541 45 OFFCURVE",
"480 31 OFFCURVE",
"394 31 CURVE SMOOTH",
"230 31 OFFCURVE",
"107 122 OFFCURVE",
"107 340 CURVE SMOOTH",
"107 558 OFFCURVE",
"225 649 OFFCURVE",
"394 649 CURVE SMOOTH",
"474 649 OFFCURVE",
"538 631 OFFCURVE",
"576 606 CURVE SMOOTH",
"584 601 OFFCURVE",
"586 602 OFFCURVE",
"590 609 CURVE SMOOTH",
"603 631 LINE SMOOTH",
"608 639 OFFCURVE",
"605 642 OFFCURVE",
"598 647 CURVE",
"547 680 OFFCURVE",
"470 695 OFFCURVE",
"393 695 CURVE SMOOTH",
"176 695 OFFCURVE",
"55 562 OFFCURVE",
"55 340 CURVE SMOOTH",
"55 118 OFFCURVE",
"176 -15 OFFCURVE",
"393 -15 CURVE SMOOTH"
);
},
{
closed = 1;
nodes = (
"378 765 LINE SMOOTH",
"389 765 OFFCURVE",
"394 768 OFFCURVE",
"398 776 CURVE SMOOTH",
"465 920 LINE SMOOTH",
"470 930 OFFCURVE",
"467 936 OFFCURVE",
"455 936 CURVE SMOOTH",
"428 936 LINE SMOOTH",
"414 936 OFFCURVE",
"410 933 OFFCURVE",
"406 922 CURVE SMOOTH",
"355 781 LINE SMOOTH",
"351 771 OFFCURVE",
"353 765 OFFCURVE",
"363 765 CURVE SMOOTH"
);
}
);
width = 675;
}
);
note = Cacute;
unicode = 0106;
},
{
glyphname = Ccaron;
lastChange = "2015-07-18 10:04:44 +0000";
layers = (
{
layerId = "63696E93-80B4-4894-80FD-D92E433586BC";
name = "Light ExtraLight";
paths = (
{
closed = 1;
nodes = (
"487 -15 OFFCURVE",
"557 0 OFFCURVE",
"612 35 CURVE SMOOTH",
"620 40 OFFCURVE",
"621 44 OFFCURVE",
"617 51 CURVE SMOOTH",
"604 73 LINE SMOOTH",
"600 80 OFFCURVE",
"597 81 OFFCURVE",
"590 76 CURVE",
"541 45 OFFCURVE",
"480 31 OFFCURVE",
"394 31 CURVE SMOOTH",
"230 31 OFFCURVE",
"107 122 OFFCURVE",
"107 340 CURVE SMOOTH",
"107 558 OFFCURVE",
"225 649 OFFCURVE",
"394 649 CURVE SMOOTH",
"474 649 OFFCURVE",
"538 631 OFFCURVE",
"576 606 CURVE SMOOTH",
"584 601 OFFCURVE",
"586 602 OFFCURVE",
"590 609 CURVE SMOOTH",
"603 631 LINE SMOOTH",
"608 639 OFFCURVE",
"605 642 OFFCURVE",
"598 647 CURVE",
"547 680 OFFCURVE",
"470 695 OFFCURVE",
"393 695 CURVE SMOOTH",
"176 695 OFFCURVE",
"55 562 OFFCURVE",
"55 340 CURVE SMOOTH",
"55 118 OFFCURVE",
"176 -15 OFFCURVE",
"393 -15 CURVE SMOOTH"
);
},
{
closed = 1;
nodes = (
"409 758 LINE SMOOTH",
"421 758 OFFCURVE",
"424 764 OFFCURVE",
"432 775 CURVE SMOOTH",
"544 931 LINE",
"551 940 OFFCURVE",
"542 949 OFFCURVE",
"532 949 CURVE SMOOTH",
"513 949 LINE SMOOTH",
"497 949 OFFCURVE",
"494 942 OFFCURVE",
"487 932 CURVE SMOOTH",
"403 810 LINE",
"319 932 LINE SMOOTH",
"312 942 OFFCURVE",
"309 949 OFFCURVE",
"293 949 CURVE SMOOTH",
"274 949 LINE SMOOTH",
"264 949 OFFCURVE",
"255 940 OFFCURVE",
"262 931 CURVE",
"374 775 LINE SMOOTH",
"382 764 OFFCURVE",
"385 758 OFFCURVE",
"397 758 CURVE SMOOTH"
);
}
);
width = 675;
}
);
note = Ccaron;
unicode = 010C;
},
{
glyphname = Ccedilla;
lastChange = "2015-07-18 10:04:43 +0000";
layers = (
{
layerId = "63696E93-80B4-4894-80FD-D92E433586BC";
name = "Light ExtraLight";
paths = (
{
closed = 1;
nodes = (
"487 -15 OFFCURVE",
"557 0 OFFCURVE",
"612 35 CURVE SMOOTH",
"620 40 OFFCURVE",
"621 44 OFFCURVE",
"617 51 CURVE SMOOTH",
"604 73 LINE SMOOTH",
"600 80 OFFCURVE",
"597 81 OFFCURVE",
"590 76 CURVE",
"541 45 OFFCURVE",
"480 31 OFFCURVE",
"394 31 CURVE SMOOTH",
"230 31 OFFCURVE",
"107 122 OFFCURVE",
"107 340 CURVE SMOOTH",
"107 558 OFFCURVE",
"225 649 OFFCURVE",
"394 649 CURVE SMOOTH",
"474 649 OFFCURVE",
"538 631 OFFCURVE",
"576 606 CURVE SMOOTH",
"584 601 OFFCURVE",
"586 602 OFFCURVE",
"590 609 CURVE SMOOTH",
"603 631 LINE SMOOTH",
"608 639 OFFCURVE",
"605 642 OFFCURVE",
"598 647 CURVE",
"547 680 OFFCURVE",
"470 695 OFFCURVE",
"393 695 CURVE SMOOTH",
"176 695 OFFCURVE",
"55 562 OFFCURVE",
"55 340 CURVE SMOOTH",
"55 118 OFFCURVE",
"176 -15 OFFCURVE",
"393 -15 CURVE SMOOTH"
);
},
{
closed = 1;
nodes = (
"435 -223 OFFCURVE",
"472 -196 OFFCURVE",
"472 -145 CURVE SMOOTH",
"472 -95 OFFCURVE",
"440 -71 OFFCURVE",
"394 -71 CURVE",
"417 -21 LINE SMOOTH",
"422 -11 OFFCURVE",
"419 -5 OFFCURVE",
"407 -5 CURVE SMOOTH",
"381 -5 LINE SMOOTH",
"367 -5 OFFCURVE",
"363 -8 OFFCURVE",
"359 -19 CURVE SMOOTH",
"332 -87 LINE SMOOTH",
"328 -97 OFFCURVE",
"332 -103 OFFCURVE",
"342 -103 CURVE SMOOTH",
"355 -103 LINE SMOOTH",
"400 -103 OFFCURVE",
"424 -108 OFFCURVE",
"424 -143 CURVE SMOOTH",
"424 -170 OFFCURVE",
"412 -180 OFFCURVE",
"379 -180 CURVE SMOOTH",
"363 -180 OFFCURVE",
"343 -176 OFFCURVE",
"330 -168 CURVE",
"321 -162 OFFCURVE",
"316 -163 OFFCURVE",
"312 -172 CURVE SMOOTH",
"304 -189 LINE",
"300 -199 OFFCURVE",
"303 -200 OFFCURVE",
"314 -207 CURVE SMOOTH",
"330 -217 OFFCURVE",
"355 -223 OFFCURVE",
"379 -223 CURVE SMOOTH"
);
}
);
width = 675;
}
);
note = Ccedilla;
unicode = 00C7;
},
{
glyphname = Ccircumflex;
lastChange = "2015-07-18 10:04:44 +0000";
layers = (
{
layerId = "63696E93-80B4-4894-80FD-D92E433586BC";
name = "Light ExtraLight";
paths = (
{
closed = 1;
nodes = (
"487 -15 OFFCURVE",
"557 0 OFFCURVE",
"612 35 CURVE SMOOTH",
"620 40 OFFCURVE",
"621 44 OFFCURVE",
"617 51 CURVE SMOOTH",
"604 73 LINE SMOOTH",
"600 80 OFFCURVE",
"597 81 OFFCURVE",
"590 76 CURVE",
"541 45 OFFCURVE",
"480 31 OFFCURVE",
"394 31 CURVE SMOOTH",
"230 31 OFFCURVE",
"107 122 OFFCURVE",
"107 340 CURVE SMOOTH",
"107 558 OFFCURVE",
"225 649 OFFCURVE",
"394 649 CURVE SMOOTH",
"474 649 OFFCURVE",
"538 631 OFFCURVE",
"576 606 CURVE SMOOTH",
"584 601 OFFCURVE",
"586 602 OFFCURVE",
"590 609 CURVE SMOOTH",
"603 631 LINE SMOOTH",
"608 639 OFFCURVE",
"605 642 OFFCURVE",
"598 647 CURVE",
"547 680 OFFCURVE",
"470 695 OFFCURVE",
"393 695 CURVE SMOOTH",
"176 695 OFFCURVE",
"55 562 OFFCURVE",
"55 340 CURVE SMOOTH",
"55 118 OFFCURVE",
"176 -15 OFFCURVE",
"393 -15 CURVE SMOOTH"
);
},
{
closed = 1;
nodes = (
"282 746 LINE SMOOTH",
"298 746 OFFCURVE",
"301 753 OFFCURVE",
"308 763 CURVE SMOOTH",
"392 885 LINE",
"476 763 LINE SMOOTH",
"483 753 OFFCURVE",
"486 746 OFFCURVE",
"502 746 CURVE SMOOTH",
"521 746 LINE SMOOTH",
"531 746 OFFCURVE",
"540 755 OFFCURVE",
"533 764 CURVE",
"421 920 LINE SMOOTH",
"413 931 OFFCURVE",
"410 937 OFFCURVE",
"398 937 CURVE SMOOTH",
"386 937 LINE SMOOTH",
"374 937 OFFCURVE",
"371 931 OFFCURVE",
"363 920 CURVE SMOOTH",
"251 764 LINE",
"244 755 OFFCURVE",
"253 746 OFFCURVE",
"263 746 CURVE SMOOTH"
);
}
);
width = 675;
}
);
note = Ccircumflex;
unicode = 0108;
},
{
glyphname = Cdotaccent;
lastChange = "2015-07-18 10:04:45 +0000";
layers = (
{
layerId = "63696E93-80B4-4894-80FD-D92E433586BC";
name = "Light ExtraLight";
paths = (
{
closed = 1;
nodes = (
"487 -15 OFFCURVE",
"557 0 OFFCURVE",
"612 35 CURVE SMOOTH",
"620 40 OFFCURVE",
"621 44 OFFCURVE",
"617 51 CURVE SMOOTH",
"604 73 LINE SMOOTH",
"600 80 OFFCURVE",
"597 81 OFFCURVE",
"590 76 CURVE",
"541 45 OFFCURVE",
"480 31 OFFCURVE",
"394 31 CURVE SMOOTH",
"230 31 OFFCURVE",
"107 122 OFFCURVE",
"107 340 CURVE SMOOTH",
"107 558 OFFCURVE",
"225 649 OFFCURVE",
"394 649 CURVE SMOOTH",
"474 649 OFFCURVE",
"538 631 OFFCURVE",
"576 606 CURVE SMOOTH",
"584 601 OFFCURVE",
"586 602 OFFCURVE",
"590 609 CURVE SMOOTH",
"603 631 LINE SMOOTH",
"608 639 OFFCURVE",
"605 642 OFFCURVE",
"598 647 CURVE",
"547 680 OFFCURVE",
"470 695 OFFCURVE",
"393 695 CURVE SMOOTH",
"176 695 OFFCURVE",
"55 562 OFFCURVE",
"55 340 CURVE SMOOTH",
"55 118 OFFCURVE",
"176 -15 OFFCURVE",
"393 -15 CURVE SMOOTH"
);
},
{
closed = 1;
nodes = (
"406 792 LINE SMOOTH",
"426 792 OFFCURVE",
"439 808 OFFCURVE",
"439 827 CURVE SMOOTH",
"439 840 LINE SMOOTH",
"439 859 OFFCURVE",
"425 875 OFFCURVE",
"406 875 CURVE SMOOTH",
"392 875 LINE SMOOTH",
"373 875 OFFCURVE",
"359 859 OFFCURVE",
"359 840 CURVE SMOOTH",
"359 827 LINE SMOOTH",
"359 808 OFFCURVE",
"373 792 OFFCURVE",
"392 792 CURVE SMOOTH"
);
}
);
width = 675;
}
);
note = Cdotaccent;
unicode = 010A;
},
{
glyphname = D;
lastChange = "2015-07-18 10:04:44 +0000";
layers = (
{
layerId = "63696E93-80B4-4894-80FD-D92E433586BC";
name = "Light ExtraLight";
paths = (
{
closed = 1;
nodes = (
"278 0 LINE SMOOTH",
"485 0 OFFCURVE",
"622 87 OFFCURVE",
"622 340 CURVE SMOOTH",
"622 593 OFFCURVE",
"485 680 OFFCURVE",
"278 680 CURVE SMOOTH",
"98 680 LINE SMOOTH",
"82 680 OFFCURVE",
"75 672 OFFCURVE",
"75 657 CURVE SMOOTH",
"75 23 LINE SMOOTH",
"75 8 OFFCURVE",
"82 0 OFFCURVE",
"98 0 CURVE SMOOTH"
);
},
{
closed = 1;
nodes = (
"129 631 LINE",
"284 631 LINE SMOOTH",
"459 631 OFFCURVE",
"570 561 OFFCURVE",
"570 340 CURVE SMOOTH",
"570 119 OFFCURVE",
"459 49 OFFCURVE",
"284 49 CURVE SMOOTH",
"129 49 LINE"
);
}
);
width = 677;
}
);
note = D;
unicode = 0044;
},
{
glyphname = Eth;
lastChange = "2015-07-18 10:04:43 +0000";
layers = (
{
layerId = "63696E93-80B4-4894-80FD-D92E433586BC";
name = "Light ExtraLight";
paths = (
{
closed = 1;
nodes = (
"328 0 LINE SMOOTH",
"535 0 OFFCURVE",
"672 87 OFFCURVE",
"672 340 CURVE SMOOTH",
"672 593 OFFCURVE",
"535 680 OFFCURVE",
"328 680 CURVE SMOOTH",
"148 680 LINE SMOOTH",
"132 680 OFFCURVE",
"125 672 OFFCURVE",
"125 657 CURVE SMOOTH",
"125 365 LINE",
"58 365 LINE SMOOTH",
"43 365 OFFCURVE",
"35 359 OFFCURVE",
"35 343 CURVE SMOOTH",
"35 336 LINE SMOOTH",
"35 320 OFFCURVE",
"43 316 OFFCURVE",
"58 316 CURVE SMOOTH",
"125 316 LINE",
"125 23 LINE SMOOTH",
"125 8 OFFCURVE",
"132 0 OFFCURVE",
"148 0 CURVE SMOOTH"
);
},
{
closed = 1;
nodes = (
"179 316 LINE",
"376 316 LINE SMOOTH",
"391 316 OFFCURVE",
"399 320 OFFCURVE",
"399 336 CURVE SMOOTH",
"399 343 LINE SMOOTH",
"399 359 OFFCURVE",
"391 365 OFFCURVE",
"376 365 CURVE SMOOTH",
"179 365 LINE",
"179 631 LINE",
"334 631 LINE SMOOTH",
"509 631 OFFCURVE",
"620 561 OFFCURVE",
"620 340 CURVE SMOOTH",
"620 119 OFFCURVE",
"509 49 OFFCURVE",
"334 49 CURVE SMOOTH",
"179 49 LINE"
);
}
);
width = 727;
}
);
note = Eth;
unicode = 00D0;
},
{
glyphname = Dcaron;
lastChange = "2015-07-18 10:04:45 +0000";
layers = (
{
layerId = "63696E93-80B4-4894-80FD-D92E433586BC";
name = "Light ExtraLight";
paths = (
{
closed = 1;
nodes = (
"278 0 LINE SMOOTH",
"485 0 OFFCURVE",
"622 87 OFFCURVE",
"622 340 CURVE SMOOTH",
"622 593 OFFCURVE",
"485 680 OFFCURVE",
"278 680 CURVE SMOOTH",
"98 680 LINE SMOOTH",
"82 680 OFFCURVE",
"75 672 OFFCURVE",
"75 657 CURVE SMOOTH",
"75 23 LINE SMOOTH",
"75 8 OFFCURVE",
"82 0 OFFCURVE",
"98 0 CURVE SMOOTH"
);
},
{
closed = 1;
nodes = (
"129 631 LINE",
"284 631 LINE SMOOTH",
"459 631 OFFCURVE",
"570 561 OFFCURVE",
"570 340 CURVE SMOOTH",
"570 119 OFFCURVE",
"459 49 OFFCURVE",
"284 49 CURVE SMOOTH",
"129 49 LINE"
);
},
{
closed = 1;
nodes = (
"297 758 LINE SMOOTH",
"309 758 OFFCURVE",
"312 764 OFFCURVE",
"320 775 CURVE SMOOTH",
"432 931 LINE",
"439 940 OFFCURVE",
"430 949 OFFCURVE",
"420 949 CURVE SMOOTH",
"401 949 LINE SMOOTH",
"385 949 OFFCURVE",
"382 942 OFFCURVE",
"375 932 CURVE SMOOTH",
"291 810 LINE",
"207 932 LINE SMOOTH",
"200 942 OFFCURVE",
"197 949 OFFCURVE",
"181 949 CURVE SMOOTH",
"162 949 LINE SMOOTH",
"152 949 OFFCURVE",
"143 940 OFFCURVE",
"150 931 CURVE",
"262 775 LINE SMOOTH",
"270 764 OFFCURVE",
"273 758 OFFCURVE",
"285 758 CURVE SMOOTH"
);
}
);
width = 677;
}
);
note = Dcaron;
unicode = 010E;
},
{
glyphname = Dcroat;
lastChange = "2015-07-18 10:04:46 +0000";
layers = (
{
layerId = "63696E93-80B4-4894-80FD-D92E433586BC";
name = "Light ExtraLight";
paths = (
{
closed = 1;
nodes = (
"318 0 LINE SMOOTH",
"525 0 OFFCURVE",
"662 87 OFFCURVE",
"662 340 CURVE SMOOTH",
"662 593 OFFCURVE",
"525 680 OFFCURVE",
"318 680 CURVE SMOOTH",
"138 680 LINE SMOOTH",
"122 680 OFFCURVE",
"115 672 OFFCURVE",
"115 657 CURVE SMOOTH",
"115 365 LINE",
"48 365 LINE SMOOTH",
"33 365 OFFCURVE",
"25 359 OFFCURVE",
"25 343 CURVE SMOOTH",
"25 336 LINE SMOOTH",
"25 320 OFFCURVE",
"33 316 OFFCURVE",
"48 316 CURVE SMOOTH",
"115 316 LINE",
"115 23 LINE SMOOTH",
"115 8 OFFCURVE",
"122 0 OFFCURVE",
"138 0 CURVE SMOOTH"
);
},
{
closed = 1;
nodes = (
"169 316 LINE",
"366 316 LINE SMOOTH",
"381 316 OFFCURVE",
"389 320 OFFCURVE",
"389 336 CURVE SMOOTH",
"389 343 LINE SMOOTH",
"389 359 OFFCURVE",
"381 365 OFFCURVE",
"366 365 CURVE SMOOTH",
"169 365 LINE",
"169 631 LINE",
"324 631 LINE SMOOTH",
"499 631 OFFCURVE",
"610 561 OFFCURVE",
"610 340 CURVE SMOOTH",
"610 119 OFFCURVE",
"499 49 OFFCURVE",
"324 49 CURVE SMOOTH",
"169 49 LINE"
);
}
);
width = 717;
}
);
note = Dcroat;
unicode = 0110;
},
{
glyphname = Ddotbelow;
lastChange = "2015-07-18 10:04:45 +0000";
layers = (
{
layerId = "63696E93-80B4-4894-80FD-D92E433586BC";
name = "Light ExtraLight";
paths = (
{
closed = 1;
nodes = (
"279 0 LINE SMOOTH",
"486 0 OFFCURVE",
"623 87 OFFCURVE",
"623 340 CURVE SMOOTH",
"623 593 OFFCURVE",
"486 680 OFFCURVE",
"279 680 CURVE SMOOTH",
"99 680 LINE SMOOTH",
"83 680 OFFCURVE",
"76 672 OFFCURVE",
"76 657 CURVE SMOOTH",
"76 23 LINE SMOOTH",
"76 8 OFFCURVE",
"83 0 OFFCURVE",
"99 0 CURVE SMOOTH"
);
},
{
closed = 1;
nodes = (
"292 -161 LINE SMOOTH",
"312 -161 OFFCURVE",
"325 -145 OFFCURVE",
"325 -126 CURVE SMOOTH",
"325 -113 LINE SMOOTH",
"325 -94 OFFCURVE",
"311 -78 OFFCURVE",
"292 -78 CURVE SMOOTH",
"278 -78 LINE SMOOTH",
"259 -78 OFFCURVE",
"245 -94 OFFCURVE",
"245 -113 CURVE SMOOTH",
"245 -126 LINE SMOOTH",
"245 -145 OFFCURVE",
"259 -161 OFFCURVE",
"278 -161 CURVE SMOOTH"
);
},
{
closed = 1;
nodes = (
"130 631 LINE",
"285 631 LINE SMOOTH",
"460 631 OFFCURVE",
"571 561 OFFCURVE",
"571 340 CURVE SMOOTH",
"571 119 OFFCURVE",
"460 49 OFFCURVE",
"285 49 CURVE SMOOTH",
"130 49 LINE"
);
}
);
width = 678;
}
);
note = Ddotbelow;
unicode = 1E0C;
},
{
glyphname = Dlinebelow;
lastChange = "2015-07-18 10:04:44 +0000";
layers = (
{
layerId = "63696E93-80B4-4894-80FD-D92E433586BC";
name = "Light ExtraLight";
paths = (
{
closed = 1;
nodes = (
"278 0 LINE SMOOTH",
"485 0 OFFCURVE",
"622 87 OFFCURVE",
"622 340 CURVE SMOOTH",
"622 593 OFFCURVE",
"485 680 OFFCURVE",
"278 680 CURVE SMOOTH",
"98 680 LINE SMOOTH",
"82 680 OFFCURVE",
"75 672 OFFCURVE",
"75 657 CURVE SMOOTH",
"75 23 LINE SMOOTH",
"75 8 OFFCURVE",
"82 0 OFFCURVE",
"98 0 CURVE SMOOTH"
);
},
{
closed = 1;
nodes = (
"419 -134 LINE SMOOTH",
"434 -134 OFFCURVE",
"442 -130 OFFCURVE",
"442 -114 CURVE SMOOTH",
"442 -107 LINE SMOOTH",
"442 -91 OFFCURVE",
"434 -85 OFFCURVE",
"419 -85 CURVE SMOOTH",
"141 -85 LINE SMOOTH",
"126 -85 OFFCURVE",
"118 -91 OFFCURVE",
"118 -107 CURVE SMOOTH",
"118 -114 LINE SMOOTH",
"118 -130 OFFCURVE",
"126 -134 OFFCURVE",
"141 -134 CURVE SMOOTH"
);
},
{
closed = 1;
nodes = (
"129 631 LINE",
"284 631 LINE SMOOTH",
"459 631 OFFCURVE",
"570 561 OFFCURVE",
"570 340 CURVE SMOOTH",
"570 119 OFFCURVE",
"459 49 OFFCURVE",
"284 49 CURVE SMOOTH",
"129 49 LINE"
);
}
);
width = 677;
}
);
note = Dlinebelow;
unicode = 1E0E;
},
{
glyphname = E;
lastChange = "2015-07-18 10:04:39 +0000";
layers = (
{
layerId = "63696E93-80B4-4894-80FD-D92E433586BC";
name = "Light ExtraLight";
paths = (
{
closed = 1;
nodes = (
"514 0 LINE SMOOTH",
"529 0 OFFCURVE",
"537 4 OFFCURVE",
"537 20 CURVE SMOOTH",
"537 27 LINE SMOOTH",
"537 43 OFFCURVE",
"529 49 OFFCURVE",
"514 49 CURVE SMOOTH",
"129 49 LINE",
"129 316 LINE",
"427 316 LINE SMOOTH",
"442 316 OFFCURVE",
"450 322 OFFCURVE",
"450 338 CURVE SMOOTH",
"450 345 LINE SMOOTH",
"450 361 OFFCURVE",
"442 365 OFFCURVE",
"427 365 CURVE SMOOTH",
"129 365 LINE",
"129 631 LINE",
"514 631 LINE SMOOTH",
"529 631 OFFCURVE",
"537 637 OFFCURVE",
"537 653 CURVE SMOOTH",
"537 660 LINE SMOOTH",
"537 676 OFFCURVE",
"529 680 OFFCURVE",
"514 680 CURVE SMOOTH",
"98 680 LINE SMOOTH",
"82 680 OFFCURVE",
"75 672 OFFCURVE",
"75 657 CURVE SMOOTH",
"75 23 LINE SMOOTH",
"75 8 OFFCURVE",
"82 0 OFFCURVE",
"98 0 CURVE SMOOTH"
);
}
);
width = 582;
}
);
note = E;
unicode = 0045;
},
{
glyphname = Eacute;
lastChange = "2015-07-18 10:04:45 +0000";
layers = (
{
layerId = "63696E93-80B4-4894-80FD-D92E433586BC";
name = "Light ExtraLight";
paths = (
{
closed = 1;
nodes = (
"514 0 LINE SMOOTH",
"529 0 OFFCURVE",
"537 4 OFFCURVE",
"537 20 CURVE SMOOTH",
"537 27 LINE SMOOTH",
"537 43 OFFCURVE",
"529 49 OFFCURVE",
"514 49 CURVE SMOOTH",
"129 49 LINE",
"129 316 LINE",
"427 316 LINE SMOOTH",
"442 316 OFFCURVE",
"450 322 OFFCURVE",
"450 338 CURVE SMOOTH",
"450 345 LINE SMOOTH",
"450 361 OFFCURVE",
"442 365 OFFCURVE",
"427 365 CURVE SMOOTH",
"129 365 LINE",
"129 631 LINE",
"514 631 LINE SMOOTH",
"529 631 OFFCURVE",
"537 637 OFFCURVE",
"537 653 CURVE SMOOTH",
"537 660 LINE SMOOTH",
"537 676 OFFCURVE",
"529 680 OFFCURVE",
"514 680 CURVE SMOOTH",
"98 680 LINE SMOOTH",
"82 680 OFFCURVE",
"75 672 OFFCURVE",
"75 657 CURVE SMOOTH",
"75 23 LINE SMOOTH",
"75 8 OFFCURVE",
"82 0 OFFCURVE",
"98 0 CURVE SMOOTH"
);
},
{
closed = 1;
nodes = (
"301 765 LINE SMOOTH",
"312 765 OFFCURVE",
"317 768 OFFCURVE",
"321 776 CURVE SMOOTH",
"388 920 LINE SMOOTH",
"393 930 OFFCURVE",
"390 936 OFFCURVE",
"378 936 CURVE SMOOTH",
"351 936 LINE SMOOTH",
"337 936 OFFCURVE",
"333 933 OFFCURVE",
"329 922 CURVE SMOOTH",
"278 781 LINE SMOOTH",
"274 771 OFFCURVE",
"276 765 OFFCURVE",
"286 765 CURVE SMOOTH"
);
}
);
width = 582;
}
);
note = Eacute;
unicode = 00C9;
},
{
glyphname = Ebreve;
lastChange = "2015-07-18 10:04:45 +0000";
layers = (
{
layerId = "63696E93-80B4-4894-80FD-D92E433586BC";
name = "Light ExtraLight";
paths = (
{
closed = 1;
nodes = (
"514 0 LINE SMOOTH",
"529 0 OFFCURVE",
"537 4 OFFCURVE",
"537 20 CURVE SMOOTH",
"537 27 LINE SMOOTH",
"537 43 OFFCURVE",
"529 49 OFFCURVE",
"514 49 CURVE SMOOTH",
"129 49 LINE",
"129 316 LINE",
"427 316 LINE SMOOTH",
"442 316 OFFCURVE",
"450 322 OFFCURVE",
"450 338 CURVE SMOOTH",
"450 345 LINE SMOOTH",
"450 361 OFFCURVE",
"442 365 OFFCURVE",
"427 365 CURVE SMOOTH",
"129 365 LINE",
"129 631 LINE",
"514 631 LINE SMOOTH",
"529 631 OFFCURVE",
"537 637 OFFCURVE",
"537 653 CURVE SMOOTH",
"537 660 LINE SMOOTH",
"537 676 OFFCURVE",
"529 680 OFFCURVE",
"514 680 CURVE SMOOTH",
"98 680 LINE SMOOTH",
"82 680 OFFCURVE",
"75 672 OFFCURVE",
"75 657 CURVE SMOOTH",
"75 23 LINE SMOOTH",
"75 8 OFFCURVE",
"82 0 OFFCURVE",
"98 0 CURVE SMOOTH"
);
},
{
closed = 1;
nodes = (
"403 758 OFFCURVE",
"447 821 OFFCURVE",
"447 911 CURVE SMOOTH",
"447 922 OFFCURVE",
"441 929 OFFCURVE",
"431 929 CURVE SMOOTH",
"407 929 LINE SMOOTH",
"393 929 OFFCURVE",
"390 922 OFFCURVE",
"390 910 CURVE SMOOTH",
"390 853 OFFCURVE",
"376 809 OFFCURVE",
"306 809 CURVE SMOOTH",
"236 809 OFFCURVE",
"222 853 OFFCURVE",
"222 910 CURVE SMOOTH",
"222 922 OFFCURVE",
"219 929 OFFCURVE",
"205 929 CURVE SMOOTH",
"181 929 LINE SMOOTH",
"171 929 OFFCURVE",
"165 922 OFFCURVE",
"165 911 CURVE SMOOTH",
"165 821 OFFCURVE",
"209 758 OFFCURVE",
"306 758 CURVE SMOOTH"
);
}
);
width = 582;
}
);
note = Ebreve;
unicode = 0114;
},
{
glyphname = Ecaron;
lastChange = "2015-07-18 10:04:44 +0000";
layers = (
{
layerId = "63696E93-80B4-4894-80FD-D92E433586BC";
name = "Light ExtraLight";
paths = (
{
closed = 1;
nodes = (
"514 0 LINE SMOOTH",
"529 0 OFFCURVE",
"537 4 OFFCURVE",
"537 20 CURVE SMOOTH",
"537 27 LINE SMOOTH",
"537 43 OFFCURVE",
"529 49 OFFCURVE",
"514 49 CURVE SMOOTH",
"129 49 LINE",
"129 316 LINE",
"427 316 LINE SMOOTH",
"442 316 OFFCURVE",
"450 322 OFFCURVE",
"450 338 CURVE SMOOTH",
"450 345 LINE SMOOTH",
"450 361 OFFCURVE",
"442 365 OFFCURVE",
"427 365 CURVE SMOOTH",
"129 365 LINE",
"129 631 LINE",
"514 631 LINE SMOOTH",
"529 631 OFFCURVE",
"537 637 OFFCURVE",
"537 653 CURVE SMOOTH",
"537 660 LINE SMOOTH",
"537 676 OFFCURVE",
"529 680 OFFCURVE",
"514 680 CURVE SMOOTH",
"98 680 LINE SMOOTH",
"82 680 OFFCURVE",
"75 672 OFFCURVE",
"75 657 CURVE SMOOTH",
"75 23 LINE SMOOTH",
"75 8 OFFCURVE",
"82 0 OFFCURVE",
"98 0 CURVE SMOOTH"
);
},
{
closed = 1;
nodes = (
"318 758 LINE SMOOTH",
"330 758 OFFCURVE",
"333 764 OFFCURVE",
"341 775 CURVE SMOOTH",
"453 931 LINE",
"460 940 OFFCURVE",
"451 949 OFFCURVE",
"441 949 CURVE SMOOTH",
"422 949 LINE SMOOTH",
"406 949 OFFCURVE",
"403 942 OFFCURVE",
"396 932 CURVE SMOOTH",
"312 810 LINE",
"228 932 LINE SMOOTH",
"221 942 OFFCURVE",
"218 949 OFFCURVE",
"202 949 CURVE SMOOTH",
"183 949 LINE SMOOTH",
"173 949 OFFCURVE",
"164 940 OFFCURVE",
"171 931 CURVE",
"283 775 LINE SMOOTH",
"291 764 OFFCURVE",
"294 758 OFFCURVE",
"306 758 CURVE SMOOTH"
);
}
);
width = 582;
}
);
note = Ecaron;
unicode = 011A;
},
{
glyphname = Ecircumflex;
lastChange = "2015-07-18 10:04:45 +0000";
layers = (
{
layerId = "63696E93-80B4-4894-80FD-D92E433586BC";
name = "Light ExtraLight";
paths = (
{
closed = 1;
nodes = (
"514 0 LINE SMOOTH",
"529 0 OFFCURVE",
"537 4 OFFCURVE",
"537 20 CURVE SMOOTH",
"537 27 LINE SMOOTH",
"537 43 OFFCURVE",
"529 49 OFFCURVE",
"514 49 CURVE SMOOTH",
"129 49 LINE",
"129 316 LINE",
"427 316 LINE SMOOTH",
"442 316 OFFCURVE",
"450 322 OFFCURVE",
"450 338 CURVE SMOOTH",
"450 345 LINE SMOOTH",
"450 361 OFFCURVE",
"442 365 OFFCURVE",
"427 365 CURVE SMOOTH",
"129 365 LINE",
"129 631 LINE",
"514 631 LINE SMOOTH",
"529 631 OFFCURVE",
"537 637 OFFCURVE",
"537 653 CURVE SMOOTH",
"537 660 LINE SMOOTH",
"537 676 OFFCURVE",
"529 680 OFFCURVE",
"514 680 CURVE SMOOTH",
"98 680 LINE SMOOTH",
"82 680 OFFCURVE",
"75 672 OFFCURVE",
"75 657 CURVE SMOOTH",
"75 23 LINE SMOOTH",
"75 8 OFFCURVE",
"82 0 OFFCURVE",
"98 0 CURVE SMOOTH"
);
},
{
closed = 1;
nodes = (
"191 758 LINE SMOOTH",
"207 758 OFFCURVE",
"210 765 OFFCURVE",
"217 775 CURVE SMOOTH",
"301 897 LINE",
"385 775 LINE SMOOTH",
"392 765 OFFCURVE",
"395 758 OFFCURVE",
"411 758 CURVE SMOOTH",
"430 758 LINE SMOOTH",
"440 758 OFFCURVE",
"449 767 OFFCURVE",
"442 776 CURVE",
"330 932 LINE SMOOTH",
"322 943 OFFCURVE",
"319 949 OFFCURVE",
"307 949 CURVE SMOOTH",
"295 949 LINE SMOOTH",
"283 949 OFFCURVE",
"280 943 OFFCURVE",
"272 932 CURVE SMOOTH",
"160 776 LINE",
"153 767 OFFCURVE",
"162 758 OFFCURVE",
"172 758 CURVE SMOOTH"
);
}
);
width = 582;
}
);
note = Ecircumflex;
unicode = 00CA;
},
{
glyphname = Ecircumflexacute;
lastChange = "2015-07-18 10:04:44 +0000";
layers = (
{
layerId = "63696E93-80B4-4894-80FD-D92E433586BC";
name = "Light ExtraLight";
paths = (
{
closed = 1;
nodes = (
"514 0 LINE SMOOTH",
"529 0 OFFCURVE",
"537 4 OFFCURVE",
"537 20 CURVE SMOOTH",
"537 27 LINE SMOOTH",
"537 43 OFFCURVE",
"529 49 OFFCURVE",
"514 49 CURVE SMOOTH",
"129 49 LINE",
"129 316 LINE",
"427 316 LINE SMOOTH",
"442 316 OFFCURVE",
"450 322 OFFCURVE",
"450 338 CURVE SMOOTH",
"450 345 LINE SMOOTH",
"450 361 OFFCURVE",
"442 365 OFFCURVE",
"427 365 CURVE SMOOTH",
"129 365 LINE",
"129 631 LINE",
"514 631 LINE SMOOTH",
"529 631 OFFCURVE",
"537 637 OFFCURVE",
"537 653 CURVE SMOOTH",
"537 660 LINE SMOOTH",
"537 676 OFFCURVE",
"529 680 OFFCURVE",
"514 680 CURVE SMOOTH",
"98 680 LINE SMOOTH",
"82 680 OFFCURVE",
"75 672 OFFCURVE",
"75 657 CURVE SMOOTH",
"75 23 LINE SMOOTH",
"75 8 OFFCURVE",
"82 0 OFFCURVE",
"98 0 CURVE SMOOTH"
);
},
{
closed = 1;
nodes = (
"179 747 LINE SMOOTH",
"191 747 OFFCURVE",
"194 748 OFFCURVE",
"203 758 CURVE SMOOTH",
"287 856 LINE",
"371 758 LINE SMOOTH",
"380 748 OFFCURVE",
"383 747 OFFCURVE",
"395 747 CURVE SMOOTH",
"414 747 LINE SMOOTH",
"424 747 OFFCURVE",
"430 756 OFFCURVE",
"423 765 CURVE",
"316 891 LINE SMOOTH",
"307 901 OFFCURVE",
"302 908 OFFCURVE",
"290 908 CURVE SMOOTH",
"284 908 LINE SMOOTH",
"272 908 OFFCURVE",
"267 901 OFFCURVE",
"258 891 CURVE SMOOTH",
"151 765 LINE",
"144 756 OFFCURVE",
"150 747 OFFCURVE",
"160 747 CURVE SMOOTH"
);
},
{
closed = 1;
nodes = (
"401 852 LINE SMOOTH",
"412 852 OFFCURVE",
"417 855 OFFCURVE",
"421 863 CURVE SMOOTH",
"476 974 LINE SMOOTH",
"481 984 OFFCURVE",
"478 990 OFFCURVE",
"466 990 CURVE SMOOTH",
"439 990 LINE SMOOTH",
"425 990 OFFCURVE",
"421 987 OFFCURVE",
"417 976 CURVE SMOOTH",
"378 868 LINE SMOOTH",
"374 858 OFFCURVE",
"376 852 OFFCURVE",
"386 852 CURVE SMOOTH"
);
}
);
width = 582;
}
);
note = Ecircumflexacute;
unicode = 1EBE;
},
{
glyphname = Ecircumflexdotbelow;
lastChange = "2015-07-18 10:04:44 +0000";
layers = (
{
layerId = "63696E93-80B4-4894-80FD-D92E433586BC";
name = "Light ExtraLight";
paths = (
{
closed = 1;
nodes = (
"514 0 LINE SMOOTH",
"529 0 OFFCURVE",
"537 4 OFFCURVE",
"537 20 CURVE SMOOTH",
"537 27 LINE SMOOTH",
"537 43 OFFCURVE",
"529 49 OFFCURVE",
"514 49 CURVE SMOOTH",
"129 49 LINE",
"129 316 LINE",
"427 316 LINE SMOOTH",
"442 316 OFFCURVE",
"450 322 OFFCURVE",
"450 338 CURVE SMOOTH",
"450 345 LINE SMOOTH",
"450 361 OFFCURVE",
"442 365 OFFCURVE",
"427 365 CURVE SMOOTH",
"129 365 LINE",
"129 631 LINE",
"514 631 LINE SMOOTH",
"529 631 OFFCURVE",
"537 637 OFFCURVE",
"537 653 CURVE SMOOTH",
"537 660 LINE SMOOTH",
"537 676 OFFCURVE",
"529 680 OFFCURVE",
"514 680 CURVE SMOOTH",
"98 680 LINE SMOOTH",
"82 680 OFFCURVE",
"75 672 OFFCURVE",
"75 657 CURVE SMOOTH",
"75 23 LINE SMOOTH",
"75 8 OFFCURVE",
"82 0 OFFCURVE",
"98 0 CURVE SMOOTH"
);
},
{
closed = 1;
nodes = (
"306 -161 LINE SMOOTH",
"326 -161 OFFCURVE",
"339 -145 OFFCURVE",
"339 -126 CURVE SMOOTH",
"339 -113 LINE SMOOTH",
"339 -94 OFFCURVE",
"325 -78 OFFCURVE",
"306 -78 CURVE SMOOTH",
"292 -78 LINE SMOOTH",
"273 -78 OFFCURVE",
"259 -94 OFFCURVE",
"259 -113 CURVE SMOOTH",
"259 -126 LINE SMOOTH",
"259 -145 OFFCURVE",
"273 -161 OFFCURVE",
"292 -161 CURVE SMOOTH"
);
},
{
closed = 1;
nodes = (
"188 746 LINE SMOOTH",
"204 746 OFFCURVE",
"207 753 OFFCURVE",
"214 763 CURVE SMOOTH",
"298 885 LINE",
"382 763 LINE SMOOTH",
"389 753 OFFCURVE",
"392 746 OFFCURVE",
"408 746 CURVE SMOOTH",
"427 746 LINE SMOOTH",
"437 746 OFFCURVE",
"446 755 OFFCURVE",
"439 764 CURVE",
"327 920 LINE SMOOTH",
"319 931 OFFCURVE",
"316 937 OFFCURVE",
"304 937 CURVE SMOOTH",
"292 937 LINE SMOOTH",
"280 937 OFFCURVE",
"277 931 OFFCURVE",
"269 920 CURVE SMOOTH",
"157 764 LINE",
"150 755 OFFCURVE",
"159 746 OFFCURVE",
"169 746 CURVE SMOOTH"
);
}
);
width = 582;
}
);
note = Ecircumflexdotbelow;
unicode = 1EC6;
},
{
glyphname = Ecircumflexgrave;
lastChange = "2015-07-18 10:04:45 +0000";
layers = (
{
layerId = "63696E93-80B4-4894-80FD-D92E433586BC";
name = "Light ExtraLight";
paths = (
{
closed = 1;
nodes = (
"514 0 LINE SMOOTH",
"529 0 OFFCURVE",
"537 4 OFFCURVE",
"537 20 CURVE SMOOTH",
"537 27 LINE SMOOTH",
"537 43 OFFCURVE",
"529 49 OFFCURVE",
"514 49 CURVE SMOOTH",
"129 49 LINE",
"129 316 LINE",
"427 316 LINE SMOOTH",
"442 316 OFFCURVE",
"450 322 OFFCURVE",
"450 338 CURVE SMOOTH",
"450 345 LINE SMOOTH",
"450 361 OFFCURVE",
"442 365 OFFCURVE",
"427 365 CURVE SMOOTH",
"129 365 LINE",
"129 631 LINE",
"514 631 LINE SMOOTH",
"529 631 OFFCURVE",
"537 637 OFFCURVE",
"537 653 CURVE SMOOTH",
"537 660 LINE SMOOTH",
"537 676 OFFCURVE",
"529 680 OFFCURVE",
"514 680 CURVE SMOOTH",
"98 680 LINE SMOOTH",
"82 680 OFFCURVE",
"75 672 OFFCURVE",
"75 657 CURVE SMOOTH",
"75 23 LINE SMOOTH",
"75 8 OFFCURVE",
"82 0 OFFCURVE",
"98 0 CURVE SMOOTH"
);
},
{
closed = 1;
nodes = (
"222 852 LINE SMOOTH",
"232 852 OFFCURVE",
"234 858 OFFCURVE",
"230 868 CURVE SMOOTH",
"191 976 LINE SMOOTH",
"187 987 OFFCURVE",
"183 990 OFFCURVE",
"169 990 CURVE SMOOTH",
"142 990 LINE SMOOTH",
"130 990 OFFCURVE",
"127 984 OFFCURVE",
"132 974 CURVE SMOOTH",
"187 863 LINE SMOOTH",
"191 855 OFFCURVE",
"196 852 OFFCURVE",
"207 852 CURVE SMOOTH"
);
},
{
closed = 1;
nodes = (
"213 747 LINE SMOOTH",
"225 747 OFFCURVE",
"228 748 OFFCURVE",
"237 758 CURVE SMOOTH",
"321 856 LINE",
"405 758 LINE SMOOTH",
"414 748 OFFCURVE",
"417 747 OFFCURVE",
"429 747 CURVE SMOOTH",
"448 747 LINE SMOOTH",
"458 747 OFFCURVE",
"464 756 OFFCURVE",
"457 765 CURVE",
"350 891 LINE SMOOTH",
"341 901 OFFCURVE",
"336 908 OFFCURVE",
"324 908 CURVE SMOOTH",
"318 908 LINE SMOOTH",
"306 908 OFFCURVE",
"301 901 OFFCURVE",
"292 891 CURVE SMOOTH",
"185 765 LINE",
"178 756 OFFCURVE",
"184 747 OFFCURVE",
"194 747 CURVE SMOOTH"
);
}
);
width = 582;
}
);
note = Ecircumflexgrave;
unicode = 1EC0;
},
{
glyphname = Ecircumflexhookabove;
lastChange = "2015-07-18 10:04:46 +0000";
layers = (
{
layerId = "63696E93-80B4-4894-80FD-D92E433586BC";
name = "Light ExtraLight";
paths = (
{
closed = 1;
nodes = (
"514 0 LINE SMOOTH",
"529 0 OFFCURVE",
"537 4 OFFCURVE",
"537 20 CURVE SMOOTH",
"537 27 LINE SMOOTH",
"537 43 OFFCURVE",
"529 49 OFFCURVE",
"514 49 CURVE SMOOTH",
"129 49 LINE",
"129 316 LINE",
"427 316 LINE SMOOTH",
"442 316 OFFCURVE",
"450 322 OFFCURVE",
"450 338 CURVE SMOOTH",
"450 345 LINE SMOOTH",
"450 361 OFFCURVE",
"442 365 OFFCURVE",
"427 365 CURVE SMOOTH",
"129 365 LINE",
"129 631 LINE",
"514 631 LINE SMOOTH",
"529 631 OFFCURVE",
"537 637 OFFCURVE",
"537 653 CURVE SMOOTH",
"537 660 LINE SMOOTH",
"537 676 OFFCURVE",
"529 680 OFFCURVE",
"514 680 CURVE SMOOTH",
"98 680 LINE SMOOTH",
"82 680 OFFCURVE",
"75 672 OFFCURVE",
"75 657 CURVE SMOOTH",
"75 23 LINE SMOOTH",
"75 8 OFFCURVE",
"82 0 OFFCURVE",
"98 0 CURVE SMOOTH"
);
},
{
closed = 1;
nodes = (
"194 747 LINE SMOOTH",
"206 747 OFFCURVE",
"209 748 OFFCURVE",
"218 758 CURVE SMOOTH",
"302 856 LINE",
"386 758 LINE SMOOTH",
"395 748 OFFCURVE",
"398 747 OFFCURVE",
"410 747 CURVE SMOOTH",
"429 747 LINE SMOOTH",
"439 747 OFFCURVE",
"445 756 OFFCURVE",
"438 765 CURVE",
"331 891 LINE SMOOTH",
"322 901 OFFCURVE",
"317 908 OFFCURVE",
"305 908 CURVE SMOOTH",
"299 908 LINE SMOOTH",
"287 908 OFFCURVE",
"282 901 OFFCURVE",
"273 891 CURVE SMOOTH",
"166 765 LINE",
"159 756 OFFCURVE",
"165 747 OFFCURVE",
"175 747 CURVE SMOOTH"
);
},
{
closed = 1;
nodes = (
"425 843 LINE SMOOTH",
"440 843 OFFCURVE",
"447 851 OFFCURVE",
"447 866 CURVE SMOOTH",
"447 878 LINE",
"488 878 OFFCURVE",
"527 902 OFFCURVE",
"527 954 CURVE SMOOTH",
"527 1002 OFFCURVE",
"493 1029 OFFCURVE",
"433 1029 CURVE SMOOTH",
"404 1029 OFFCURVE",
"372 1021 OFFCURVE",
"353 1009 CURVE",
"349 1006 OFFCURVE",
"348 1005 OFFCURVE",
"350 1000 CURVE",
"364 971 LINE",
"365 968 OFFCURVE",
"368 968 OFFCURVE",
"372 970 CURVE",
"388 979 OFFCURVE",
"411 984 OFFCURVE",
"431 984 CURVE SMOOTH",
"461 984 OFFCURVE",
"476 975 OFFCURVE",
"476 954 CURVE SMOOTH",
"476 930 OFFCURVE",
"465 920 OFFCURVE",
"429 920 CURVE SMOOTH",
"407 920 OFFCURVE",
"394 909 OFFCURVE",
"394 889 CURVE SMOOTH",
"394 866 LINE SMOOTH",
"394 851 OFFCURVE",
"401 843 OFFCURVE",
"417 843 CURVE SMOOTH"
);
}
);
width = 582;
}
);
note = Ecircumflexhookabove;
unicode = 1EC2;
},
{
glyphname = Ecircumflextilde;
lastChange = "2015-07-18 10:04:44 +0000";
layers = (
{
layerId = "63696E93-80B4-4894-80FD-D92E433586BC";
name = "Light ExtraLight";
paths = (
{
closed = 1;
nodes = (
"514 0 LINE SMOOTH",
"529 0 OFFCURVE",
"537 4 OFFCURVE",
"537 20 CURVE SMOOTH",
"537 27 LINE SMOOTH",
"537 43 OFFCURVE",
"529 49 OFFCURVE",
"514 49 CURVE SMOOTH",
"129 49 LINE",
"129 316 LINE",
"427 316 LINE SMOOTH",
"442 316 OFFCURVE",
"450 322 OFFCURVE",
"450 338 CURVE SMOOTH",
"450 345 LINE SMOOTH",
"450 361 OFFCURVE",
"442 365 OFFCURVE",
"427 365 CURVE SMOOTH",
"129 365 LINE",
"129 631 LINE",
"514 631 LINE SMOOTH",
"529 631 OFFCURVE",
"537 637 OFFCURVE",
"537 653 CURVE SMOOTH",
"537 660 LINE SMOOTH",
"537 676 OFFCURVE",
"529 680 OFFCURVE",
"514 680 CURVE SMOOTH",
"98 680 LINE SMOOTH",
"82 680 OFFCURVE",
"75 672 OFFCURVE",
"75 657 CURVE SMOOTH",
"75 23 LINE SMOOTH",
"75 8 OFFCURVE",
"82 0 OFFCURVE",
"98 0 CURVE SMOOTH"
);
},
{
closed = 1;
nodes = (
"195 747 LINE SMOOTH",
"207 747 OFFCURVE",
"210 748 OFFCURVE",
"219 758 CURVE SMOOTH",
"303 856 LINE",
"387 758 LINE SMOOTH",
"396 748 OFFCURVE",
"399 747 OFFCURVE",
"411 747 CURVE SMOOTH",
"430 747 LINE SMOOTH",
"440 747 OFFCURVE",
"446 756 OFFCURVE",
"439 765 CURVE",
"332 891 LINE SMOOTH",
"323 901 OFFCURVE",
"318 908 OFFCURVE",
"306 908 CURVE SMOOTH",
"300 908 LINE SMOOTH",
"288 908 OFFCURVE",
"283 901 OFFCURVE",
"274 891 CURVE SMOOTH",
"167 765 LINE",
"160 756 OFFCURVE",
"166 747 OFFCURVE",
"176 747 CURVE SMOOTH"
);
},
{
closed = 1;
nodes = (
"407 925 OFFCURVE",
"438 941 OFFCURVE",
"461 972 CURVE SMOOTH",
"474 989 OFFCURVE",
"473 998 OFFCURVE",
"464 1006 CURVE",
"450 1020 OFFCURVE",
"436 1016 OFFCURVE",
"424 1000 CURVE SMOOTH",
"409 979 OFFCURVE",
"396 970 OFFCURVE",
"367 970 CURVE SMOOTH",
"318 970 OFFCURVE",
"313 1026 OFFCURVE",
"238 1026 CURVE SMOOTH",
"200 1026 OFFCURVE",
"169 1010 OFFCURVE",
"146 979 CURVE SMOOTH",
"133 962 OFFCURVE",
"134 953 OFFCURVE",
"143 945 CURVE",
"157 931 OFFCURVE",
"171 935 OFFCURVE",
"183 951 CURVE SMOOTH",
"198 972 OFFCURVE",
"211 981 OFFCURVE",
"240 981 CURVE SMOOTH",
"287 981 OFFCURVE",
"302 925 OFFCURVE",
"369 925 CURVE SMOOTH"
);
}
);
width = 582;
}
);
note = Ecircumflextilde;
unicode = 1EC4;
},
{
glyphname = Edieresis;
lastChange = "2015-07-18 10:04:44 +0000";
layers = (
{
layerId = "63696E93-80B4-4894-80FD-D92E433586BC";
name = "Light ExtraLight";
paths = (
{
closed = 1;
nodes = (
"514 0 LINE SMOOTH",
"529 0 OFFCURVE",
"537 4 OFFCURVE",
"537 20 CURVE SMOOTH",
"537 27 LINE SMOOTH",
"537 43 OFFCURVE",
"529 49 OFFCURVE",
"514 49 CURVE SMOOTH",
"129 49 LINE",
"129 316 LINE",
"427 316 LINE SMOOTH",
"442 316 OFFCURVE",
"450 322 OFFCURVE",
"450 338 CURVE SMOOTH",
"450 345 LINE SMOOTH",
"450 361 OFFCURVE",
"442 365 OFFCURVE",
"427 365 CURVE SMOOTH",
"129 365 LINE",
"129 631 LINE",
"514 631 LINE SMOOTH",
"529 631 OFFCURVE",
"537 637 OFFCURVE",
"537 653 CURVE SMOOTH",
"537 660 LINE SMOOTH",
"537 676 OFFCURVE",
"529 680 OFFCURVE",
"514 680 CURVE SMOOTH",
"98 680 LINE SMOOTH",
"82 680 OFFCURVE",
"75 672 OFFCURVE",
"75 657 CURVE SMOOTH",
"75 23 LINE SMOOTH",
"75 8 OFFCURVE",
"82 0 OFFCURVE",
"98 0 CURVE SMOOTH"
);
},
{
closed = 1;
nodes = (
"219 762 LINE SMOOTH",
"239 762 OFFCURVE",
"252 778 OFFCURVE",
"252 797 CURVE SMOOTH",
"252 810 LINE SMOOTH",
"252 829 OFFCURVE",
"238 845 OFFCURVE",
"219 845 CURVE SMOOTH",
"205 845 LINE SMOOTH",
"186 845 OFFCURVE",
"172 829 OFFCURVE",
"172 810 CURVE SMOOTH",
"172 797 LINE SMOOTH",
"172 778 OFFCURVE",
"186 762 OFFCURVE",
"205 762 CURVE SMOOTH"
);
},
{
closed = 1;
nodes = (
"399 762 LINE SMOOTH",
"419 762 OFFCURVE",
"432 778 OFFCURVE",
"432 797 CURVE SMOOTH",
"432 810 LINE SMOOTH",
"432 829 OFFCURVE",
"418 845 OFFCURVE",
"399 845 CURVE SMOOTH",
"385 845 LINE SMOOTH",
"366 845 OFFCURVE",
"352 829 OFFCURVE",
"352 810 CURVE SMOOTH",
"352 797 LINE SMOOTH",
"352 778 OFFCURVE",
"366 762 OFFCURVE",
"385 762 CURVE SMOOTH"
);
}
);
width = 582;
}
);
note = Edieresis;
unicode = 00CB;
},
{
glyphname = Edotaccent;
lastChange = "2015-07-18 10:04:44 +0000";
layers = (
{
layerId = "63696E93-80B4-4894-80FD-D92E433586BC";
name = "Light ExtraLight";
paths = (
{
closed = 1;
nodes = (
"514 0 LINE SMOOTH",
"529 0 OFFCURVE",
"537 4 OFFCURVE",
"537 20 CURVE SMOOTH",
"537 27 LINE SMOOTH",
"537 43 OFFCURVE",
"529 49 OFFCURVE",
"514 49 CURVE SMOOTH",
"129 49 LINE",
"129 316 LINE",
"427 316 LINE SMOOTH",
"442 316 OFFCURVE",
"450 322 OFFCURVE",
"450 338 CURVE SMOOTH",
"450 345 LINE SMOOTH",
"450 361 OFFCURVE",
"442 365 OFFCURVE",
"427 365 CURVE SMOOTH",
"129 365 LINE",
"129 631 LINE",
"514 631 LINE SMOOTH",
"529 631 OFFCURVE",
"537 637 OFFCURVE",
"537 653 CURVE SMOOTH",
"537 660 LINE SMOOTH",
"537 676 OFFCURVE",
"529 680 OFFCURVE",
"514 680 CURVE SMOOTH",
"98 680 LINE SMOOTH",
"82 680 OFFCURVE",
"75 672 OFFCURVE",
"75 657 CURVE SMOOTH",
"75 23 LINE SMOOTH",
"75 8 OFFCURVE",
"82 0 OFFCURVE",
"98 0 CURVE SMOOTH"
);
},
{
closed = 1;
nodes = (
"310 792 LINE SMOOTH",
"330 792 OFFCURVE",
"343 808 OFFCURVE",
"343 827 CURVE SMOOTH",
"343 840 LINE SMOOTH",
"343 859 OFFCURVE",
"329 875 OFFCURVE",
"310 875 CURVE SMOOTH",
"296 875 LINE SMOOTH",
"277 875 OFFCURVE",
"263 859 OFFCURVE",
"263 840 CURVE SMOOTH",
"263 827 LINE SMOOTH",
"263 808 OFFCURVE",
"277 792 OFFCURVE",
"296 792 CURVE SMOOTH"
);
}
);
width = 582;
}
);
note = Edotaccent;
unicode = 0116;
},
{
glyphname = Edotbelow;
lastChange = "2015-07-18 10:04:44 +0000";
layers = (
{
layerId = "63696E93-80B4-4894-80FD-D92E433586BC";
name = "Light ExtraLight";
paths = (
{
closed = 1;
nodes = (
"514 0 LINE SMOOTH",
"529 0 OFFCURVE",
"537 4 OFFCURVE",
"537 20 CURVE SMOOTH",
"537 27 LINE SMOOTH",
"537 43 OFFCURVE",
"529 49 OFFCURVE",
"514 49 CURVE SMOOTH",
"129 49 LINE",
"129 316 LINE",
"427 316 LINE SMOOTH",
"442 316 OFFCURVE",
"450 322 OFFCURVE",
"450 338 CURVE SMOOTH",
"450 345 LINE SMOOTH",
"450 361 OFFCURVE",
"442 365 OFFCURVE",
"427 365 CURVE SMOOTH",
"129 365 LINE",
"129 631 LINE",
"514 631 LINE SMOOTH",
"529 631 OFFCURVE",
"537 637 OFFCURVE",
"537 653 CURVE SMOOTH",
"537 660 LINE SMOOTH",
"537 676 OFFCURVE",
"529 680 OFFCURVE",
"514 680 CURVE SMOOTH",
"98 680 LINE SMOOTH",
"82 680 OFFCURVE",
"75 672 OFFCURVE",
"75 657 CURVE SMOOTH",
"75 23 LINE SMOOTH",
"75 8 OFFCURVE",
"82 0 OFFCURVE",
"98 0 CURVE SMOOTH"
);
},
{
closed = 1;
nodes = (
"274 -161 LINE SMOOTH",
"294 -161 OFFCURVE",
"307 -145 OFFCURVE",
"307 -126 CURVE SMOOTH",
"307 -113 LINE SMOOTH",
"307 -94 OFFCURVE",
"293 -78 OFFCURVE",
"274 -78 CURVE SMOOTH",
"260 -78 LINE SMOOTH",
"241 -78 OFFCURVE",
"227 -94 OFFCURVE",
"227 -113 CURVE SMOOTH",
"227 -126 LINE SMOOTH",
"227 -145 OFFCURVE",
"241 -161 OFFCURVE",
"260 -161 CURVE SMOOTH"
);
}
);
width = 582;
}
);
note = Edotbelow;
unicode = 1EB8;
},
{
glyphname = Egrave;
lastChange = "2015-07-18 10:04:45 +0000";
layers = (
{
layerId = "63696E93-80B4-4894-80FD-D92E433586BC";
name = "Light ExtraLight";
paths = (
{
closed = 1;
nodes = (
"514 0 LINE SMOOTH",
"529 0 OFFCURVE",
"537 4 OFFCURVE",
"537 20 CURVE SMOOTH",
"537 27 LINE SMOOTH",
"537 43 OFFCURVE",
"529 49 OFFCURVE",
"514 49 CURVE SMOOTH",
"129 49 LINE",
"129 316 LINE",
"427 316 LINE SMOOTH",
"442 316 OFFCURVE",
"450 322 OFFCURVE",
"450 338 CURVE SMOOTH",
"450 345 LINE SMOOTH",
"450 361 OFFCURVE",
"442 365 OFFCURVE",
"427 365 CURVE SMOOTH",
"129 365 LINE",
"129 631 LINE",
"514 631 LINE SMOOTH",
"529 631 OFFCURVE",
"537 637 OFFCURVE",
"537 653 CURVE SMOOTH",
"537 660 LINE SMOOTH",
"537 676 OFFCURVE",
"529 680 OFFCURVE",
"514 680 CURVE SMOOTH",
"98 680 LINE SMOOTH",
"82 680 OFFCURVE",
"75 672 OFFCURVE",
"75 657 CURVE SMOOTH",
"75 23 LINE SMOOTH",
"75 8 OFFCURVE",
"82 0 OFFCURVE",
"98 0 CURVE SMOOTH"
);
},
{
closed = 1;
nodes = (
"326 765 LINE SMOOTH",
"336 765 OFFCURVE",
"338 771 OFFCURVE",
"334 781 CURVE SMOOTH",
"283 922 LINE SMOOTH",
"279 933 OFFCURVE",
"275 936 OFFCURVE",
"261 936 CURVE SMOOTH",
"234 936 LINE SMOOTH",
"222 936 OFFCURVE",
"219 930 OFFCURVE",
"224 920 CURVE SMOOTH",
"291 776 LINE SMOOTH",
"295 768 OFFCURVE",
"300 765 OFFCURVE",
"311 765 CURVE SMOOTH"
);
}
);
width = 582;
}
);
note = Egrave;
unicode = 00C8;
},
{
glyphname = Ehookabove;
lastChange = "2015-07-18 10:04:44 +0000";
layers = (
{
layerId = "63696E93-80B4-4894-80FD-D92E433586BC";
name = "Light ExtraLight";
paths = (
{
closed = 1;
nodes = (
"514 0 LINE SMOOTH",
"529 0 OFFCURVE",
"537 4 OFFCURVE",
"537 20 CURVE SMOOTH",
"537 27 LINE SMOOTH",
"537 43 OFFCURVE",
"529 49 OFFCURVE",
"514 49 CURVE SMOOTH",
"129 49 LINE",
"129 316 LINE",
"427 316 LINE SMOOTH",
"442 316 OFFCURVE",
"450 322 OFFCURVE",
"450 338 CURVE SMOOTH",
"450 345 LINE SMOOTH",
"450 361 OFFCURVE",
"442 365 OFFCURVE",
"427 365 CURVE SMOOTH",
"129 365 LINE",
"129 631 LINE",
"514 631 LINE SMOOTH",
"529 631 OFFCURVE",
"537 637 OFFCURVE",
"537 653 CURVE SMOOTH",
"537 660 LINE SMOOTH",
"537 676 OFFCURVE",
"529 680 OFFCURVE",
"514 680 CURVE SMOOTH",
"98 680 LINE SMOOTH",
"82 680 OFFCURVE",
"75 672 OFFCURVE",
"75 657 CURVE SMOOTH",
"75 23 LINE SMOOTH",
"75 8 OFFCURVE",
"82 0 OFFCURVE",
"98 0 CURVE SMOOTH"
);
},
{
closed = 1;
nodes = (
"295 737 LINE SMOOTH",
"311 737 OFFCURVE",
"318 745 OFFCURVE",
"318 760 CURVE SMOOTH",
"318 787 LINE",
"370 787 OFFCURVE",
"422 819 OFFCURVE",
"422 878 CURVE SMOOTH",
"422 931 OFFCURVE",
"384 968 OFFCURVE",
"301 968 CURVE SMOOTH",
"263 968 OFFCURVE",
"224 958 OFFCURVE",
"199 942 CURVE",
"195 939 OFFCURVE",
"194 938 OFFCURVE",
"196 933 CURVE",
"210 903 LINE",
"211 900 OFFCURVE",
"214 900 OFFCURVE",
"218 902 CURVE SMOOTH",
"245 916 OFFCURVE",
"269 922 OFFCURVE",
"301 922 CURVE SMOOTH",
"347 922 OFFCURVE",
"370 909 OFFCURVE",
"370 878 CURVE SMOOTH",
"370 845 OFFCURVE",
"354 829 OFFCURVE",
"299 829 CURVE SMOOTH",
"277 829 OFFCURVE",
"264 818 OFFCURVE",
"264 798 CURVE SMOOTH",
"264 760 LINE SMOOTH",
"264 745 OFFCURVE",
"271 737 OFFCURVE",
"287 737 CURVE SMOOTH"
);
}
);
width = 582;
}
);
note = Ehookabove;
unicode = 1EBA;
},
{
glyphname = Emacron;
lastChange = "2015-07-18 10:04:45 +0000";
layers = (
{
layerId = "63696E93-80B4-4894-80FD-D92E433586BC";
name = "Light ExtraLight";
paths = (
{
closed = 1;
nodes = (
"514 0 LINE SMOOTH",
"529 0 OFFCURVE",
"537 4 OFFCURVE",
"537 20 CURVE SMOOTH",
"537 27 LINE SMOOTH",
"537 43 OFFCURVE",
"529 49 OFFCURVE",
"514 49 CURVE SMOOTH",
"129 49 LINE",
"129 316 LINE",
"427 316 LINE SMOOTH",
"442 316 OFFCURVE",
"450 322 OFFCURVE",
"450 338 CURVE SMOOTH",
"450 345 LINE SMOOTH",
"450 361 OFFCURVE",
"442 365 OFFCURVE",
"427 365 CURVE SMOOTH",
"129 365 LINE",
"129 631 LINE",
"514 631 LINE SMOOTH",
"529 631 OFFCURVE",
"537 637 OFFCURVE",
"537 653 CURVE SMOOTH",
"537 660 LINE SMOOTH",
"537 676 OFFCURVE",
"529 680 OFFCURVE",
"514 680 CURVE SMOOTH",
"98 680 LINE SMOOTH",
"82 680 OFFCURVE",
"75 672 OFFCURVE",
"75 657 CURVE SMOOTH",
"75 23 LINE SMOOTH",
"75 8 OFFCURVE",
"82 0 OFFCURVE",
"98 0 CURVE SMOOTH"
);
},
{
closed = 1;
nodes = (
"441 801 LINE SMOOTH",
"456 801 OFFCURVE",
"464 805 OFFCURVE",
"464 821 CURVE SMOOTH",
"464 828 LINE SMOOTH",
"464 844 OFFCURVE",
"456 850 OFFCURVE",
"441 850 CURVE SMOOTH",
"163 850 LINE SMOOTH",
"148 850 OFFCURVE",
"140 844 OFFCURVE",
"140 828 CURVE SMOOTH",
"140 821 LINE SMOOTH",
"140 805 OFFCURVE",
"148 801 OFFCURVE",
"163 801 CURVE SMOOTH"
);
}
);
width = 582;
}
);
note = Emacron;
unicode = 0112;
},
{
glyphname = Eogonek;
lastChange = "2015-07-18 10:04:44 +0000";
layers = (
{
layerId = "63696E93-80B4-4894-80FD-D92E433586BC";
name = "Light ExtraLight";
paths = (
{
closed = 1;
nodes = (
"514 0 LINE SMOOTH",
"529 0 OFFCURVE",
"537 4 OFFCURVE",
"537 20 CURVE SMOOTH",
"537 27 LINE SMOOTH",
"537 43 OFFCURVE",
"529 49 OFFCURVE",
"514 49 CURVE SMOOTH",
"129 49 LINE",
"129 316 LINE",
"427 316 LINE SMOOTH",
"442 316 OFFCURVE",
"450 322 OFFCURVE",
"450 338 CURVE SMOOTH",
"450 345 LINE SMOOTH",
"450 361 OFFCURVE",
"442 365 OFFCURVE",
"427 365 CURVE SMOOTH",
"129 365 LINE",
"129 631 LINE",
"514 631 LINE SMOOTH",
"529 631 OFFCURVE",
"537 637 OFFCURVE",
"537 653 CURVE SMOOTH",
"537 660 LINE SMOOTH",
"537 676 OFFCURVE",
"529 680 OFFCURVE",
"514 680 CURVE SMOOTH",
"98 680 LINE SMOOTH",
"82 680 OFFCURVE",
"75 672 OFFCURVE",
"75 657 CURVE SMOOTH",
"75 23 LINE SMOOTH",
"75 8 OFFCURVE",
"82 0 OFFCURVE",
"98 0 CURVE SMOOTH"
);
},
{
closed = 1;
nodes = (
"489 -195 OFFCURVE",
"509 -193 OFFCURVE",
"520 -187 CURVE",
"532 -181 OFFCURVE",
"533 -177 OFFCURVE",
"530 -170 CURVE SMOOTH",
"520 -148 LINE SMOOTH",
"516 -139 OFFCURVE",
"513 -140 OFFCURVE",
"506 -143 CURVE",
"500 -146 OFFCURVE",
"493 -147 OFFCURVE",
"484 -147 CURVE SMOOTH",
"469 -147 OFFCURVE",
"460 -137 OFFCURVE",
"460 -120 CURVE SMOOTH",
"460 -91 OFFCURVE",
"471 -64 OFFCURVE",
"517 -8 CURVE SMOOTH",
"524 0 OFFCURVE",
"519 8 OFFCURVE",
"507 8 CURVE SMOOTH",
"486 8 LINE SMOOTH",
"473 8 OFFCURVE",
"469 4 OFFCURVE",
"461 -5 CURVE SMOOTH",
"417 -55 OFFCURVE",
"400 -92 OFFCURVE",
"400 -128 CURVE SMOOTH",
"400 -164 OFFCURVE",
"424 -195 OFFCURVE",
"473 -195 CURVE SMOOTH"
);
}
);
width = 582;
}
);
note = Eogonek;
unicode = 0118;
},
{
glyphname = Etilde;
lastChange = "2015-07-18 10:04:45 +0000";
layers = (
{
layerId = "63696E93-80B4-4894-80FD-D92E433586BC";
name = "Light ExtraLight";
paths = (
{
closed = 1;
nodes = (
"514 0 LINE SMOOTH",
"529 0 OFFCURVE",
"537 4 OFFCURVE",
"537 20 CURVE SMOOTH",
"537 27 LINE SMOOTH",
"537 43 OFFCURVE",
"529 49 OFFCURVE",
"514 49 CURVE SMOOTH",
"129 49 LINE",
"129 316 LINE",
"427 316 LINE SMOOTH",
"442 316 OFFCURVE",
"450 322 OFFCURVE",
"450 338 CURVE SMOOTH",
"450 345 LINE SMOOTH",
"450 361 OFFCURVE",
"442 365 OFFCURVE",
"427 365 CURVE SMOOTH",
"129 365 LINE",
"129 631 LINE",
"514 631 LINE SMOOTH",
"529 631 OFFCURVE",
"537 637 OFFCURVE",
"537 653 CURVE SMOOTH",
"537 660 LINE SMOOTH",
"537 676 OFFCURVE",
"529 680 OFFCURVE",
"514 680 CURVE SMOOTH",
"98 680 LINE SMOOTH",
"82 680 OFFCURVE",
"75 672 OFFCURVE",
"75 657 CURVE SMOOTH",
"75 23 LINE SMOOTH",
"75 8 OFFCURVE",
"82 0 OFFCURVE",
"98 0 CURVE SMOOTH"
);
},
{
closed = 1;
nodes = (
"422 750 OFFCURVE",
"458 767 OFFCURVE",
"483 798 CURVE SMOOTH",
"497 815 OFFCURVE",
"495 825 OFFCURVE",
"486 833 CURVE SMOOTH",
"471 847 OFFCURVE",
"458 843 OFFCURVE",
"445 827 CURVE SMOOTH",
"428 807 OFFCURVE",
"409 796 OFFCURVE",
"377 796 CURVE SMOOTH",
"317 796 OFFCURVE",
"309 853 OFFCURVE",
"228 853 CURVE SMOOTH",
"185 853 OFFCURVE",
"149 836 OFFCURVE",
"124 805 CURVE SMOOTH",
"110 788 OFFCURVE",
"112 778 OFFCURVE",
"121 770 CURVE SMOOTH",
"136 756 OFFCURVE",
"149 760 OFFCURVE",
"162 776 CURVE SMOOTH",
"179 796 OFFCURVE",
"198 807 OFFCURVE",
"230 807 CURVE SMOOTH",
"288 807 OFFCURVE",
"302 750 OFFCURVE",
"379 750 CURVE SMOOTH"
);
}
);
width = 582;
}
);
note = Etilde;
unicode = 1EBC;
},
{
glyphname = F;
lastChange = "2015-07-18 10:04:39 +0000";
layers = (
{
layerId = "63696E93-80B4-4894-80FD-D92E433586BC";
name = "Light ExtraLight";
paths = (
{
closed = 1;
nodes = (
"106 0 LINE SMOOTH",
"122 0 OFFCURVE",
"129 8 OFFCURVE",
"129 23 CURVE SMOOTH",
"129 316 LINE",
"427 316 LINE SMOOTH",
"442 316 OFFCURVE",
"450 322 OFFCURVE",
"450 338 CURVE SMOOTH",
"450 345 LINE SMOOTH",
"450 361 OFFCURVE",
"442 365 OFFCURVE",
"427 365 CURVE SMOOTH",
"129 365 LINE",
"129 631 LINE",
"514 631 LINE SMOOTH",
"529 631 OFFCURVE",
"537 637 OFFCURVE",
"537 653 CURVE SMOOTH",
"537 660 LINE SMOOTH",
"537 676 OFFCURVE",
"529 680 OFFCURVE",
"514 680 CURVE SMOOTH",
"98 680 LINE SMOOTH",
"82 680 OFFCURVE",
"75 672 OFFCURVE",
"75 657 CURVE SMOOTH",
"75 23 LINE SMOOTH",
"75 8 OFFCURVE",
"82 0 OFFCURVE",
"98 0 CURVE SMOOTH"
);
}
);
width = 572;
}
);
note = F;
unicode = 0046;
},
{
glyphname = G;
lastChange = "2015-07-18 10:04:39 +0000";
layers = (
{
layerId = "63696E93-80B4-4894-80FD-D92E433586BC";
name = "Light ExtraLight";
paths = (
{
closed = 1;
nodes = (
"480 -15 OFFCURVE",
"564 1 OFFCURVE",
"632 36 CURVE SMOOTH",
"640 40 OFFCURVE",
"641 48 OFFCURVE",
"641 59 CURVE SMOOTH",
"641 342 LINE SMOOTH",
"641 357 OFFCURVE",
"634 365 OFFCURVE",
"618 365 CURVE SMOOTH",
"409 365 LINE SMOOTH",
"394 365 OFFCURVE",
"386 361 OFFCURVE",
"386 345 CURVE SMOOTH",
"386 338 LINE SMOOTH",
"386 322 OFFCURVE",
"394 316 OFFCURVE",
"409 316 CURVE SMOOTH",
"587 316 LINE",
"587 67 LINE",
"541 44 OFFCURVE",
"467 31 OFFCURVE",
"394 31 CURVE SMOOTH",
"230 31 OFFCURVE",
"107 122 OFFCURVE",
"107 340 CURVE SMOOTH",
"107 558 OFFCURVE",
"225 649 OFFCURVE",
"394 649 CURVE SMOOTH",
"474 649 OFFCURVE",
"538 631 OFFCURVE",
"576 606 CURVE SMOOTH",
"584 601 OFFCURVE",
"586 602 OFFCURVE",
"590 609 CURVE SMOOTH",
"603 631 LINE SMOOTH",
"608 639 OFFCURVE",
"605 642 OFFCURVE",
"598 647 CURVE",
"547 680 OFFCURVE",
"470 695 OFFCURVE",
"393 695 CURVE SMOOTH",
"176 695 OFFCURVE",
"55 562 OFFCURVE",
"55 340 CURVE SMOOTH",
"55 118 OFFCURVE",
"176 -15 OFFCURVE",
"393 -15 CURVE SMOOTH"
);
}
);
width = 696;
}
);
note = G;
unicode = 0047;
},
{
glyphname = Gbreve;
lastChange = "2015-07-18 10:04:45 +0000";
layers = (
{
layerId = "63696E93-80B4-4894-80FD-D92E433586BC";
name = "Light ExtraLight";
paths = (
{
closed = 1;
nodes = (
"480 -15 OFFCURVE",
"564 1 OFFCURVE",
"632 36 CURVE SMOOTH",
"640 40 OFFCURVE",
"641 48 OFFCURVE",
"641 59 CURVE SMOOTH",
"641 342 LINE SMOOTH",
"641 357 OFFCURVE",
"634 365 OFFCURVE",
"618 365 CURVE SMOOTH",
"409 365 LINE SMOOTH",
"394 365 OFFCURVE",
"386 361 OFFCURVE",
"386 345 CURVE SMOOTH",
"386 338 LINE SMOOTH",
"386 322 OFFCURVE",
"394 316 OFFCURVE",
"409 316 CURVE SMOOTH",
"587 316 LINE",
"587 67 LINE",
"541 44 OFFCURVE",
"467 31 OFFCURVE",
"394 31 CURVE SMOOTH",
"230 31 OFFCURVE",
"107 122 OFFCURVE",
"107 340 CURVE SMOOTH",
"107 558 OFFCURVE",
"225 649 OFFCURVE",
"394 649 CURVE SMOOTH",
"474 649 OFFCURVE",
"538 631 OFFCURVE",
"576 606 CURVE SMOOTH",
"584 601 OFFCURVE",
"586 602 OFFCURVE",
"590 609 CURVE SMOOTH",
"603 631 LINE SMOOTH",
"608 639 OFFCURVE",
"605 642 OFFCURVE",
"598 647 CURVE",
"547 680 OFFCURVE",
"470 695 OFFCURVE",
"393 695 CURVE SMOOTH",
"176 695 OFFCURVE",
"55 562 OFFCURVE",
"55 340 CURVE SMOOTH",
"55 118 OFFCURVE",
"176 -15 OFFCURVE",
"393 -15 CURVE SMOOTH"
);
},
{
closed = 1;
nodes = (
"487 734 OFFCURVE",
"531 797 OFFCURVE",
"531 887 CURVE SMOOTH",
"531 898 OFFCURVE",
"525 905 OFFCURVE",
"515 905 CURVE SMOOTH",
"491 905 LINE SMOOTH",
"477 905 OFFCURVE",
"474 898 OFFCURVE",
"474 886 CURVE SMOOTH",
"474 829 OFFCURVE",
"460 785 OFFCURVE",
"390 785 CURVE SMOOTH",
"320 785 OFFCURVE",
"306 829 OFFCURVE",
"306 886 CURVE SMOOTH",
"306 898 OFFCURVE",
"303 905 OFFCURVE",
"289 905 CURVE SMOOTH",
"265 905 LINE SMOOTH",
"255 905 OFFCURVE",
"249 898 OFFCURVE",
"249 887 CURVE SMOOTH",
"249 797 OFFCURVE",
"293 734 OFFCURVE",
"390 734 CURVE SMOOTH"
);
}
);
width = 696;
}
);
note = Gbreve;
unicode = 011E;
},
{
glyphname = Gcaron;
lastChange = "2015-07-18 10:04:45 +0000";
layers = (
{
layerId = "63696E93-80B4-4894-80FD-D92E433586BC";
name = "Light ExtraLight";
paths = (
{
closed = 1;
nodes = (
"480 -15 OFFCURVE",
"564 1 OFFCURVE",
"632 36 CURVE SMOOTH",
"640 40 OFFCURVE",
"641 48 OFFCURVE",
"641 59 CURVE SMOOTH",
"641 342 LINE SMOOTH",
"641 357 OFFCURVE",
"634 365 OFFCURVE",
"618 365 CURVE SMOOTH",
"409 365 LINE SMOOTH",
"394 365 OFFCURVE",
"386 361 OFFCURVE",
"386 345 CURVE SMOOTH",
"386 338 LINE SMOOTH",
"386 322 OFFCURVE",
"394 316 OFFCURVE",
"409 316 CURVE SMOOTH",
"587 316 LINE",
"587 67 LINE",
"541 44 OFFCURVE",
"467 31 OFFCURVE",
"394 31 CURVE SMOOTH",
"230 31 OFFCURVE",
"107 122 OFFCURVE",
"107 340 CURVE SMOOTH",
"107 558 OFFCURVE",
"225 649 OFFCURVE",
"394 649 CURVE SMOOTH",
"474 649 OFFCURVE",
"538 631 OFFCURVE",
"576 606 CURVE SMOOTH",
"584 601 OFFCURVE",
"586 602 OFFCURVE",
"590 609 CURVE SMOOTH",
"603 631 LINE SMOOTH",
"608 639 OFFCURVE",
"605 642 OFFCURVE",
"598 647 CURVE",
"547 680 OFFCURVE",
"470 695 OFFCURVE",
"393 695 CURVE SMOOTH",
"176 695 OFFCURVE",
"55 562 OFFCURVE",
"55 340 CURVE SMOOTH",
"55 118 OFFCURVE",
"176 -15 OFFCURVE",
"393 -15 CURVE SMOOTH"
);
},
{
closed = 1;
nodes = (
"400 746 LINE SMOOTH",
"412 746 OFFCURVE",
"415 752 OFFCURVE",
"423 763 CURVE SMOOTH",
"535 919 LINE",
"542 928 OFFCURVE",
"533 937 OFFCURVE",
"523 937 CURVE SMOOTH",
"504 937 LINE SMOOTH",
"488 937 OFFCURVE",
"485 930 OFFCURVE",
"478 920 CURVE SMOOTH",
"394 798 LINE",
"310 920 LINE SMOOTH",
"303 930 OFFCURVE",
"300 937 OFFCURVE",
"284 937 CURVE SMOOTH",
"265 937 LINE SMOOTH",
"255 937 OFFCURVE",
"246 928 OFFCURVE",
"253 919 CURVE",
"365 763 LINE SMOOTH",
"373 752 OFFCURVE",
"376 746 OFFCURVE",
"388 746 CURVE SMOOTH"
);
}
);
width = 696;
}
);
note = Gcaron;
unicode = 01E6;
},
{
glyphname = Gcircumflex;
lastChange = "2015-07-18 10:04:43 +0000";
layers = (
{
layerId = "63696E93-80B4-4894-80FD-D92E433586BC";
name = "Light ExtraLight";
paths = (
{
closed = 1;
nodes = (
"480 -15 OFFCURVE",
"564 1 OFFCURVE",
"632 36 CURVE SMOOTH",
"640 40 OFFCURVE",
"641 48 OFFCURVE",
"641 59 CURVE SMOOTH",
"641 342 LINE SMOOTH",
"641 357 OFFCURVE",
"634 365 OFFCURVE",
"618 365 CURVE SMOOTH",
"409 365 LINE SMOOTH",
"394 365 OFFCURVE",
"386 361 OFFCURVE",
"386 345 CURVE SMOOTH",
"386 338 LINE SMOOTH",
"386 322 OFFCURVE",
"394 316 OFFCURVE",
"409 316 CURVE SMOOTH",
"587 316 LINE",
"587 67 LINE",
"541 44 OFFCURVE",
"467 31 OFFCURVE",
"394 31 CURVE SMOOTH",
"230 31 OFFCURVE",
"107 122 OFFCURVE",
"107 340 CURVE SMOOTH",
"107 558 OFFCURVE",
"225 649 OFFCURVE",
"394 649 CURVE SMOOTH",
"474 649 OFFCURVE",
"538 631 OFFCURVE",
"576 606 CURVE SMOOTH",
"584 601 OFFCURVE",
"586 602 OFFCURVE",
"590 609 CURVE SMOOTH",
"603 631 LINE SMOOTH",
"608 639 OFFCURVE",
"605 642 OFFCURVE",
"598 647 CURVE",
"547 680 OFFCURVE",
"470 695 OFFCURVE",
"393 695 CURVE SMOOTH",
"176 695 OFFCURVE",
"55 562 OFFCURVE",
"55 340 CURVE SMOOTH",
"55 118 OFFCURVE",
"176 -15 OFFCURVE",
"393 -15 CURVE SMOOTH"
);
},
{
closed = 1;
nodes = (
"277 734 LINE SMOOTH",
"293 734 OFFCURVE",
"296 741 OFFCURVE",
"303 751 CURVE SMOOTH",
"387 873 LINE",
"471 751 LINE SMOOTH",
"478 741 OFFCURVE",
"481 734 OFFCURVE",
"497 734 CURVE SMOOTH",
"516 734 LINE SMOOTH",
"526 734 OFFCURVE",
"535 743 OFFCURVE",
"528 752 CURVE",
"416 908 LINE SMOOTH",
"408 919 OFFCURVE",
"405 925 OFFCURVE",
"393 925 CURVE SMOOTH",
"381 925 LINE SMOOTH",
"369 925 OFFCURVE",
"366 919 OFFCURVE",
"358 908 CURVE SMOOTH",
"246 752 LINE",
"239 743 OFFCURVE",
"248 734 OFFCURVE",
"258 734 CURVE SMOOTH"
);
}
);
width = 696;
}
);
note = Gcircumflex;
unicode = 011C;
},
{
glyphname = Gcommaaccent;
lastChange = "2015-07-18 10:04:44 +0000";
layers = (
{
layerId = "63696E93-80B4-4894-80FD-D92E433586BC";
name = "Light ExtraLight";
paths = (
{
closed = 1;
nodes = (
"480 -15 OFFCURVE",
"564 1 OFFCURVE",
"632 36 CURVE SMOOTH",
"640 40 OFFCURVE",
"641 48 OFFCURVE",
"641 59 CURVE SMOOTH",
"641 342 LINE SMOOTH",
"641 357 OFFCURVE",
"634 365 OFFCURVE",
"618 365 CURVE SMOOTH",
"409 365 LINE SMOOTH",
"394 365 OFFCURVE",
"386 361 OFFCURVE",
"386 345 CURVE SMOOTH",
"386 338 LINE SMOOTH",
"386 322 OFFCURVE",
"394 316 OFFCURVE",
"409 316 CURVE SMOOTH",
"587 316 LINE",
"587 67 LINE",
"541 44 OFFCURVE",
"467 31 OFFCURVE",
"394 31 CURVE SMOOTH",
"230 31 OFFCURVE",
"107 122 OFFCURVE",
"107 340 CURVE SMOOTH",
"107 558 OFFCURVE",
"225 649 OFFCURVE",
"394 649 CURVE SMOOTH",
"474 649 OFFCURVE",
"538 631 OFFCURVE",
"576 606 CURVE SMOOTH",
"584 601 OFFCURVE",
"586 602 OFFCURVE",
"590 609 CURVE SMOOTH",
"603 631 LINE SMOOTH",
"608 639 OFFCURVE",
"605 642 OFFCURVE",
"598 647 CURVE",
"547 680 OFFCURVE",
"470 695 OFFCURVE",
"393 695 CURVE SMOOTH",
"176 695 OFFCURVE",
"55 562 OFFCURVE",
"55 340 CURVE SMOOTH",
"55 118 OFFCURVE",
"176 -15 OFFCURVE",
"393 -15 CURVE SMOOTH"
);
},
{
closed = 1;
nodes = (
"348 -211 LINE SMOOTH",
"359 -211 OFFCURVE",
"364 -208 OFFCURVE",
"368 -200 CURVE",
"432 -52 LINE SMOOTH",
"436 -42 OFFCURVE",
"434 -36 OFFCURVE",
"422 -36 CURVE SMOOTH",
"398 -36 LINE SMOOTH",
"384 -36 OFFCURVE",
"380 -39 OFFCURVE",
"376 -50 CURVE SMOOTH",
"328 -195 LINE SMOOTH",
"325 -205 OFFCURVE",
"326 -211 OFFCURVE",
"336 -211 CURVE SMOOTH"
);
}
);
width = 696;
}
);
note = Gcommaaccent;
unicode = 0122;
},
{
glyphname = Gdotaccent;
lastChange = "2015-07-18 10:04:43 +0000";
layers = (
{
layerId = "63696E93-80B4-4894-80FD-D92E433586BC";
name = "Light ExtraLight";
paths = (
{
closed = 1;
nodes = (
"480 -15 OFFCURVE",
"564 1 OFFCURVE",
"632 36 CURVE SMOOTH",
"640 40 OFFCURVE",
"641 48 OFFCURVE",
"641 59 CURVE SMOOTH",
"641 342 LINE SMOOTH",
"641 357 OFFCURVE",
"634 365 OFFCURVE",
"618 365 CURVE SMOOTH",
"409 365 LINE SMOOTH",
"394 365 OFFCURVE",
"386 361 OFFCURVE",
"386 345 CURVE SMOOTH",
"386 338 LINE SMOOTH",
"386 322 OFFCURVE",
"394 316 OFFCURVE",
"409 316 CURVE SMOOTH",
"587 316 LINE",
"587 67 LINE",
"541 44 OFFCURVE",
"467 31 OFFCURVE",
"394 31 CURVE SMOOTH",
"230 31 OFFCURVE",
"107 122 OFFCURVE",
"107 340 CURVE SMOOTH",
"107 558 OFFCURVE",
"225 649 OFFCURVE",
"394 649 CURVE SMOOTH",
"474 649 OFFCURVE",
"538 631 OFFCURVE",
"576 606 CURVE SMOOTH",
"584 601 OFFCURVE",
"586 602 OFFCURVE",
"590 609 CURVE SMOOTH",
"603 631 LINE SMOOTH",
"608 639 OFFCURVE",
"605 642 OFFCURVE",
"598 647 CURVE",
"547 680 OFFCURVE",
"470 695 OFFCURVE",
"393 695 CURVE SMOOTH",
"176 695 OFFCURVE",
"55 562 OFFCURVE",
"55 340 CURVE SMOOTH",
"55 118 OFFCURVE",
"176 -15 OFFCURVE",
"393 -15 CURVE SMOOTH"
);
},
{
closed = 1;
nodes = (
"395 753 LINE SMOOTH",
"415 753 OFFCURVE",
"428 769 OFFCURVE",
"428 788 CURVE SMOOTH",
"428 801 LINE SMOOTH",
"428 820 OFFCURVE",
"414 836 OFFCURVE",
"395 836 CURVE SMOOTH",
"381 836 LINE SMOOTH",
"362 836 OFFCURVE",
"348 820 OFFCURVE",
"348 801 CURVE SMOOTH",
"348 788 LINE SMOOTH",
"348 769 OFFCURVE",
"362 753 OFFCURVE",
"381 753 CURVE SMOOTH"
);
}
);
width = 696;
}
);
note = Gdotaccent;
unicode = 0120;
},
{
glyphname = Gmacron;
lastChange = "2015-07-18 10:04:45 +0000";
layers = (
{
layerId = "63696E93-80B4-4894-80FD-D92E433586BC";
name = "Light ExtraLight";
paths = (
{
closed = 1;
nodes = (
"480 -15 OFFCURVE",
"564 1 OFFCURVE",
"632 36 CURVE SMOOTH",
"640 40 OFFCURVE",
"641 48 OFFCURVE",
"641 59 CURVE SMOOTH",
"641 342 LINE SMOOTH",
"641 357 OFFCURVE",
"634 365 OFFCURVE",
"618 365 CURVE SMOOTH",
"409 365 LINE SMOOTH",
"394 365 OFFCURVE",
"386 361 OFFCURVE",
"386 345 CURVE SMOOTH",
"386 338 LINE SMOOTH",
"386 322 OFFCURVE",
"394 316 OFFCURVE",
"409 316 CURVE SMOOTH",
"587 316 LINE",
"587 67 LINE",
"541 44 OFFCURVE",
"467 31 OFFCURVE",
"394 31 CURVE SMOOTH",
"230 31 OFFCURVE",
"107 122 OFFCURVE",
"107 340 CURVE SMOOTH",
"107 558 OFFCURVE",
"225 649 OFFCURVE",
"394 649 CURVE SMOOTH",
"474 649 OFFCURVE",
"538 631 OFFCURVE",
"576 606 CURVE SMOOTH",
"584 601 OFFCURVE",
"586 602 OFFCURVE",
"590 609 CURVE SMOOTH",
"603 631 LINE SMOOTH",
"608 639 OFFCURVE",
"605 642 OFFCURVE",
"598 647 CURVE",
"547 680 OFFCURVE",
"470 695 OFFCURVE",
"393 695 CURVE SMOOTH",
"176 695 OFFCURVE",
"55 562 OFFCURVE",
"55 340 CURVE SMOOTH",
"55 118 OFFCURVE",
"176 -15 OFFCURVE",
"393 -15 CURVE SMOOTH"
);
},
{
closed = 1;
nodes = (
"524 789 LINE SMOOTH",
"539 789 OFFCURVE",
"547 793 OFFCURVE",
"547 809 CURVE SMOOTH",
"547 816 LINE SMOOTH",
"547 832 OFFCURVE",
"539 838 OFFCURVE",
"524 838 CURVE SMOOTH",
"246 838 LINE SMOOTH",
"231 838 OFFCURVE",
"223 832 OFFCURVE",
"223 816 CURVE SMOOTH",
"223 809 LINE SMOOTH",
"223 793 OFFCURVE",
"231 789 OFFCURVE",
"246 789 CURVE SMOOTH"
);
}
);
width = 696;
}
);
note = Gmacron;
unicode = 1E20;
},
{
glyphname = H;
lastChange = "2015-07-18 10:04:39 +0000";
layers = (
{
layerId = "63696E93-80B4-4894-80FD-D92E433586BC";
name = "Light ExtraLight";
paths = (
{
closed = 1;
nodes = (
"106 0 LINE SMOOTH",
"122 0 OFFCURVE",
"129 8 OFFCURVE",
"129 23 CURVE SMOOTH",
"129 320 LINE",
"557 320 LINE",
"557 23 LINE SMOOTH",
"557 8 OFFCURVE",
"564 0 OFFCURVE",
"580 0 CURVE SMOOTH",
"588 0 LINE SMOOTH",
"604 0 OFFCURVE",
"611 8 OFFCURVE",
"611 23 CURVE SMOOTH",
"611 657 LINE SMOOTH",
"611 672 OFFCURVE",
"604 680 OFFCURVE",
"588 680 CURVE SMOOTH",
"580 680 LINE SMOOTH",
"564 680 OFFCURVE",
"557 672 OFFCURVE",
"557 657 CURVE SMOOTH",
"557 369 LINE",
"129 369 LINE",
"129 657 LINE SMOOTH",
"129 672 OFFCURVE",
"122 680 OFFCURVE",
"106 680 CURVE SMOOTH",
"98 680 LINE SMOOTH",
"82 680 OFFCURVE",
"75 672 OFFCURVE",
"75 657 CURVE SMOOTH",
"75 23 LINE SMOOTH",
"75 8 OFFCURVE",
"82 0 OFFCURVE",
"98 0 CURVE SMOOTH"
);
}
);
width = 686;
}
);
note = H;
unicode = 0048;
},
{
glyphname = Hbar;
lastChange = "2015-07-18 10:04:45 +0000";
layers = (
{
layerId = "63696E93-80B4-4894-80FD-D92E433586BC";
name = "Light ExtraLight";
paths = (
{
closed = 1;
nodes = (
"110 0 LINE SMOOTH",
"126 0 OFFCURVE",
"133 8 OFFCURVE",
"133 23 CURVE SMOOTH",
"133 320 LINE",
"561 320 LINE",
"561 23 LINE SMOOTH",
"561 8 OFFCURVE",
"568 0 OFFCURVE",
"584 0 CURVE SMOOTH",
"592 0 LINE SMOOTH",
"608 0 OFFCURVE",
"615 8 OFFCURVE",
"615 23 CURVE SMOOTH",
"615 657 LINE SMOOTH",
"615 672 OFFCURVE",
"608 680 OFFCURVE",
"592 680 CURVE SMOOTH",
"584 680 LINE SMOOTH",
"568 680 OFFCURVE",
"561 672 OFFCURVE",
"561 657 CURVE SMOOTH",
"561 369 LINE",
"133 369 LINE",
"133 657 LINE SMOOTH",
"133 672 OFFCURVE",
"126 680 OFFCURVE",
"110 680 CURVE SMOOTH",
"102 680 LINE SMOOTH",
"86 680 OFFCURVE",
"79 672 OFFCURVE",
"79 657 CURVE SMOOTH",
"79 23 LINE SMOOTH",
"79 8 OFFCURVE",
"86 0 OFFCURVE",
"102 0 CURVE SMOOTH"
);
},
{
closed = 1;
nodes = (
"636 511 LINE SMOOTH",
"651 511 OFFCURVE",
"659 515 OFFCURVE",
"659 531 CURVE SMOOTH",
"659 538 LINE SMOOTH",
"659 554 OFFCURVE",
"651 560 OFFCURVE",
"636 560 CURVE SMOOTH",
"58 560 LINE SMOOTH",
"43 560 OFFCURVE",
"35 554 OFFCURVE",
"35 538 CURVE SMOOTH",
"35 531 LINE SMOOTH",
"35 515 OFFCURVE",
"43 511 OFFCURVE",
"58 511 CURVE SMOOTH"
);
}
);
width = 694;
}
);
note = Hbar;
unicode = 0126;
},
{
glyphname = Hbrevebelow;
lastChange = "2015-07-18 10:04:43 +0000";
layers = (
{
layerId = "63696E93-80B4-4894-80FD-D92E433586BC";
name = "Light ExtraLight";
paths = (
{
closed = 1;
nodes = (
"106 0 LINE SMOOTH",
"122 0 OFFCURVE",
"129 8 OFFCURVE",
"129 23 CURVE SMOOTH",
"129 320 LINE",
"557 320 LINE",
"557 23 LINE SMOOTH",
"557 8 OFFCURVE",
"564 0 OFFCURVE",
"580 0 CURVE SMOOTH",
"588 0 LINE SMOOTH",
"604 0 OFFCURVE",
"611 8 OFFCURVE",
"611 23 CURVE SMOOTH",
"611 657 LINE SMOOTH",
"611 672 OFFCURVE",
"604 680 OFFCURVE",
"588 680 CURVE SMOOTH",
"580 680 LINE SMOOTH",
"564 680 OFFCURVE",
"557 672 OFFCURVE",
"557 657 CURVE SMOOTH",
"557 369 LINE",
"129 369 LINE",
"129 657 LINE SMOOTH",
"129 672 OFFCURVE",
"122 680 OFFCURVE",
"106 680 CURVE SMOOTH",
"98 680 LINE SMOOTH",
"82 680 OFFCURVE",
"75 672 OFFCURVE",
"75 657 CURVE SMOOTH",
"75 23 LINE SMOOTH",
"75 8 OFFCURVE",
"82 0 OFFCURVE",
"98 0 CURVE SMOOTH"
);
},
{
closed = 1;
nodes = (
"442 -208 OFFCURVE",
"486 -145 OFFCURVE",
"486 -55 CURVE SMOOTH",
"486 -44 OFFCURVE",
"480 -37 OFFCURVE",
"470 -37 CURVE SMOOTH",
"446 -37 LINE SMOOTH",
"432 -37 OFFCURVE",
"429 -44 OFFCURVE",
"429 -56 CURVE SMOOTH",
"429 -113 OFFCURVE",
"415 -157 OFFCURVE",
"345 -157 CURVE SMOOTH",
"275 -157 OFFCURVE",
"261 -113 OFFCURVE",
"261 -56 CURVE SMOOTH",
"261 -44 OFFCURVE",
"258 -37 OFFCURVE",
"244 -37 CURVE SMOOTH",
"220 -37 LINE SMOOTH",
"210 -37 OFFCURVE",
"204 -44 OFFCURVE",
"204 -55 CURVE SMOOTH",
"204 -145 OFFCURVE",
"248 -208 OFFCURVE",
"345 -208 CURVE SMOOTH"
);
}
);
width = 686;
}
);
note = Hbrevebelow;
unicode = 1E2A;
},
{
glyphname = Hcircumflex;
lastChange = "2015-07-18 10:04:45 +0000";
layers = (
{
layerId = "63696E93-80B4-4894-80FD-D92E433586BC";
name = "Light ExtraLight";
paths = (
{
closed = 1;
nodes = (
"106 0 LINE SMOOTH",
"122 0 OFFCURVE",
"129 8 OFFCURVE",
"129 23 CURVE SMOOTH",
"129 320 LINE",
"557 320 LINE",
"557 23 LINE SMOOTH",
"557 8 OFFCURVE",
"564 0 OFFCURVE",
"580 0 CURVE SMOOTH",
"588 0 LINE SMOOTH",
"604 0 OFFCURVE",
"611 8 OFFCURVE",
"611 23 CURVE SMOOTH",
"611 657 LINE SMOOTH",
"611 672 OFFCURVE",
"604 680 OFFCURVE",
"588 680 CURVE SMOOTH",
"580 680 LINE SMOOTH",
"564 680 OFFCURVE",
"557 672 OFFCURVE",
"557 657 CURVE SMOOTH",
"557 369 LINE",
"129 369 LINE",
"129 657 LINE SMOOTH",
"129 672 OFFCURVE",
"122 680 OFFCURVE",
"106 680 CURVE SMOOTH",
"98 680 LINE SMOOTH",
"82 680 OFFCURVE",
"75 672 OFFCURVE",
"75 657 CURVE SMOOTH",
"75 23 LINE SMOOTH",
"75 8 OFFCURVE",
"82 0 OFFCURVE",
"98 0 CURVE SMOOTH"
);
},
{
closed = 1;
nodes = (
"233 758 LINE SMOOTH",
"249 758 OFFCURVE",
"252 765 OFFCURVE",
"259 775 CURVE SMOOTH",
"343 897 LINE",
"427 775 LINE SMOOTH",
"434 765 OFFCURVE",
"437 758 OFFCURVE",
"453 758 CURVE SMOOTH",
"472 758 LINE SMOOTH",
"482 758 OFFCURVE",
"491 767 OFFCURVE",
"484 776 CURVE",
"372 932 LINE SMOOTH",
"364 943 OFFCURVE",
"361 949 OFFCURVE",
"349 949 CURVE SMOOTH",
"337 949 LINE SMOOTH",
"325 949 OFFCURVE",
"322 943 OFFCURVE",
"314 932 CURVE SMOOTH",
"202 776 LINE",
"195 767 OFFCURVE",
"204 758 OFFCURVE",
"214 758 CURVE SMOOTH"
);
}
);
width = 686;
}
);
note = Hcircumflex;
unicode = 0124;
},
{
glyphname = Hdotbelow;
lastChange = "2015-07-18 10:04:45 +0000";
layers = (
{
layerId = "63696E93-80B4-4894-80FD-D92E433586BC";
name = "Light ExtraLight";
paths = (
{
closed = 1;
nodes = (
"106 0 LINE SMOOTH",
"122 0 OFFCURVE",
"129 8 OFFCURVE",
"129 23 CURVE SMOOTH",
"129 320 LINE",
"557 320 LINE",
"557 23 LINE SMOOTH",
"557 8 OFFCURVE",
"564 0 OFFCURVE",
"580 0 CURVE SMOOTH",
"588 0 LINE SMOOTH",
"604 0 OFFCURVE",
"611 8 OFFCURVE",
"611 23 CURVE SMOOTH",
"611 657 LINE SMOOTH",
"611 672 OFFCURVE",
"604 680 OFFCURVE",
"588 680 CURVE SMOOTH",
"580 680 LINE SMOOTH",
"564 680 OFFCURVE",
"557 672 OFFCURVE",
"557 657 CURVE SMOOTH",
"557 369 LINE",
"129 369 LINE",
"129 657 LINE SMOOTH",
"129 672 OFFCURVE",
"122 680 OFFCURVE",
"106 680 CURVE SMOOTH",
"98 680 LINE SMOOTH",
"82 680 OFFCURVE",
"75 672 OFFCURVE",
"75 657 CURVE SMOOTH",
"75 23 LINE SMOOTH",
"75 8 OFFCURVE",
"82 0 OFFCURVE",
"98 0 CURVE SMOOTH"
);
},
{
closed = 1;
nodes = (
"349 -161 LINE SMOOTH",
"369 -161 OFFCURVE",
"382 -145 OFFCURVE",
"382 -126 CURVE SMOOTH",
"382 -113 LINE SMOOTH",
"382 -94 OFFCURVE",
"368 -78 OFFCURVE",
"349 -78 CURVE SMOOTH",
"335 -78 LINE SMOOTH",
"316 -78 OFFCURVE",
"302 -94 OFFCURVE",
"302 -113 CURVE SMOOTH",
"302 -126 LINE SMOOTH",
"302 -145 OFFCURVE",
"316 -161 OFFCURVE",
"335 -161 CURVE SMOOTH"
);
}
);
width = 686;
}
);
note = Hdotbelow;
unicode = 1E24;
},
{
glyphname = I;
lastChange = "2015-07-18 10:04:39 +0000";
layers = (
{
layerId = "63696E93-80B4-4894-80FD-D92E433586BC";
name = "Light ExtraLight";
paths = (
{
closed = 1;
nodes = (
"106 0 LINE SMOOTH",
"122 0 OFFCURVE",
"129 8 OFFCURVE",
"129 23 CURVE SMOOTH",
"129 657 LINE SMOOTH",
"129 672 OFFCURVE",
"122 680 OFFCURVE",
"106 680 CURVE SMOOTH",
"98 680 LINE SMOOTH",
"82 680 OFFCURVE",
"75 672 OFFCURVE",
"75 657 CURVE SMOOTH",
"75 23 LINE SMOOTH",
"75 8 OFFCURVE",
"82 0 OFFCURVE",
"98 0 CURVE SMOOTH"
);
}
);
width = 204;
}
);
note = I;
unicode = 0049;
},
{
glyphname = IJ;
lastChange = "2015-07-18 10:04:46 +0000";
layers = (
{
layerId = "63696E93-80B4-4894-80FD-D92E433586BC";
name = "Light ExtraLight";
paths = (
{
closed = 1;
nodes = (
"464 -15 OFFCURVE",
"526 66 OFFCURVE",
"526 174 CURVE SMOOTH",
"526 657 LINE SMOOTH",
"526 672 OFFCURVE",
"519 680 OFFCURVE",
"503 680 CURVE SMOOTH",
"495 680 LINE SMOOTH",
"479 680 OFFCURVE",
"472 672 OFFCURVE",
"472 657 CURVE SMOOTH",
"472 172 LINE SMOOTH",
"472 77 OFFCURVE",
"425 31 OFFCURVE",
"329 31 CURVE SMOOTH",
"281 31 OFFCURVE",
"232 42 OFFCURVE",
"199 64 CURVE SMOOTH",
"191 69 OFFCURVE",
"189 68 OFFCURVE",
"185 61 CURVE",
"171 39 LINE SMOOTH",
"166 31 OFFCURVE",
"170 26 OFFCURVE",
"176 23 CURVE",
"222 -5 OFFCURVE",
"277 -15 OFFCURVE",
"337 -15 CURVE SMOOTH"
);
},
{
closed = 1;
nodes = (
"106 0 LINE SMOOTH",
"122 0 OFFCURVE",
"129 8 OFFCURVE",
"129 23 CURVE SMOOTH",
"129 657 LINE SMOOTH",
"129 672 OFFCURVE",
"122 680 OFFCURVE",
"106 680 CURVE SMOOTH",
"98 680 LINE SMOOTH",
"82 680 OFFCURVE",
"75 672 OFFCURVE",
"75 657 CURVE SMOOTH",
"75 23 LINE SMOOTH",
"75 8 OFFCURVE",
"82 0 OFFCURVE",
"98 0 CURVE SMOOTH"
);
}
);
width = 601;
}
);
note = IJ;
unicode = 0132;
},
{
glyphname = Iacute;
lastChange = "2015-07-18 10:04:44 +0000";
layers = (
{
layerId = "63696E93-80B4-4894-80FD-D92E433586BC";
name = "Light ExtraLight";
paths = (
{
closed = 1;
nodes = (
"106 0 LINE SMOOTH",
"122 0 OFFCURVE",
"129 8 OFFCURVE",
"129 23 CURVE SMOOTH",
"129 657 LINE SMOOTH",
"129 672 OFFCURVE",
"122 680 OFFCURVE",
"106 680 CURVE SMOOTH",
"98 680 LINE SMOOTH",
"82 680 OFFCURVE",
"75 672 OFFCURVE",
"75 657 CURVE SMOOTH",
"75 23 LINE SMOOTH",
"75 8 OFFCURVE",
"82 0 OFFCURVE",
"98 0 CURVE SMOOTH"
);
},
{
closed = 1;
nodes = (
"107 765 LINE SMOOTH",
"118 765 OFFCURVE",
"123 768 OFFCURVE",
"127 776 CURVE SMOOTH",
"194 920 LINE SMOOTH",
"199 930 OFFCURVE",
"196 936 OFFCURVE",
"184 936 CURVE SMOOTH",
"157 936 LINE SMOOTH",
"143 936 OFFCURVE",
"139 933 OFFCURVE",
"135 922 CURVE SMOOTH",
"84 781 LINE SMOOTH",
"80 771 OFFCURVE",
"82 765 OFFCURVE",
"92 765 CURVE SMOOTH"
);
}
);
width = 204;
}
);
note = Iacute;
unicode = 00CD;
},
{
glyphname = Ibreve;
lastChange = "2015-07-18 10:04:44 +0000";
layers = (
{
layerId = "63696E93-80B4-4894-80FD-D92E433586BC";
name = "Light ExtraLight";
paths = (
{
closed = 1;
nodes = (
"199 755 OFFCURVE",
"243 818 OFFCURVE",
"243 908 CURVE SMOOTH",
"243 919 OFFCURVE",
"237 926 OFFCURVE",
"227 926 CURVE SMOOTH",
"203 926 LINE SMOOTH",
"189 926 OFFCURVE",
"186 919 OFFCURVE",
"186 907 CURVE SMOOTH",
"186 850 OFFCURVE",
"172 806 OFFCURVE",
"102 806 CURVE SMOOTH",
"32 806 OFFCURVE",
"18 850 OFFCURVE",
"18 907 CURVE SMOOTH",
"18 919 OFFCURVE",
"15 926 OFFCURVE",
"1 926 CURVE SMOOTH",
"-23 926 LINE SMOOTH",
"-33 926 OFFCURVE",
"-39 919 OFFCURVE",
"-39 908 CURVE SMOOTH",
"-39 818 OFFCURVE",
"5 755 OFFCURVE",
"102 755 CURVE SMOOTH"
);
},
{
closed = 1;
nodes = (
"106 0 LINE SMOOTH",
"122 0 OFFCURVE",
"129 8 OFFCURVE",
"129 23 CURVE SMOOTH",
"129 657 LINE SMOOTH",
"129 672 OFFCURVE",
"122 680 OFFCURVE",
"106 680 CURVE SMOOTH",
"98 680 LINE SMOOTH",
"82 680 OFFCURVE",
"75 672 OFFCURVE",
"75 657 CURVE SMOOTH",
"75 23 LINE SMOOTH",
"75 8 OFFCURVE",
"82 0 OFFCURVE",
"98 0 CURVE SMOOTH"
);
}
);
width = 204;
}
);
note = Ibreve;
unicode = 012C;
},
{
glyphname = Icaron;
lastChange = "2015-07-18 10:04:44 +0000";
layers = (
{
layerId = "63696E93-80B4-4894-80FD-D92E433586BC";
name = "Light ExtraLight";
paths = (
{
closed = 1;
nodes = (
"108 746 LINE SMOOTH",
"120 746 OFFCURVE",
"123 752 OFFCURVE",
"131 763 CURVE SMOOTH",
"243 919 LINE",
"250 928 OFFCURVE",
"241 937 OFFCURVE",
"231 937 CURVE SMOOTH",
"212 937 LINE SMOOTH",
"196 937 OFFCURVE",
"193 930 OFFCURVE",
"186 920 CURVE SMOOTH",
"102 798 LINE",
"18 920 LINE SMOOTH",
"11 930 OFFCURVE",
"8 937 OFFCURVE",
"-8 937 CURVE SMOOTH",
"-27 937 LINE SMOOTH",
"-37 937 OFFCURVE",
"-46 928 OFFCURVE",
"-39 919 CURVE",
"73 763 LINE SMOOTH",
"81 752 OFFCURVE",
"84 746 OFFCURVE",
"96 746 CURVE SMOOTH"
);
},
{
closed = 1;
nodes = (
"106 0 LINE SMOOTH",
"122 0 OFFCURVE",
"129 8 OFFCURVE",
"129 23 CURVE SMOOTH",
"129 657 LINE SMOOTH",
"129 672 OFFCURVE",
"122 680 OFFCURVE",
"106 680 CURVE SMOOTH",
"98 680 LINE SMOOTH",
"82 680 OFFCURVE",
"75 672 OFFCURVE",
"75 657 CURVE SMOOTH",
"75 23 LINE SMOOTH",
"75 8 OFFCURVE",
"82 0 OFFCURVE",
"98 0 CURVE SMOOTH"
);
}
);
width = 204;
}
);
note = Icaron;
unicode = 01CF;
},
{
glyphname = Icircumflex;
lastChange = "2015-07-18 10:04:45 +0000";
layers = (
{
layerId = "63696E93-80B4-4894-80FD-D92E433586BC";
name = "Light ExtraLight";
paths = (
{
closed = 1;
nodes = (
"-8 765 LINE SMOOTH",
"8 765 OFFCURVE",
"11 772 OFFCURVE",
"18 782 CURVE SMOOTH",
"102 904 LINE",
"186 782 LINE SMOOTH",
"193 772 OFFCURVE",
"196 765 OFFCURVE",
"212 765 CURVE SMOOTH",
"231 765 LINE SMOOTH",
"241 765 OFFCURVE",
"250 774 OFFCURVE",
"243 783 CURVE",
"131 939 LINE SMOOTH",
"123 950 OFFCURVE",
"120 956 OFFCURVE",
"108 956 CURVE SMOOTH",
"96 956 LINE SMOOTH",
"84 956 OFFCURVE",
"81 950 OFFCURVE",
"73 939 CURVE SMOOTH",
"-39 783 LINE",
"-46 774 OFFCURVE",
"-37 765 OFFCURVE",
"-27 765 CURVE SMOOTH"
);
},
{
closed = 1;
nodes = (
"106 0 LINE SMOOTH",
"122 0 OFFCURVE",
"129 8 OFFCURVE",
"129 23 CURVE SMOOTH",
"129 657 LINE SMOOTH",
"129 672 OFFCURVE",
"122 680 OFFCURVE",
"106 680 CURVE SMOOTH",
"98 680 LINE SMOOTH",
"82 680 OFFCURVE",
"75 672 OFFCURVE",
"75 657 CURVE SMOOTH",
"75 23 LINE SMOOTH",
"75 8 OFFCURVE",
"82 0 OFFCURVE",
"98 0 CURVE SMOOTH"
);
}
);
width = 204;
}
);
note = Icircumflex;
unicode = 00CE;
},
{
glyphname = Idieresis;
lastChange = "2015-07-18 10:04:44 +0000";
layers = (
{
layerId = "63696E93-80B4-4894-80FD-D92E433586BC";
name = "Light ExtraLight";
paths = (
{
closed = 1;
nodes = (
"106 0 LINE SMOOTH",
"122 0 OFFCURVE",
"129 8 OFFCURVE",
"129 23 CURVE SMOOTH",
"129 657 LINE SMOOTH",
"129 672 OFFCURVE",
"122 680 OFFCURVE",
"106 680 CURVE SMOOTH",
"98 680 LINE SMOOTH",
"82 680 OFFCURVE",
"75 672 OFFCURVE",
"75 657 CURVE SMOOTH",
"75 23 LINE SMOOTH",
"75 8 OFFCURVE",
"82 0 OFFCURVE",
"98 0 CURVE SMOOTH"
);
},
{
closed = 1;
nodes = (
"19 735 LINE SMOOTH",
"39 735 OFFCURVE",
"52 751 OFFCURVE",
"52 770 CURVE SMOOTH",
"52 783 LINE SMOOTH",
"52 802 OFFCURVE",
"38 818 OFFCURVE",
"19 818 CURVE SMOOTH",
"5 818 LINE SMOOTH",
"-14 818 OFFCURVE",
"-28 802 OFFCURVE",
"-28 783 CURVE SMOOTH",
"-28 770 LINE SMOOTH",
"-28 751 OFFCURVE",
"-14 735 OFFCURVE",
"5 735 CURVE SMOOTH"
);
},
{
closed = 1;
nodes = (
"199 735 LINE SMOOTH",
"219 735 OFFCURVE",
"232 751 OFFCURVE",
"232 770 CURVE SMOOTH",
"232 783 LINE SMOOTH",
"232 802 OFFCURVE",
"218 818 OFFCURVE",
"199 818 CURVE SMOOTH",
"185 818 LINE SMOOTH",
"166 818 OFFCURVE",
"152 802 OFFCURVE",
"152 783 CURVE SMOOTH",
"152 770 LINE SMOOTH",
"152 751 OFFCURVE",
"166 735 OFFCURVE",
"185 735 CURVE SMOOTH"
);
}
);
width = 204;
}
);
note = Idieresis;
unicode = 00CF;
},
{
glyphname = Idotaccent;
lastChange = "2015-07-18 10:04:46 +0000";
layers = (
{
layerId = "63696E93-80B4-4894-80FD-D92E433586BC";
name = "Light ExtraLight";
paths = (
{
closed = 1;
nodes = (
"106 0 LINE SMOOTH",
"122 0 OFFCURVE",
"129 8 OFFCURVE",
"129 23 CURVE SMOOTH",
"129 657 LINE SMOOTH",
"129 672 OFFCURVE",
"122 680 OFFCURVE",
"106 680 CURVE SMOOTH",
"98 680 LINE SMOOTH",
"82 680 OFFCURVE",
"75 672 OFFCURVE",
"75 657 CURVE SMOOTH",
"75 23 LINE SMOOTH",
"75 8 OFFCURVE",
"82 0 OFFCURVE",
"98 0 CURVE SMOOTH"
);
},
{
closed = 1;
nodes = (
"109 768 LINE SMOOTH",
"129 768 OFFCURVE",
"142 784 OFFCURVE",
"142 803 CURVE SMOOTH",
"142 816 LINE SMOOTH",
"142 835 OFFCURVE",
"128 851 OFFCURVE",
"109 851 CURVE SMOOTH",
"95 851 LINE SMOOTH",
"76 851 OFFCURVE",
"62 835 OFFCURVE",
"62 816 CURVE SMOOTH",
"62 803 LINE SMOOTH",
"62 784 OFFCURVE",
"76 768 OFFCURVE",
"95 768 CURVE SMOOTH"
);
}
);
width = 204;
}
);
note = Idotaccent;
unicode = 0130;
},
{
glyphname = Idotbelow;
lastChange = "2015-07-18 10:04:45 +0000";
layers = (
{
layerId = "63696E93-80B4-4894-80FD-D92E433586BC";
name = "Light ExtraLight";
paths = (
{
closed = 1;
nodes = (
"106 0 LINE SMOOTH",
"122 0 OFFCURVE",
"129 8 OFFCURVE",
"129 23 CURVE SMOOTH",
"129 657 LINE SMOOTH",
"129 672 OFFCURVE",
"122 680 OFFCURVE",
"106 680 CURVE SMOOTH",
"98 680 LINE SMOOTH",
"82 680 OFFCURVE",
"75 672 OFFCURVE",
"75 657 CURVE SMOOTH",
"75 23 LINE SMOOTH",
"75 8 OFFCURVE",
"82 0 OFFCURVE",
"98 0 CURVE SMOOTH"
);
},
{
closed = 1;
nodes = (
"109 -161 LINE SMOOTH",
"129 -161 OFFCURVE",
"142 -145 OFFCURVE",
"142 -126 CURVE SMOOTH",
"142 -113 LINE SMOOTH",
"142 -94 OFFCURVE",
"128 -78 OFFCURVE",
"109 -78 CURVE SMOOTH",
"95 -78 LINE SMOOTH",
"76 -78 OFFCURVE",
"62 -94 OFFCURVE",
"62 -113 CURVE SMOOTH",
"62 -126 LINE SMOOTH",
"62 -145 OFFCURVE",
"76 -161 OFFCURVE",
"95 -161 CURVE SMOOTH"
);
}
);
width = 204;
}
);
note = Idotbelow;
unicode = 1ECA;
},
{
glyphname = Igrave;
lastChange = "2015-07-18 10:04:45 +0000";
layers = (
{
layerId = "63696E93-80B4-4894-80FD-D92E433586BC";
name = "Light ExtraLight";
paths = (
{
closed = 1;
nodes = (
"106 0 LINE SMOOTH",
"122 0 OFFCURVE",
"129 8 OFFCURVE",
"129 23 CURVE SMOOTH",
"129 657 LINE SMOOTH",
"129 672 OFFCURVE",
"122 680 OFFCURVE",
"106 680 CURVE SMOOTH",
"98 680 LINE SMOOTH",
"82 680 OFFCURVE",
"75 672 OFFCURVE",
"75 657 CURVE SMOOTH",
"75 23 LINE SMOOTH",
"75 8 OFFCURVE",
"82 0 OFFCURVE",
"98 0 CURVE SMOOTH"
);
},
{
closed = 1;
nodes = (
"110 765 LINE SMOOTH",
"120 765 OFFCURVE",
"122 771 OFFCURVE",
"118 781 CURVE SMOOTH",
"67 922 LINE SMOOTH",
"63 933 OFFCURVE",
"59 936 OFFCURVE",
"45 936 CURVE SMOOTH",
"18 936 LINE SMOOTH",
"6 936 OFFCURVE",
"3 930 OFFCURVE",
"8 920 CURVE SMOOTH",
"75 776 LINE SMOOTH",
"79 768 OFFCURVE",
"84 765 OFFCURVE",
"95 765 CURVE SMOOTH"
);
}
);
width = 204;
}
);
note = Igrave;
unicode = 00CC;
},
{
glyphname = Ihookabove;
lastChange = "2015-07-18 10:04:44 +0000";
layers = (
{
layerId = "63696E93-80B4-4894-80FD-D92E433586BC";
name = "Light ExtraLight";
paths = (
{
closed = 1;
nodes = (
"104 737 LINE SMOOTH",
"120 737 OFFCURVE",
"127 745 OFFCURVE",
"127 760 CURVE SMOOTH",
"127 787 LINE",
"179 787 OFFCURVE",
"231 819 OFFCURVE",
"231 878 CURVE SMOOTH",
"231 931 OFFCURVE",
"193 968 OFFCURVE",
"110 968 CURVE SMOOTH",
"72 968 OFFCURVE",
"33 958 OFFCURVE",
"8 942 CURVE",
"4 939 OFFCURVE",
"3 938 OFFCURVE",
"5 933 CURVE",
"19 903 LINE",
"20 900 OFFCURVE",
"23 900 OFFCURVE",
"27 902 CURVE SMOOTH",
"54 916 OFFCURVE",
"78 922 OFFCURVE",
"110 922 CURVE SMOOTH",
"156 922 OFFCURVE",
"179 909 OFFCURVE",
"179 878 CURVE SMOOTH",
"179 845 OFFCURVE",
"163 829 OFFCURVE",
"108 829 CURVE SMOOTH",
"86 829 OFFCURVE",
"73 818 OFFCURVE",
"73 798 CURVE SMOOTH",
"73 760 LINE SMOOTH",
"73 745 OFFCURVE",
"80 737 OFFCURVE",
"96 737 CURVE SMOOTH"
);
},
{
closed = 1;
nodes = (
"106 0 LINE SMOOTH",
"122 0 OFFCURVE",
"129 8 OFFCURVE",
"129 23 CURVE SMOOTH",
"129 657 LINE SMOOTH",
"129 672 OFFCURVE",
"122 680 OFFCURVE",
"106 680 CURVE SMOOTH",
"98 680 LINE SMOOTH",
"82 680 OFFCURVE",
"75 672 OFFCURVE",
"75 657 CURVE SMOOTH",
"75 23 LINE SMOOTH",
"75 8 OFFCURVE",
"82 0 OFFCURVE",
"98 0 CURVE SMOOTH"
);
}
);
width = 204;
}
);
note = Ihookabove;
unicode = 1EC8;
},
{
glyphname = Imacron;
lastChange = "2015-07-18 10:04:44 +0000";
layers = (
{
layerId = "63696E93-80B4-4894-80FD-D92E433586BC";
name = "Light ExtraLight";
paths = (
{
closed = 1;
nodes = (
"106 0 LINE SMOOTH",
"122 0 OFFCURVE",
"129 8 OFFCURVE",
"129 23 CURVE SMOOTH",
"129 657 LINE SMOOTH",
"129 672 OFFCURVE",
"122 680 OFFCURVE",
"106 680 CURVE SMOOTH",
"98 680 LINE SMOOTH",
"82 680 OFFCURVE",
"75 672 OFFCURVE",
"75 657 CURVE SMOOTH",
"75 23 LINE SMOOTH",
"75 8 OFFCURVE",
"82 0 OFFCURVE",
"98 0 CURVE SMOOTH"
);
},
{
closed = 1;
nodes = (
"241 768 LINE SMOOTH",
"256 768 OFFCURVE",
"264 772 OFFCURVE",
"264 788 CURVE SMOOTH",
"264 795 LINE SMOOTH",
"264 811 OFFCURVE",
"256 817 OFFCURVE",
"241 817 CURVE SMOOTH",
"-37 817 LINE SMOOTH",
"-52 817 OFFCURVE",
"-60 811 OFFCURVE",
"-60 795 CURVE SMOOTH",
"-60 788 LINE SMOOTH",
"-60 772 OFFCURVE",
"-52 768 OFFCURVE",
"-37 768 CURVE SMOOTH"
);
}
);
width = 204;
}
);
note = Imacron;
unicode = 012A;
},
{
glyphname = Iogonek;
lastChange = "2015-07-18 10:04:44 +0000";
layers = (
{
layerId = "63696E93-80B4-4894-80FD-D92E433586BC";
name = "Light ExtraLight";
paths = (
{
closed = 1;
nodes = (
"106 0 LINE SMOOTH",
"122 0 OFFCURVE",
"129 8 OFFCURVE",
"129 23 CURVE SMOOTH",
"129 657 LINE SMOOTH",
"129 672 OFFCURVE",
"122 680 OFFCURVE",
"106 680 CURVE SMOOTH",
"98 680 LINE SMOOTH",
"82 680 OFFCURVE",
"75 672 OFFCURVE",
"75 657 CURVE SMOOTH",
"75 23 LINE SMOOTH",
"75 8 OFFCURVE",
"82 0 OFFCURVE",
"98 0 CURVE SMOOTH"
);
},
{
closed = 1;
nodes = (
"97 -186 OFFCURVE",
"117 -184 OFFCURVE",
"128 -178 CURVE",
"140 -172 OFFCURVE",
"141 -168 OFFCURVE",
"138 -161 CURVE SMOOTH",
"128 -139 LINE SMOOTH",
"124 -130 OFFCURVE",
"121 -131 OFFCURVE",
"114 -134 CURVE",
"108 -137 OFFCURVE",
"101 -138 OFFCURVE",
"92 -138 CURVE SMOOTH",
"77 -138 OFFCURVE",
"68 -128 OFFCURVE",
"68 -111 CURVE SMOOTH",
"68 -82 OFFCURVE",
"79 -55 OFFCURVE",
"125 1 CURVE SMOOTH",
"132 9 OFFCURVE",
"127 17 OFFCURVE",
"115 17 CURVE SMOOTH",
"94 17 LINE SMOOTH",
"81 17 OFFCURVE",
"77 13 OFFCURVE",
"69 4 CURVE SMOOTH",
"25 -46 OFFCURVE",
"8 -83 OFFCURVE",
"8 -119 CURVE SMOOTH",
"8 -155 OFFCURVE",
"32 -186 OFFCURVE",
"81 -186 CURVE SMOOTH"
);
}
);
width = 204;
}
);
note = Iogonek;
unicode = 012E;
},
{
glyphname = Itilde;
lastChange = "2015-07-18 10:04:45 +0000";
layers = (
{
layerId = "63696E93-80B4-4894-80FD-D92E433586BC";
name = "Light ExtraLight";
paths = (
{
closed = 1;
nodes = (
"220 738 OFFCURVE",
"256 755 OFFCURVE",
"281 786 CURVE SMOOTH",
"295 803 OFFCURVE",
"293 813 OFFCURVE",
"284 821 CURVE SMOOTH",
"269 835 OFFCURVE",
"256 831 OFFCURVE",
"243 815 CURVE SMOOTH",
"226 795 OFFCURVE",
"207 784 OFFCURVE",
"175 784 CURVE SMOOTH",
"115 784 OFFCURVE",
"107 841 OFFCURVE",
"26 841 CURVE SMOOTH",
"-17 841 OFFCURVE",
"-53 824 OFFCURVE",
"-78 793 CURVE SMOOTH",
"-92 776 OFFCURVE",
"-90 766 OFFCURVE",
"-81 758 CURVE SMOOTH",
"-66 744 OFFCURVE",
"-53 748 OFFCURVE",
"-40 764 CURVE SMOOTH",
"-23 784 OFFCURVE",
"-4 795 OFFCURVE",
"28 795 CURVE SMOOTH",
"86 795 OFFCURVE",
"100 738 OFFCURVE",
"177 738 CURVE SMOOTH"
);
},
{
closed = 1;
nodes = (
"106 0 LINE SMOOTH",
"122 0 OFFCURVE",
"129 8 OFFCURVE",
"129 23 CURVE SMOOTH",
"129 657 LINE SMOOTH",
"129 672 OFFCURVE",
"122 680 OFFCURVE",
"106 680 CURVE SMOOTH",
"98 680 LINE SMOOTH",
"82 680 OFFCURVE",
"75 672 OFFCURVE",
"75 657 CURVE SMOOTH",
"75 23 LINE SMOOTH",
"75 8 OFFCURVE",
"82 0 OFFCURVE",
"98 0 CURVE SMOOTH"
);
}
);
width = 204;
}
);
note = Itilde;
unicode = 0128;
},
{
glyphname = J;
lastChange = "2015-07-18 10:04:40 +0000";
layers = (
{
layerId = "63696E93-80B4-4894-80FD-D92E433586BC";
name = "Light ExtraLight";
paths = (
{
closed = 1;
nodes = (
"331 -15 OFFCURVE",
"393 66 OFFCURVE",
"393 174 CURVE SMOOTH",
"393 657 LINE SMOOTH",
"393 672 OFFCURVE",
"386 680 OFFCURVE",
"370 680 CURVE SMOOTH",
"362 680 LINE SMOOTH",
"346 680 OFFCURVE",
"339 672 OFFCURVE",
"339 657 CURVE SMOOTH",
"339 172 LINE SMOOTH",
"339 77 OFFCURVE",
"292 31 OFFCURVE",
"196 31 CURVE SMOOTH",
"148 31 OFFCURVE",
"99 42 OFFCURVE",
"66 64 CURVE SMOOTH",
"58 69 OFFCURVE",
"56 68 OFFCURVE",
"52 61 CURVE",
"38 39 LINE SMOOTH",
"33 31 OFFCURVE",
"37 26 OFFCURVE",
"43 23 CURVE",
"89 -5 OFFCURVE",
"144 -15 OFFCURVE",
"204 -15 CURVE SMOOTH"
);
}
);
width = 463;
}
);
note = J;
unicode = 004A;
},
{
glyphname = Jcircumflex;
lastChange = "2015-07-18 10:04:44 +0000";
layers = (
{
layerId = "63696E93-80B4-4894-80FD-D92E433586BC";
name = "Light ExtraLight";
paths = (
{
closed = 1;
nodes = (
"331 -15 OFFCURVE",
"393 66 OFFCURVE",
"393 174 CURVE SMOOTH",
"393 657 LINE SMOOTH",
"393 672 OFFCURVE",
"386 680 OFFCURVE",
"370 680 CURVE SMOOTH",
"362 680 LINE SMOOTH",
"346 680 OFFCURVE",
"339 672 OFFCURVE",
"339 657 CURVE SMOOTH",
"339 172 LINE SMOOTH",
"339 77 OFFCURVE",
"292 31 OFFCURVE",
"196 31 CURVE SMOOTH",
"148 31 OFFCURVE",
"99 42 OFFCURVE",
"66 64 CURVE SMOOTH",
"58 69 OFFCURVE",
"56 68 OFFCURVE",
"52 61 CURVE",
"38 39 LINE SMOOTH",
"33 31 OFFCURVE",
"37 26 OFFCURVE",
"43 23 CURVE",
"89 -5 OFFCURVE",
"144 -15 OFFCURVE",
"204 -15 CURVE SMOOTH"
);
},
{
closed = 1;
nodes = (
"258 758 LINE SMOOTH",
"274 758 OFFCURVE",
"277 765 OFFCURVE",
"284 775 CURVE SMOOTH",
"368 897 LINE",
"452 775 LINE SMOOTH",
"459 765 OFFCURVE",
"462 758 OFFCURVE",
"478 758 CURVE SMOOTH",
"497 758 LINE SMOOTH",
"507 758 OFFCURVE",
"516 767 OFFCURVE",
"509 776 CURVE",
"397 932 LINE SMOOTH",
"389 943 OFFCURVE",
"386 949 OFFCURVE",
"374 949 CURVE SMOOTH",
"362 949 LINE SMOOTH",
"350 949 OFFCURVE",
"347 943 OFFCURVE",
"339 932 CURVE SMOOTH",
"227 776 LINE",
"220 767 OFFCURVE",
"229 758 OFFCURVE",
"239 758 CURVE SMOOTH"
);
}
);
width = 537;
}
);
note = Jcircumflex;
unicode = 0134;
},
{
glyphname = K;
lastChange = "2015-07-18 10:04:43 +0000";
layers = (
{
layerId = "63696E93-80B4-4894-80FD-D92E433586BC";
name = "Light ExtraLight";
paths = (
{
closed = 1;
nodes = (
"544 0 LINE SMOOTH",
"550 0 OFFCURVE",
"554 2 OFFCURVE",
"554 7 CURVE SMOOTH",
"554 11 OFFCURVE",
"552 13 OFFCURVE",
"547 18 CURVE SMOOTH",
"238 340 LINE",
"542 662 LINE SMOOTH",
"547 667 OFFCURVE",
"549 669 OFFCURVE",
"549 673 CURVE SMOOTH",
"549 678 OFFCURVE",
"545 680 OFFCURVE",
"539 680 CURVE SMOOTH",
"501 680 LINE SMOOTH",
"492 680 OFFCURVE",
"490 679 OFFCURVE",
"485 674 CURVE SMOOTH",
"197 369 LINE SMOOTH",
"188 359 OFFCURVE",
"181 354 OFFCURVE",
"181 340 CURVE SMOOTH",
"181 326 OFFCURVE",
"188 321 OFFCURVE",
"197 311 CURVE SMOOTH",
"490 6 LINE SMOOTH",
"495 1 OFFCURVE",
"497 0 OFFCURVE",
"506 0 CURVE SMOOTH"
);
},
{
closed = 1;
nodes = (
"106 0 LINE SMOOTH",
"122 0 OFFCURVE",
"129 8 OFFCURVE",
"129 23 CURVE SMOOTH",
"129 657 LINE SMOOTH",
"129 672 OFFCURVE",
"122 680 OFFCURVE",
"106 680 CURVE SMOOTH",
"98 680 LINE SMOOTH",
"82 680 OFFCURVE",
"75 672 OFFCURVE",
"75 657 CURVE SMOOTH",
"75 23 LINE SMOOTH",
"75 8 OFFCURVE",
"82 0 OFFCURVE",
"98 0 CURVE SMOOTH"
);
}
);
width = 609;
}
);
note = K;
unicode = 004B;
},
{
glyphname = Kcommaaccent;
lastChange = "2015-07-18 10:04:43 +0000";
layers = (
{
layerId = "63696E93-80B4-4894-80FD-D92E433586BC";
name = "Light ExtraLight";
paths = (
{
closed = 1;
nodes = (
"544 0 LINE SMOOTH",
"550 0 OFFCURVE",
"554 2 OFFCURVE",
"554 7 CURVE SMOOTH",
"554 11 OFFCURVE",
"552 13 OFFCURVE",
"547 18 CURVE SMOOTH",
"238 340 LINE",
"542 662 LINE SMOOTH",
"547 667 OFFCURVE",
"549 669 OFFCURVE",
"549 673 CURVE SMOOTH",
"549 678 OFFCURVE",
"545 680 OFFCURVE",
"539 680 CURVE SMOOTH",
"501 680 LINE SMOOTH",
"492 680 OFFCURVE",
"490 679 OFFCURVE",
"485 674 CURVE SMOOTH",
"197 369 LINE SMOOTH",
"188 359 OFFCURVE",
"181 354 OFFCURVE",
"181 340 CURVE SMOOTH",
"181 326 OFFCURVE",
"188 321 OFFCURVE",
"197 311 CURVE SMOOTH",
"490 6 LINE SMOOTH",
"495 1 OFFCURVE",
"497 0 OFFCURVE",
"506 0 CURVE SMOOTH"
);
},
{
closed = 1;
nodes = (
"202 -211 LINE SMOOTH",
"213 -211 OFFCURVE",
"218 -208 OFFCURVE",
"222 -200 CURVE",
"286 -52 LINE SMOOTH",
"290 -42 OFFCURVE",
"288 -36 OFFCURVE",
"276 -36 CURVE SMOOTH",
"252 -36 LINE SMOOTH",
"238 -36 OFFCURVE",
"234 -39 OFFCURVE",
"230 -50 CURVE SMOOTH",
"182 -195 LINE SMOOTH",
"179 -205 OFFCURVE",
"180 -211 OFFCURVE",
"190 -211 CURVE SMOOTH"
);
},
{
closed = 1;
nodes = (
"106 0 LINE SMOOTH",
"122 0 OFFCURVE",
"129 8 OFFCURVE",
"129 23 CURVE SMOOTH",
"129 657 LINE SMOOTH",
"129 672 OFFCURVE",
"122 680 OFFCURVE",
"106 680 CURVE SMOOTH",
"98 680 LINE SMOOTH",
"82 680 OFFCURVE",
"75 672 OFFCURVE",
"75 657 CURVE SMOOTH",
"75 23 LINE SMOOTH",
"75 8 OFFCURVE",
"82 0 OFFCURVE",
"98 0 CURVE SMOOTH"
);
}
);
width = 609;
}
);
note = Kcommaaccent;
unicode = 0136;
},
{
glyphname = L;
lastChange = "2015-07-18 10:04:40 +0000";
layers = (
{
layerId = "63696E93-80B4-4894-80FD-D92E433586BC";
name = "Light ExtraLight";
paths = (
{
closed = 1;
nodes = (
"484 0 LINE SMOOTH",
"499 0 OFFCURVE",
"507 4 OFFCURVE",
"507 20 CURVE SMOOTH",
"507 27 LINE SMOOTH",
"507 43 OFFCURVE",
"499 49 OFFCURVE",
"484 49 CURVE SMOOTH",
"129 49 LINE",
"129 657 LINE SMOOTH",
"129 672 OFFCURVE",
"122 680 OFFCURVE",
"106 680 CURVE SMOOTH",
"98 680 LINE SMOOTH",
"82 680 OFFCURVE",
"75 672 OFFCURVE",
"75 657 CURVE SMOOTH",
"75 23 LINE SMOOTH",
"75 8 OFFCURVE",
"82 0 OFFCURVE",
"98 0 CURVE SMOOTH"
);
}
);
width = 542;
}
);
note = L;
unicode = 004C;
},
{
glyphname = Lacute;
lastChange = "2015-07-18 10:04:46 +0000";
layers = (
{
layerId = "63696E93-80B4-4894-80FD-D92E433586BC";
name = "Light ExtraLight";
paths = (
{
closed = 1;
nodes = (
"484 0 LINE SMOOTH",
"499 0 OFFCURVE",
"507 4 OFFCURVE",
"507 20 CURVE SMOOTH",
"507 27 LINE SMOOTH",
"507 43 OFFCURVE",
"499 49 OFFCURVE",
"484 49 CURVE SMOOTH",
"129 49 LINE",
"129 657 LINE SMOOTH",
"129 672 OFFCURVE",
"122 680 OFFCURVE",
"106 680 CURVE SMOOTH",
"98 680 LINE SMOOTH",
"82 680 OFFCURVE",
"75 672 OFFCURVE",
"75 657 CURVE SMOOTH",
"75 23 LINE SMOOTH",
"75 8 OFFCURVE",
"82 0 OFFCURVE",
"98 0 CURVE SMOOTH"
);
},
{
closed = 1;
nodes = (
"106 741 LINE SMOOTH",
"117 741 OFFCURVE",
"122 744 OFFCURVE",
"126 752 CURVE SMOOTH",
"193 896 LINE SMOOTH",
"198 906 OFFCURVE",
"195 912 OFFCURVE",
"183 912 CURVE SMOOTH",
"156 912 LINE SMOOTH",
"142 912 OFFCURVE",
"138 909 OFFCURVE",
"134 898 CURVE SMOOTH",
"83 757 LINE SMOOTH",
"79 747 OFFCURVE",
"81 741 OFFCURVE",
"91 741 CURVE SMOOTH"
);
}
);
width = 542;
}
);
note = Lacute;
unicode = 0139;
},
{
glyphname = Lcaron;
lastChange = "2015-07-18 10:04:44 +0000";
layers = (
{
layerId = "63696E93-80B4-4894-80FD-D92E433586BC";
name = "Light ExtraLight";
paths = (
{
closed = 1;
nodes = (
"484 0 LINE SMOOTH",
"499 0 OFFCURVE",
"507 4 OFFCURVE",
"507 20 CURVE SMOOTH",
"507 27 LINE SMOOTH",
"507 43 OFFCURVE",
"499 49 OFFCURVE",
"484 49 CURVE SMOOTH",
"129 49 LINE",
"129 657 LINE SMOOTH",
"129 672 OFFCURVE",
"122 680 OFFCURVE",
"106 680 CURVE SMOOTH",
"98 680 LINE SMOOTH",
"82 680 OFFCURVE",
"75 672 OFFCURVE",
"75 657 CURVE SMOOTH",
"75 23 LINE SMOOTH",
"75 8 OFFCURVE",
"82 0 OFFCURVE",
"98 0 CURVE SMOOTH"
);
},
{
closed = 1;
nodes = (
"332 552 LINE SMOOTH",
"343 552 OFFCURVE",
"348 555 OFFCURVE",
"352 563 CURVE",
"416 711 LINE SMOOTH",
"420 721 OFFCURVE",
"418 727 OFFCURVE",
"406 727 CURVE SMOOTH",
"382 727 LINE SMOOTH",
"368 727 OFFCURVE",
"364 724 OFFCURVE",
"360 713 CURVE SMOOTH",
"312 568 LINE SMOOTH",
"309 558 OFFCURVE",
"310 552 OFFCURVE",
"320 552 CURVE SMOOTH"
);
}
);
width = 542;
}
);
note = Lcaron;
unicode = 013D;
},
{
glyphname = Lcommaaccent;
lastChange = "2015-07-18 10:04:45 +0000";
layers = (
{
layerId = "63696E93-80B4-4894-80FD-D92E433586BC";
name = "Light ExtraLight";
paths = (
{
closed = 1;
nodes = (
"484 0 LINE SMOOTH",
"499 0 OFFCURVE",
"507 4 OFFCURVE",
"507 20 CURVE SMOOTH",
"507 27 LINE SMOOTH",
"507 43 OFFCURVE",
"499 49 OFFCURVE",
"484 49 CURVE SMOOTH",
"129 49 LINE",
"129 657 LINE SMOOTH",
"129 672 OFFCURVE",
"122 680 OFFCURVE",
"106 680 CURVE SMOOTH",
"98 680 LINE SMOOTH",
"82 680 OFFCURVE",
"75 672 OFFCURVE",
"75 657 CURVE SMOOTH",
"75 23 LINE SMOOTH",
"75 8 OFFCURVE",
"82 0 OFFCURVE",
"98 0 CURVE SMOOTH"
);
},
{
closed = 1;
nodes = (
"231 -211 LINE SMOOTH",
"242 -211 OFFCURVE",
"247 -208 OFFCURVE",
"251 -200 CURVE",
"315 -52 LINE SMOOTH",
"319 -42 OFFCURVE",
"317 -36 OFFCURVE",
"305 -36 CURVE SMOOTH",
"281 -36 LINE SMOOTH",
"267 -36 OFFCURVE",
"263 -39 OFFCURVE",
"259 -50 CURVE SMOOTH",
"211 -195 LINE SMOOTH",
"208 -205 OFFCURVE",
"209 -211 OFFCURVE",
"219 -211 CURVE SMOOTH"
);
}
);
width = 542;
}
);
note = Lcommaaccent;
unicode = 013B;
},
{
glyphname = Ldot;
lastChange = "2015-07-18 10:04:45 +0000";
layers = (
{
layerId = "63696E93-80B4-4894-80FD-D92E433586BC";
name = "Light ExtraLight";
paths = (
{
closed = 1;
nodes = (
"484 0 LINE SMOOTH",
"499 0 OFFCURVE",
"507 4 OFFCURVE",
"507 20 CURVE SMOOTH",
"507 27 LINE SMOOTH",
"507 43 OFFCURVE",
"499 49 OFFCURVE",
"484 49 CURVE SMOOTH",
"129 49 LINE",
"129 657 LINE SMOOTH",
"129 672 OFFCURVE",
"122 680 OFFCURVE",
"106 680 CURVE SMOOTH",
"98 680 LINE SMOOTH",
"82 680 OFFCURVE",
"75 672 OFFCURVE",
"75 657 CURVE SMOOTH",
"75 23 LINE SMOOTH",
"75 8 OFFCURVE",
"82 0 OFFCURVE",
"98 0 CURVE SMOOTH"
);
},
{
closed = 1;
nodes = (
"324 281 LINE SMOOTH",
"344 281 OFFCURVE",
"357 297 OFFCURVE",
"357 316 CURVE SMOOTH",
"357 329 LINE SMOOTH",
"357 348 OFFCURVE",
"343 364 OFFCURVE",
"324 364 CURVE SMOOTH",
"310 364 LINE SMOOTH",
"291 364 OFFCURVE",
"277 348 OFFCURVE",
"277 329 CURVE SMOOTH",
"277 316 LINE SMOOTH",
"277 297 OFFCURVE",
"291 281 OFFCURVE",
"310 281 CURVE SMOOTH"
);
}
);
width = 542;
}
);
note = Ldot;
unicode = 013F;
},
{
glyphname = Ldotbelow;
lastChange = "2015-07-18 10:04:44 +0000";
layers = (
{
layerId = "63696E93-80B4-4894-80FD-D92E433586BC";
name = "Light ExtraLight";
paths = (
{
closed = 1;
nodes = (
"484 0 LINE SMOOTH",
"499 0 OFFCURVE",
"507 4 OFFCURVE",
"507 20 CURVE SMOOTH",
"507 27 LINE SMOOTH",
"507 43 OFFCURVE",
"499 49 OFFCURVE",
"484 49 CURVE SMOOTH",
"129 49 LINE",
"129 657 LINE SMOOTH",
"129 672 OFFCURVE",
"122 680 OFFCURVE",
"106 680 CURVE SMOOTH",
"98 680 LINE SMOOTH",
"82 680 OFFCURVE",
"75 672 OFFCURVE",
"75 657 CURVE SMOOTH",
"75 23 LINE SMOOTH",
"75 8 OFFCURVE",
"82 0 OFFCURVE",
"98 0 CURVE SMOOTH"
);
},
{
closed = 1;
nodes = (
"298 -161 LINE SMOOTH",
"318 -161 OFFCURVE",
"331 -145 OFFCURVE",
"331 -126 CURVE SMOOTH",
"331 -113 LINE SMOOTH",
"331 -94 OFFCURVE",
"317 -78 OFFCURVE",
"298 -78 CURVE SMOOTH",
"284 -78 LINE SMOOTH",
"265 -78 OFFCURVE",
"251 -94 OFFCURVE",
"251 -113 CURVE SMOOTH",
"251 -126 LINE SMOOTH",
"251 -145 OFFCURVE",
"265 -161 OFFCURVE",
"284 -161 CURVE SMOOTH"
);
}
);
width = 542;
}
);
note = Ldotbelow;
unicode = 1E36;
},
{
glyphname = Ldotbelowmacron;
lastChange = "2015-07-18 10:04:45 +0000";
layers = (
{
layerId = "63696E93-80B4-4894-80FD-D92E433586BC";
name = "Light ExtraLight";
paths = (
{
closed = 1;
nodes = (
"517 0 LINE SMOOTH",
"532 0 OFFCURVE",
"540 4 OFFCURVE",
"540 20 CURVE SMOOTH",
"540 27 LINE SMOOTH",
"540 43 OFFCURVE",
"532 49 OFFCURVE",
"517 49 CURVE SMOOTH",
"162 49 LINE",
"162 657 LINE SMOOTH",
"162 672 OFFCURVE",
"155 680 OFFCURVE",
"139 680 CURVE SMOOTH",
"131 680 LINE SMOOTH",
"115 680 OFFCURVE",
"108 672 OFFCURVE",
"108 657 CURVE SMOOTH",
"108 23 LINE SMOOTH",
"108 8 OFFCURVE",
"115 0 OFFCURVE",
"131 0 CURVE SMOOTH"
);
},
{
closed = 1;
nodes = (
"331 -161 LINE SMOOTH",
"351 -161 OFFCURVE",
"364 -145 OFFCURVE",
"364 -126 CURVE SMOOTH",
"364 -113 LINE SMOOTH",
"364 -94 OFFCURVE",
"350 -78 OFFCURVE",
"331 -78 CURVE SMOOTH",
"317 -78 LINE SMOOTH",
"298 -78 OFFCURVE",
"284 -94 OFFCURVE",
"284 -113 CURVE SMOOTH",
"284 -126 LINE SMOOTH",
"284 -145 OFFCURVE",
"298 -161 OFFCURVE",
"317 -161 CURVE SMOOTH"
);
},
{
closed = 1;
nodes = (
"276 789 LINE SMOOTH",
"291 789 OFFCURVE",
"299 793 OFFCURVE",
"299 809 CURVE SMOOTH",
"299 816 LINE SMOOTH",
"299 832 OFFCURVE",
"291 838 OFFCURVE",
"276 838 CURVE SMOOTH",
"-2 838 LINE SMOOTH",
"-17 838 OFFCURVE",
"-25 832 OFFCURVE",
"-25 816 CURVE SMOOTH",
"-25 809 LINE SMOOTH",
"-25 793 OFFCURVE",
"-17 789 OFFCURVE",
"-2 789 CURVE SMOOTH"
);
}
);
width = 575;
}
);
note = Ldotbelowmacron;
unicode = 1E38;
},
{
glyphname = Llinebelow;
lastChange = "2015-07-18 10:04:44 +0000";
layers = (
{
layerId = "63696E93-80B4-4894-80FD-D92E433586BC";
name = "Light ExtraLight";
paths = (
{
closed = 1;
nodes = (
"484 0 LINE SMOOTH",
"499 0 OFFCURVE",
"507 4 OFFCURVE",
"507 20 CURVE SMOOTH",
"507 27 LINE SMOOTH",
"507 43 OFFCURVE",
"499 49 OFFCURVE",
"484 49 CURVE SMOOTH",
"129 49 LINE",
"129 657 LINE SMOOTH",
"129 672 OFFCURVE",
"122 680 OFFCURVE",
"106 680 CURVE SMOOTH",
"98 680 LINE SMOOTH",
"82 680 OFFCURVE",
"75 672 OFFCURVE",
"75 657 CURVE SMOOTH",
"75 23 LINE SMOOTH",
"75 8 OFFCURVE",
"82 0 OFFCURVE",
"98 0 CURVE SMOOTH"
);
},
{
closed = 1;
nodes = (
"423 -134 LINE SMOOTH",
"438 -134 OFFCURVE",
"446 -130 OFFCURVE",
"446 -114 CURVE SMOOTH",
"446 -107 LINE SMOOTH",
"446 -91 OFFCURVE",
"438 -85 OFFCURVE",
"423 -85 CURVE SMOOTH",
"145 -85 LINE SMOOTH",
"130 -85 OFFCURVE",
"122 -91 OFFCURVE",
"122 -107 CURVE SMOOTH",
"122 -114 LINE SMOOTH",
"122 -130 OFFCURVE",
"130 -134 OFFCURVE",
"145 -134 CURVE SMOOTH"
);
}
);
width = 542;
}
);
note = Llinebelow;
unicode = 1E3A;
},
{
glyphname = Lslash;
lastChange = "2015-07-18 10:04:44 +0000";
layers = (
{
layerId = "63696E93-80B4-4894-80FD-D92E433586BC";
name = "Light ExtraLight";
paths = (
{
closed = 1;
nodes = (
"557 0 LINE SMOOTH",
"572 0 OFFCURVE",
"580 4 OFFCURVE",
"580 20 CURVE SMOOTH",
"580 27 LINE SMOOTH",
"580 43 OFFCURVE",
"572 49 OFFCURVE",
"557 49 CURVE SMOOTH",
"202 49 LINE",
"202 657 LINE SMOOTH",
"202 672 OFFCURVE",
"195 680 OFFCURVE",
"179 680 CURVE SMOOTH",
"171 680 LINE SMOOTH",
"155 680 OFFCURVE",
"148 672 OFFCURVE",
"148 657 CURVE SMOOTH",
"148 23 LINE SMOOTH",
"148 8 OFFCURVE",
"155 0 OFFCURVE",
"171 0 CURVE SMOOTH"
);
},
{
closed = 1;
nodes = (
"343 390 LINE SMOOTH",
"356 397 OFFCURVE",
"361 405 OFFCURVE",
"353 418 CURVE",
"349 424 LINE",
"341 438 OFFCURVE",
"332 440 OFFCURVE",
"319 432 CURVE SMOOTH",
"38 271 LINE SMOOTH",
"25 264 OFFCURVE",
"22 255 OFFCURVE",
"30 241 CURVE",
"33 235 LINE",
"41 221 OFFCURVE",
"50 221 OFFCURVE",
"63 229 CURVE SMOOTH"
);
}
);
width = 615;
}
);
note = Lslash;
unicode = 0141;
},
{
glyphname = M;
lastChange = "2015-07-18 10:04:40 +0000";
layers = (
{
layerId = "63696E93-80B4-4894-80FD-D92E433586BC";
name = "Light ExtraLight";
paths = (
{
closed = 1;
nodes = (
"106 0 LINE SMOOTH",
"122 0 OFFCURVE",
"129 8 OFFCURVE",
"129 23 CURVE SMOOTH",
"129 561 LINE",
"375 14 LINE SMOOTH",
"379 5 OFFCURVE",
"386 0 OFFCURVE",
"397 0 CURVE SMOOTH",
"409 0 OFFCURVE",
"415 5 OFFCURVE",
"419 14 CURVE SMOOTH",
"665 561 LINE",
"665 23 LINE SMOOTH",
"665 8 OFFCURVE",
"672 0 OFFCURVE",
"688 0 CURVE SMOOTH",
"696 0 LINE SMOOTH",
"712 0 OFFCURVE",
"719 8 OFFCURVE",
"719 23 CURVE SMOOTH",
"719 657 LINE SMOOTH",
"719 672 OFFCURVE",
"712 680 OFFCURVE",
"696 680 CURVE SMOOTH",
"682 680 LINE SMOOTH",
"669 680 OFFCURVE",
"662 679 OFFCURVE",
"656 665 CURVE SMOOTH",
"397 84 LINE",
"138 665 LINE SMOOTH",
"132 679 OFFCURVE",
"125 680 OFFCURVE",
"112 680 CURVE SMOOTH",
"98 680 LINE SMOOTH",
"82 680 OFFCURVE",
"75 672 OFFCURVE",
"75 657 CURVE SMOOTH",
"75 23 LINE SMOOTH",
"75 8 OFFCURVE",
"82 0 OFFCURVE",
"98 0 CURVE SMOOTH"
);
}
);
width = 794;
}
);
note = M;
unicode = 004D;
},
{
glyphname = Mdotbelow;
lastChange = "2015-07-18 10:04:43 +0000";
layers = (
{
layerId = "63696E93-80B4-4894-80FD-D92E433586BC";
name = "Light ExtraLight";
paths = (
{
closed = 1;
nodes = (
"106 0 LINE SMOOTH",
"122 0 OFFCURVE",
"129 8 OFFCURVE",
"129 23 CURVE SMOOTH",
"129 561 LINE",
"375 14 LINE SMOOTH",
"379 5 OFFCURVE",
"386 0 OFFCURVE",
"397 0 CURVE SMOOTH",
"409 0 OFFCURVE",
"415 5 OFFCURVE",
"419 14 CURVE SMOOTH",
"665 561 LINE",
"665 23 LINE SMOOTH",
"665 8 OFFCURVE",
"672 0 OFFCURVE",
"688 0 CURVE SMOOTH",
"696 0 LINE SMOOTH",
"712 0 OFFCURVE",
"719 8 OFFCURVE",
"719 23 CURVE SMOOTH",
"719 657 LINE SMOOTH",
"719 672 OFFCURVE",
"712 680 OFFCURVE",
"696 680 CURVE SMOOTH",
"682 680 LINE SMOOTH",
"669 680 OFFCURVE",
"662 679 OFFCURVE",
"656 665 CURVE SMOOTH",
"397 84 LINE",
"138 665 LINE SMOOTH",
"132 679 OFFCURVE",
"125 680 OFFCURVE",
"112 680 CURVE SMOOTH",
"98 680 LINE SMOOTH",
"82 680 OFFCURVE",
"75 672 OFFCURVE",
"75 657 CURVE SMOOTH",
"75 23 LINE SMOOTH",
"75 8 OFFCURVE",
"82 0 OFFCURVE",
"98 0 CURVE SMOOTH"
);
},
{
closed = 1;
nodes = (
"404 -161 LINE SMOOTH",
"424 -161 OFFCURVE",
"437 -145 OFFCURVE",
"437 -126 CURVE SMOOTH",
"437 -113 LINE SMOOTH",
"437 -94 OFFCURVE",
"423 -78 OFFCURVE",
"404 -78 CURVE SMOOTH",
"390 -78 LINE SMOOTH",
"371 -78 OFFCURVE",
"357 -94 OFFCURVE",
"357 -113 CURVE SMOOTH",
"357 -126 LINE SMOOTH",
"357 -145 OFFCURVE",
"371 -161 OFFCURVE",
"390 -161 CURVE SMOOTH"
);
}
);
width = 794;
}
);
note = Mdotbelow;
unicode = 1E42;
},
{
glyphname = N;
lastChange = "2015-07-18 10:04:40 +0000";
layers = (
{
layerId = "63696E93-80B4-4894-80FD-D92E433586BC";
name = "Light ExtraLight";
paths = (
{
closed = 1;
nodes = (
"106 0 LINE SMOOTH",
"122 0 OFFCURVE",
"129 8 OFFCURVE",
"129 23 CURVE SMOOTH",
"129 597 LINE",
"558 15 LINE SMOOTH",
"567 3 OFFCURVE",
"571 0 OFFCURVE",
"584 0 CURVE SMOOTH",
"598 0 LINE SMOOTH",
"614 0 OFFCURVE",
"621 8 OFFCURVE",
"621 23 CURVE SMOOTH",
"621 657 LINE SMOOTH",
"621 672 OFFCURVE",
"614 680 OFFCURVE",
"598 680 CURVE SMOOTH",
"590 680 LINE SMOOTH",
"574 680 OFFCURVE",
"567 672 OFFCURVE",
"567 657 CURVE SMOOTH",
"567 81 LINE",
"138 665 LINE SMOOTH",
"129 677 OFFCURVE",
"125 680 OFFCURVE",
"112 680 CURVE SMOOTH",
"98 680 LINE SMOOTH",
"82 680 OFFCURVE",
"75 672 OFFCURVE",
"75 657 CURVE SMOOTH",
"75 23 LINE SMOOTH",
"75 8 OFFCURVE",
"82 0 OFFCURVE",
"98 0 CURVE SMOOTH"
);
}
);
width = 696;
}
);
note = N;
unicode = 004E;
},
{
glyphname = Nacute;
lastChange = "2015-07-18 10:04:44 +0000";
layers = (
{
layerId = "63696E93-80B4-4894-80FD-D92E433586BC";
name = "Light ExtraLight";
paths = (
{
closed = 1;
nodes = (
"106 0 LINE SMOOTH",
"122 0 OFFCURVE",
"129 8 OFFCURVE",
"129 23 CURVE SMOOTH",
"129 597 LINE",
"558 15 LINE SMOOTH",
"567 3 OFFCURVE",
"571 0 OFFCURVE",
"584 0 CURVE SMOOTH",
"598 0 LINE SMOOTH",
"614 0 OFFCURVE",
"621 8 OFFCURVE",
"621 23 CURVE SMOOTH",
"621 657 LINE SMOOTH",
"621 672 OFFCURVE",
"614 680 OFFCURVE",
"598 680 CURVE SMOOTH",
"590 680 LINE SMOOTH",
"574 680 OFFCURVE",
"567 672 OFFCURVE",
"567 657 CURVE SMOOTH",
"567 81 LINE",
"138 665 LINE SMOOTH",
"129 677 OFFCURVE",
"125 680 OFFCURVE",
"112 680 CURVE SMOOTH",
"98 680 LINE SMOOTH",
"82 680 OFFCURVE",
"75 672 OFFCURVE",
"75 657 CURVE SMOOTH",
"75 23 LINE SMOOTH",
"75 8 OFFCURVE",
"82 0 OFFCURVE",
"98 0 CURVE SMOOTH"
);
},
{
closed = 1;
nodes = (
"353 753 LINE SMOOTH",
"364 753 OFFCURVE",
"369 756 OFFCURVE",
"373 764 CURVE SMOOTH",
"440 908 LINE SMOOTH",
"445 918 OFFCURVE",
"442 924 OFFCURVE",
"430 924 CURVE SMOOTH",
"403 924 LINE SMOOTH",
"389 924 OFFCURVE",
"385 921 OFFCURVE",
"381 910 CURVE SMOOTH",
"330 769 LINE SMOOTH",
"326 759 OFFCURVE",
"328 753 OFFCURVE",
"338 753 CURVE SMOOTH"
);
}
);
width = 696;
}
);
note = Nacute;
unicode = 0143;
},
{
glyphname = Ncaron;
lastChange = "2015-07-18 10:04:44 +0000";
layers = (
{
layerId = "63696E93-80B4-4894-80FD-D92E433586BC";
name = "Light ExtraLight";
paths = (
{
closed = 1;
nodes = (
"106 0 LINE SMOOTH",
"122 0 OFFCURVE",
"129 8 OFFCURVE",
"129 23 CURVE SMOOTH",
"129 597 LINE",
"558 15 LINE SMOOTH",
"567 3 OFFCURVE",
"571 0 OFFCURVE",
"584 0 CURVE SMOOTH",
"598 0 LINE SMOOTH",
"614 0 OFFCURVE",
"621 8 OFFCURVE",
"621 23 CURVE SMOOTH",
"621 657 LINE SMOOTH",
"621 672 OFFCURVE",
"614 680 OFFCURVE",
"598 680 CURVE SMOOTH",
"590 680 LINE SMOOTH",
"574 680 OFFCURVE",
"567 672 OFFCURVE",
"567 657 CURVE SMOOTH",
"567 81 LINE",
"138 665 LINE SMOOTH",
"129 677 OFFCURVE",
"125 680 OFFCURVE",
"112 680 CURVE SMOOTH",
"98 680 LINE SMOOTH",
"82 680 OFFCURVE",
"75 672 OFFCURVE",
"75 657 CURVE SMOOTH",
"75 23 LINE SMOOTH",
"75 8 OFFCURVE",
"82 0 OFFCURVE",
"98 0 CURVE SMOOTH"
);
},
{
closed = 1;
nodes = (
"355 746 LINE SMOOTH",
"367 746 OFFCURVE",
"370 752 OFFCURVE",
"378 763 CURVE SMOOTH",
"490 919 LINE",
"497 928 OFFCURVE",
"488 937 OFFCURVE",
"478 937 CURVE SMOOTH",
"459 937 LINE SMOOTH",
"443 937 OFFCURVE",
"440 930 OFFCURVE",
"433 920 CURVE SMOOTH",
"349 798 LINE",
"265 920 LINE SMOOTH",
"258 930 OFFCURVE",
"255 937 OFFCURVE",
"239 937 CURVE SMOOTH",
"220 937 LINE SMOOTH",
"210 937 OFFCURVE",
"201 928 OFFCURVE",
"208 919 CURVE",
"320 763 LINE SMOOTH",
"328 752 OFFCURVE",
"331 746 OFFCURVE",
"343 746 CURVE SMOOTH"
);
}
);
width = 696;
}
);
note = Ncaron;
unicode = 0147;
},
{
glyphname = Ncommaaccent;
lastChange = "2015-07-18 10:04:44 +0000";
layers = (
{
layerId = "63696E93-80B4-4894-80FD-D92E433586BC";
name = "Light ExtraLight";
paths = (
{
closed = 1;
nodes = (
"106 0 LINE SMOOTH",
"122 0 OFFCURVE",
"129 8 OFFCURVE",
"129 23 CURVE SMOOTH",
"129 597 LINE",
"558 15 LINE SMOOTH",
"567 3 OFFCURVE",
"571 0 OFFCURVE",
"584 0 CURVE SMOOTH",
"598 0 LINE SMOOTH",
"614 0 OFFCURVE",
"621 8 OFFCURVE",
"621 23 CURVE SMOOTH",
"621 657 LINE SMOOTH",
"621 672 OFFCURVE",
"614 680 OFFCURVE",
"598 680 CURVE SMOOTH",
"590 680 LINE SMOOTH",
"574 680 OFFCURVE",
"567 672 OFFCURVE",
"567 657 CURVE SMOOTH",
"567 81 LINE",
"138 665 LINE SMOOTH",
"129 677 OFFCURVE",
"125 680 OFFCURVE",
"112 680 CURVE SMOOTH",
"98 680 LINE SMOOTH",
"82 680 OFFCURVE",
"75 672 OFFCURVE",
"75 657 CURVE SMOOTH",
"75 23 LINE SMOOTH",
"75 8 OFFCURVE",
"82 0 OFFCURVE",
"98 0 CURVE SMOOTH"
);
},
{
closed = 1;
nodes = (
"305 -211 LINE SMOOTH",
"316 -211 OFFCURVE",
"321 -208 OFFCURVE",
"325 -200 CURVE",
"389 -52 LINE SMOOTH",
"393 -42 OFFCURVE",
"391 -36 OFFCURVE",
"379 -36 CURVE SMOOTH",
"355 -36 LINE SMOOTH",
"341 -36 OFFCURVE",
"337 -39 OFFCURVE",
"333 -50 CURVE SMOOTH",
"285 -195 LINE SMOOTH",
"282 -205 OFFCURVE",
"283 -211 OFFCURVE",
"293 -211 CURVE SMOOTH"
);
}
);
width = 696;
}
);
note = Ncommaaccent;
unicode = 0145;
},
{
glyphname = Ndotaccent;
lastChange = "2015-07-18 10:04:46 +0000";
layers = (
{
layerId = "63696E93-80B4-4894-80FD-D92E433586BC";
name = "Light ExtraLight";
paths = (
{
closed = 1;
nodes = (
"106 0 LINE SMOOTH",
"122 0 OFFCURVE",
"129 8 OFFCURVE",
"129 23 CURVE SMOOTH",
"129 597 LINE",
"558 15 LINE SMOOTH",
"567 3 OFFCURVE",
"571 0 OFFCURVE",
"584 0 CURVE SMOOTH",
"598 0 LINE SMOOTH",
"614 0 OFFCURVE",
"621 8 OFFCURVE",
"621 23 CURVE SMOOTH",
"621 657 LINE SMOOTH",
"621 672 OFFCURVE",
"614 680 OFFCURVE",
"598 680 CURVE SMOOTH",
"590 680 LINE SMOOTH",
"574 680 OFFCURVE",
"567 672 OFFCURVE",
"567 657 CURVE SMOOTH",
"567 81 LINE",
"138 665 LINE SMOOTH",
"129 677 OFFCURVE",
"125 680 OFFCURVE",
"112 680 CURVE SMOOTH",
"98 680 LINE SMOOTH",
"82 680 OFFCURVE",
"75 672 OFFCURVE",
"75 657 CURVE SMOOTH",
"75 23 LINE SMOOTH",
"75 8 OFFCURVE",
"82 0 OFFCURVE",
"98 0 CURVE SMOOTH"
);
},
{
closed = 1;
nodes = (
"368 780 LINE SMOOTH",
"388 780 OFFCURVE",
"401 796 OFFCURVE",
"401 815 CURVE SMOOTH",
"401 828 LINE SMOOTH",
"401 847 OFFCURVE",
"387 863 OFFCURVE",
"368 863 CURVE SMOOTH",
"354 863 LINE SMOOTH",
"335 863 OFFCURVE",
"321 847 OFFCURVE",
"321 828 CURVE SMOOTH",
"321 815 LINE SMOOTH",
"321 796 OFFCURVE",
"335 780 OFFCURVE",
"354 780 CURVE SMOOTH"
);
}
);
width = 696;
}
);
note = Ndotaccent;
unicode = 1E44;
},
{
glyphname = Ndotbelow;
lastChange = "2015-07-18 10:04:45 +0000";
layers = (
{
layerId = "63696E93-80B4-4894-80FD-D92E433586BC";
name = "Light ExtraLight";
paths = (
{
closed = 1;
nodes = (
"106 0 LINE SMOOTH",
"122 0 OFFCURVE",
"129 8 OFFCURVE",
"129 23 CURVE SMOOTH",
"129 597 LINE",
"558 15 LINE SMOOTH",
"567 3 OFFCURVE",
"571 0 OFFCURVE",
"584 0 CURVE SMOOTH",
"598 0 LINE SMOOTH",
"614 0 OFFCURVE",
"621 8 OFFCURVE",
"621 23 CURVE SMOOTH",
"621 657 LINE SMOOTH",
"621 672 OFFCURVE",
"614 680 OFFCURVE",
"598 680 CURVE SMOOTH",
"590 680 LINE SMOOTH",
"574 680 OFFCURVE",
"567 672 OFFCURVE",
"567 657 CURVE SMOOTH",
"567 81 LINE",
"138 665 LINE SMOOTH",
"129 677 OFFCURVE",
"125 680 OFFCURVE",
"112 680 CURVE SMOOTH",
"98 680 LINE SMOOTH",
"82 680 OFFCURVE",
"75 672 OFFCURVE",
"75 657 CURVE SMOOTH",
"75 23 LINE SMOOTH",
"75 8 OFFCURVE",
"82 0 OFFCURVE",
"98 0 CURVE SMOOTH"
);
},
{
closed = 1;
nodes = (
"358 -161 LINE SMOOTH",
"378 -161 OFFCURVE",
"391 -145 OFFCURVE",
"391 -126 CURVE SMOOTH",
"391 -113 LINE SMOOTH",
"391 -94 OFFCURVE",
"377 -78 OFFCURVE",
"358 -78 CURVE SMOOTH",
"344 -78 LINE SMOOTH",
"325 -78 OFFCURVE",
"311 -94 OFFCURVE",
"311 -113 CURVE SMOOTH",
"311 -126 LINE SMOOTH",
"311 -145 OFFCURVE",
"325 -161 OFFCURVE",
"344 -161 CURVE SMOOTH"
);
}
);
width = 696;
}
);
note = Ndotbelow;
unicode = 1E46;
},
{
glyphname = Eng;
lastChange = "2015-07-18 10:04:45 +0000";
layers = (
{
layerId = "63696E93-80B4-4894-80FD-D92E433586BC";
name = "Light ExtraLight";
paths = (
{
closed = 1;
nodes = (
"106 0 LINE SMOOTH",
"122 0 OFFCURVE",
"129 8 OFFCURVE",
"129 23 CURVE SMOOTH",
"129 597 LINE",
"558 15 LINE SMOOTH",
"567 3 OFFCURVE",
"571 0 OFFCURVE",
"584 0 CURVE SMOOTH",
"598 0 LINE SMOOTH",
"614 0 OFFCURVE",
"621 8 OFFCURVE",
"621 23 CURVE SMOOTH",
"621 657 LINE SMOOTH",
"621 672 OFFCURVE",
"614 680 OFFCURVE",
"598 680 CURVE SMOOTH",
"590 680 LINE SMOOTH",
"574 680 OFFCURVE",
"567 672 OFFCURVE",
"567 657 CURVE SMOOTH",
"567 81 LINE",
"138 665 LINE SMOOTH",
"129 677 OFFCURVE",
"125 680 OFFCURVE",
"112 680 CURVE SMOOTH",
"98 680 LINE SMOOTH",
"82 680 OFFCURVE",
"75 672 OFFCURVE",
"75 657 CURVE SMOOTH",
"75 23 LINE SMOOTH",
"75 8 OFFCURVE",
"82 0 OFFCURVE",
"98 0 CURVE SMOOTH"
);
},
{
closed = 1;
nodes = (
"559 -259 OFFCURVE",
"621 -178 OFFCURVE",
"621 -70 CURVE SMOOTH",
"621 413 LINE SMOOTH",
"621 428 OFFCURVE",
"614 436 OFFCURVE",
"598 436 CURVE SMOOTH",
"590 436 LINE SMOOTH",
"574 436 OFFCURVE",
"567 428 OFFCURVE",
"567 413 CURVE SMOOTH",
"567 -72 LINE SMOOTH",
"567 -167 OFFCURVE",
"520 -213 OFFCURVE",
"424 -213 CURVE SMOOTH",
"376 -213 OFFCURVE",
"327 -202 OFFCURVE",
"294 -180 CURVE SMOOTH",
"286 -175 OFFCURVE",
"284 -176 OFFCURVE",
"280 -183 CURVE",
"266 -205 LINE SMOOTH",
"261 -213 OFFCURVE",
"265 -218 OFFCURVE",
"271 -221 CURVE",
"317 -249 OFFCURVE",
"372 -259 OFFCURVE",
"432 -259 CURVE SMOOTH"
);
}
);
width = 696;
}
);
note = Eng;
unicode = 014A;
},
{
glyphname = Nlinebelow;
lastChange = "2015-07-18 10:04:43 +0000";
layers = (
{
layerId = "63696E93-80B4-4894-80FD-D92E433586BC";
name = "Light ExtraLight";
paths = (
{
closed = 1;
nodes = (
"106 0 LINE SMOOTH",
"122 0 OFFCURVE",
"129 8 OFFCURVE",
"129 23 CURVE SMOOTH",
"129 597 LINE",
"558 15 LINE SMOOTH",
"567 3 OFFCURVE",
"571 0 OFFCURVE",
"584 0 CURVE SMOOTH",
"598 0 LINE SMOOTH",
"614 0 OFFCURVE",
"621 8 OFFCURVE",
"621 23 CURVE SMOOTH",
"621 657 LINE SMOOTH",
"621 672 OFFCURVE",
"614 680 OFFCURVE",
"598 680 CURVE SMOOTH",
"590 680 LINE SMOOTH",
"574 680 OFFCURVE",
"567 672 OFFCURVE",
"567 657 CURVE SMOOTH",
"567 81 LINE",
"138 665 LINE SMOOTH",
"129 677 OFFCURVE",
"125 680 OFFCURVE",
"112 680 CURVE SMOOTH",
"98 680 LINE SMOOTH",
"82 680 OFFCURVE",
"75 672 OFFCURVE",
"75 657 CURVE SMOOTH",
"75 23 LINE SMOOTH",
"75 8 OFFCURVE",
"82 0 OFFCURVE",
"98 0 CURVE SMOOTH"
);
},
{
closed = 1;
nodes = (
"489 -134 LINE SMOOTH",
"504 -134 OFFCURVE",
"512 -130 OFFCURVE",
"512 -114 CURVE SMOOTH",
"512 -107 LINE SMOOTH",
"512 -91 OFFCURVE",
"504 -85 OFFCURVE",
"489 -85 CURVE SMOOTH",
"211 -85 LINE SMOOTH",
"196 -85 OFFCURVE",
"188 -91 OFFCURVE",
"188 -107 CURVE SMOOTH",
"188 -114 LINE SMOOTH",
"188 -130 OFFCURVE",
"196 -134 OFFCURVE",
"211 -134 CURVE SMOOTH"
);
}
);
width = 696;
}
);
note = Nlinebelow;
unicode = 1E48;
},
{
glyphname = Ntilde;
lastChange = "2015-07-18 10:04:45 +0000";
layers = (
{
layerId = "63696E93-80B4-4894-80FD-D92E433586BC";
name = "Light ExtraLight";
paths = (
{
closed = 1;
nodes = (
"106 0 LINE SMOOTH",
"122 0 OFFCURVE",
"129 8 OFFCURVE",
"129 23 CURVE SMOOTH",
"129 597 LINE",
"558 15 LINE SMOOTH",
"567 3 OFFCURVE",
"571 0 OFFCURVE",
"584 0 CURVE SMOOTH",
"598 0 LINE SMOOTH",
"614 0 OFFCURVE",
"621 8 OFFCURVE",
"621 23 CURVE SMOOTH",
"621 657 LINE SMOOTH",
"621 672 OFFCURVE",
"614 680 OFFCURVE",
"598 680 CURVE SMOOTH",
"590 680 LINE SMOOTH",
"574 680 OFFCURVE",
"567 672 OFFCURVE",
"567 657 CURVE SMOOTH",
"567 81 LINE",
"138 665 LINE SMOOTH",
"129 677 OFFCURVE",
"125 680 OFFCURVE",
"112 680 CURVE SMOOTH",
"98 680 LINE SMOOTH",
"82 680 OFFCURVE",
"75 672 OFFCURVE",
"75 657 CURVE SMOOTH",
"75 23 LINE SMOOTH",
"75 8 OFFCURVE",
"82 0 OFFCURVE",
"98 0 CURVE SMOOTH"
);
},
{
closed = 1;
nodes = (
"461 762 OFFCURVE",
"497 779 OFFCURVE",
"522 810 CURVE SMOOTH",
"536 827 OFFCURVE",
"534 837 OFFCURVE",
"525 845 CURVE SMOOTH",
"510 859 OFFCURVE",
"497 855 OFFCURVE",
"484 839 CURVE SMOOTH",
"467 819 OFFCURVE",
"448 808 OFFCURVE",
"416 808 CURVE SMOOTH",
"356 808 OFFCURVE",
"348 865 OFFCURVE",
"267 865 CURVE SMOOTH",
"224 865 OFFCURVE",
"188 848 OFFCURVE",
"163 817 CURVE SMOOTH",
"149 800 OFFCURVE",
"151 790 OFFCURVE",
"160 782 CURVE SMOOTH",
"175 768 OFFCURVE",
"188 772 OFFCURVE",
"201 788 CURVE SMOOTH",
"218 808 OFFCURVE",
"237 819 OFFCURVE",
"269 819 CURVE SMOOTH",
"327 819 OFFCURVE",
"341 762 OFFCURVE",
"418 762 CURVE SMOOTH"
);
}
);
width = 696;
}
);
note = Ntilde;
unicode = 00D1;
},
{
glyphname = O;
lastChange = "2015-07-18 10:04:44 +0000";
layers = (
{
layerId = "63696E93-80B4-4894-80FD-D92E433586BC";
name = "Light ExtraLight";
paths = (
{
closed = 1;
nodes = (
"591 -15 OFFCURVE",
"713 116 OFFCURVE",
"713 340 CURVE SMOOTH",
"713 564 OFFCURVE",
"591 695 OFFCURVE",
"384 695 CURVE SMOOTH",
"177 695 OFFCURVE",
"55 564 OFFCURVE",
"55 340 CURVE SMOOTH",
"55 116 OFFCURVE",
"177 -15 OFFCURVE",
"384 -15 CURVE SMOOTH"
);
},
{
closed = 1;
nodes = (
"212 31 OFFCURVE",
"107 137 OFFCURVE",
"107 340 CURVE SMOOTH",
"107 543 OFFCURVE",
"212 649 OFFCURVE",
"384 649 CURVE SMOOTH",
"556 649 OFFCURVE",
"661 543 OFFCURVE",
"661 340 CURVE SMOOTH",
"661 137 OFFCURVE",
"556 31 OFFCURVE",
"384 31 CURVE SMOOTH"
);
}
);
width = 768;
}
);
note = O;
unicode = 004F;
},
{
glyphname = Oacute;
lastChange = "2015-07-18 10:04:45 +0000";
layers = (
{
layerId = "63696E93-80B4-4894-80FD-D92E433586BC";
name = "Light ExtraLight";
paths = (
{
closed = 1;
nodes = (
"591 -15 OFFCURVE",
"713 116 OFFCURVE",
"713 340 CURVE SMOOTH",
"713 564 OFFCURVE",
"591 695 OFFCURVE",
"384 695 CURVE SMOOTH",
"177 695 OFFCURVE",
"55 564 OFFCURVE",
"55 340 CURVE SMOOTH",
"55 116 OFFCURVE",
"177 -15 OFFCURVE",
"384 -15 CURVE SMOOTH"
);
},
{
closed = 1;
nodes = (
"212 31 OFFCURVE",
"107 137 OFFCURVE",
"107 340 CURVE SMOOTH",
"107 543 OFFCURVE",
"212 649 OFFCURVE",
"384 649 CURVE SMOOTH",
"556 649 OFFCURVE",
"661 543 OFFCURVE",
"661 340 CURVE SMOOTH",
"661 137 OFFCURVE",
"556 31 OFFCURVE",
"384 31 CURVE SMOOTH"
);
},
{
closed = 1;
nodes = (
"386 765 LINE SMOOTH",
"397 765 OFFCURVE",
"402 768 OFFCURVE",
"406 776 CURVE SMOOTH",
"473 920 LINE SMOOTH",
"478 930 OFFCURVE",
"475 936 OFFCURVE",
"463 936 CURVE SMOOTH",
"436 936 LINE SMOOTH",
"422 936 OFFCURVE",
"418 933 OFFCURVE",
"414 922 CURVE SMOOTH",
"363 781 LINE SMOOTH",
"359 771 OFFCURVE",
"361 765 OFFCURVE",
"371 765 CURVE SMOOTH"
);
}
);
width = 768;
}
);
note = Oacute;
unicode = 00D3;
},
{
glyphname = Obreve;
lastChange = "2015-07-18 10:04:45 +0000";
layers = (
{
layerId = "63696E93-80B4-4894-80FD-D92E433586BC";
name = "Light ExtraLight";
paths = (
{
closed = 1;
nodes = (
"591 -15 OFFCURVE",
"713 116 OFFCURVE",
"713 340 CURVE SMOOTH",
"713 564 OFFCURVE",
"591 695 OFFCURVE",
"384 695 CURVE SMOOTH",
"177 695 OFFCURVE",
"55 564 OFFCURVE",
"55 340 CURVE SMOOTH",
"55 116 OFFCURVE",
"177 -15 OFFCURVE",
"384 -15 CURVE SMOOTH"
);
},
{
closed = 1;
nodes = (
"212 31 OFFCURVE",
"107 137 OFFCURVE",
"107 340 CURVE SMOOTH",
"107 543 OFFCURVE",
"212 649 OFFCURVE",
"384 649 CURVE SMOOTH",
"556 649 OFFCURVE",
"661 543 OFFCURVE",
"661 340 CURVE SMOOTH",
"661 137 OFFCURVE",
"556 31 OFFCURVE",
"384 31 CURVE SMOOTH"
);
},
{
closed = 1;
nodes = (
"481 746 OFFCURVE",
"525 809 OFFCURVE",
"525 899 CURVE SMOOTH",
"525 910 OFFCURVE",
"519 917 OFFCURVE",
"509 917 CURVE SMOOTH",
"485 917 LINE SMOOTH",
"471 917 OFFCURVE",
"468 910 OFFCURVE",
"468 898 CURVE SMOOTH",
"468 841 OFFCURVE",
"454 797 OFFCURVE",
"384 797 CURVE SMOOTH",
"314 797 OFFCURVE",
"300 841 OFFCURVE",
"300 898 CURVE SMOOTH",
"300 910 OFFCURVE",
"297 917 OFFCURVE",
"283 917 CURVE SMOOTH",
"259 917 LINE SMOOTH",
"249 917 OFFCURVE",
"243 910 OFFCURVE",
"243 899 CURVE SMOOTH",
"243 809 OFFCURVE",
"287 746 OFFCURVE",
"384 746 CURVE SMOOTH"
);
}
);
width = 768;
}
);
note = Obreve;
unicode = 014E;
},
{
glyphname = Ocaron;
lastChange = "2015-07-18 10:04:44 +0000";
layers = (
{
layerId = "63696E93-80B4-4894-80FD-D92E433586BC";
name = "Light ExtraLight";
paths = (
{
closed = 1;
nodes = (
"591 -15 OFFCURVE",
"713 116 OFFCURVE",
"713 340 CURVE SMOOTH",
"713 564 OFFCURVE",
"591 695 OFFCURVE",
"384 695 CURVE SMOOTH",
"177 695 OFFCURVE",
"55 564 OFFCURVE",
"55 340 CURVE SMOOTH",
"55 116 OFFCURVE",
"177 -15 OFFCURVE",
"384 -15 CURVE SMOOTH"
);
},
{
closed = 1;
nodes = (
"212 31 OFFCURVE",
"107 137 OFFCURVE",
"107 340 CURVE SMOOTH",
"107 543 OFFCURVE",
"212 649 OFFCURVE",
"384 649 CURVE SMOOTH",
"556 649 OFFCURVE",
"661 543 OFFCURVE",
"661 340 CURVE SMOOTH",
"661 137 OFFCURVE",
"556 31 OFFCURVE",
"384 31 CURVE SMOOTH"
);
},
{
closed = 1;
nodes = (
"391 746 LINE SMOOTH",
"403 746 OFFCURVE",
"406 752 OFFCURVE",
"414 763 CURVE SMOOTH",
"526 919 LINE",
"533 928 OFFCURVE",
"524 937 OFFCURVE",
"514 937 CURVE SMOOTH",
"495 937 LINE SMOOTH",
"479 937 OFFCURVE",
"476 930 OFFCURVE",
"469 920 CURVE SMOOTH",
"385 798 LINE",
"301 920 LINE SMOOTH",
"294 930 OFFCURVE",
"291 937 OFFCURVE",
"275 937 CURVE SMOOTH",
"256 937 LINE SMOOTH",
"246 937 OFFCURVE",
"237 928 OFFCURVE",
"244 919 CURVE",
"356 763 LINE SMOOTH",
"364 752 OFFCURVE",
"367 746 OFFCURVE",
"379 746 CURVE SMOOTH"
);
}
);
width = 768;
}
);
note = Ocaron;
unicode = 01D1;
},
{
glyphname = Ocircumflex;
lastChange = "2015-07-18 10:04:45 +0000";
layers = (
{
layerId = "63696E93-80B4-4894-80FD-D92E433586BC";
name = "Light ExtraLight";
paths = (
{
closed = 1;
nodes = (
"591 -15 OFFCURVE",
"713 116 OFFCURVE",
"713 340 CURVE SMOOTH",
"713 564 OFFCURVE",
"591 695 OFFCURVE",
"384 695 CURVE SMOOTH",
"177 695 OFFCURVE",
"55 564 OFFCURVE",
"55 340 CURVE SMOOTH",
"55 116 OFFCURVE",
"177 -15 OFFCURVE",
"384 -15 CURVE SMOOTH"
);
},
{
closed = 1;
nodes = (
"212 31 OFFCURVE",
"107 137 OFFCURVE",
"107 340 CURVE SMOOTH",
"107 543 OFFCURVE",
"212 649 OFFCURVE",
"384 649 CURVE SMOOTH",
"556 649 OFFCURVE",
"661 543 OFFCURVE",
"661 340 CURVE SMOOTH",
"661 137 OFFCURVE",
"556 31 OFFCURVE",
"384 31 CURVE SMOOTH"
);
},
{
closed = 1;
nodes = (
"274 758 LINE SMOOTH",
"290 758 OFFCURVE",
"293 765 OFFCURVE",
"300 775 CURVE SMOOTH",
"384 897 LINE",
"468 775 LINE SMOOTH",
"475 765 OFFCURVE",
"478 758 OFFCURVE",
"494 758 CURVE SMOOTH",
"513 758 LINE SMOOTH",
"523 758 OFFCURVE",
"532 767 OFFCURVE",
"525 776 CURVE",
"413 932 LINE SMOOTH",
"405 943 OFFCURVE",
"402 949 OFFCURVE",
"390 949 CURVE SMOOTH",
"378 949 LINE SMOOTH",
"366 949 OFFCURVE",
"363 943 OFFCURVE",
"355 932 CURVE SMOOTH",
"243 776 LINE",
"236 767 OFFCURVE",
"245 758 OFFCURVE",
"255 758 CURVE SMOOTH"
);
}
);
width = 768;
}
);
note = Ocircumflex;
unicode = 00D4;
},
{
glyphname = Ocircumflexacute;
lastChange = "2015-07-18 10:07:10 +0000";
layers = (
{
layerId = "63696E93-80B4-4894-80FD-D92E433586BC";
name = "Light ExtraLight";
paths = (
{
closed = 1;
nodes = (
"591 -15 OFFCURVE",
"713 116 OFFCURVE",
"713 340 CURVE SMOOTH",
"713 564 OFFCURVE",
"591 695 OFFCURVE",
"384 695 CURVE SMOOTH",
"177 695 OFFCURVE",
"55 564 OFFCURVE",
"55 340 CURVE SMOOTH",
"55 116 OFFCURVE",
"177 -15 OFFCURVE",
"384 -15 CURVE SMOOTH"
);
},
{
closed = 1;
nodes = (
"212 31 OFFCURVE",
"107 137 OFFCURVE",
"107 340 CURVE SMOOTH",
"107 543 OFFCURVE",
"212 649 OFFCURVE",
"384 649 CURVE SMOOTH",
"556 649 OFFCURVE",
"661 543 OFFCURVE",
"661 340 CURVE SMOOTH",
"661 137 OFFCURVE",
"556 31 OFFCURVE",
"384 31 CURVE SMOOTH"
);
},
{
closed = 1;
nodes = (
"276 747 LINE SMOOTH",
"288 747 OFFCURVE",
"291 748 OFFCURVE",
"300 758 CURVE SMOOTH",
"384 856 LINE",
"468 758 LINE SMOOTH",
"477 748 OFFCURVE",
"480 747 OFFCURVE",
"492 747 CURVE SMOOTH",
"511 747 LINE SMOOTH",
"521 747 OFFCURVE",
"527 756 OFFCURVE",
"520 765 CURVE",
"413 891 LINE SMOOTH",
"404 901 OFFCURVE",
"399 908 OFFCURVE",
"387 908 CURVE SMOOTH",
"381 908 LINE SMOOTH",
"369 908 OFFCURVE",
"364 901 OFFCURVE",
"355 891 CURVE SMOOTH",
"248 765 LINE",
"241 756 OFFCURVE",
"247 747 OFFCURVE",
"257 747 CURVE SMOOTH"
);
},
{
closed = 1;
nodes = (
"498 852 LINE SMOOTH",
"509 852 OFFCURVE",
"514 855 OFFCURVE",
"518 863 CURVE SMOOTH",
"573 974 LINE SMOOTH",
"578 984 OFFCURVE",
"575 990 OFFCURVE",
"563 990 CURVE SMOOTH",
"536 990 LINE SMOOTH",
"522 990 OFFCURVE",
"518 987 OFFCURVE",
"514 976 CURVE SMOOTH",
"475 868 LINE SMOOTH",
"471 858 OFFCURVE",
"473 852 OFFCURVE",
"483 852 CURVE SMOOTH"
);
}
);
width = 768;
}
);
note = Ocircumflexacute;
unicode = 1ED0;
},
{
glyphname = Ocircumflexdotbelow;
lastChange = "2015-07-18 10:04:45 +0000";
layers = (
{
layerId = "63696E93-80B4-4894-80FD-D92E433586BC";
name = "Light ExtraLight";
paths = (
{
closed = 1;
nodes = (
"591 -15 OFFCURVE",
"713 116 OFFCURVE",
"713 340 CURVE SMOOTH",
"713 564 OFFCURVE",
"591 695 OFFCURVE",
"384 695 CURVE SMOOTH",
"177 695 OFFCURVE",
"55 564 OFFCURVE",
"55 340 CURVE SMOOTH",
"55 116 OFFCURVE",
"177 -15 OFFCURVE",
"384 -15 CURVE SMOOTH"
);
},
{
closed = 1;
nodes = (
"390 -161 LINE SMOOTH",
"410 -161 OFFCURVE",
"423 -145 OFFCURVE",
"423 -126 CURVE SMOOTH",
"423 -113 LINE SMOOTH",
"423 -94 OFFCURVE",
"409 -78 OFFCURVE",
"390 -78 CURVE SMOOTH",
"376 -78 LINE SMOOTH",
"357 -78 OFFCURVE",
"343 -94 OFFCURVE",
"343 -113 CURVE SMOOTH",
"343 -126 LINE SMOOTH",
"343 -145 OFFCURVE",
"357 -161 OFFCURVE",
"376 -161 CURVE SMOOTH"
);
},
{
closed = 1;
nodes = (
"212 31 OFFCURVE",
"107 137 OFFCURVE",
"107 340 CURVE SMOOTH",
"107 543 OFFCURVE",
"212 649 OFFCURVE",
"384 649 CURVE SMOOTH",
"556 649 OFFCURVE",
"661 543 OFFCURVE",
"661 340 CURVE SMOOTH",
"661 137 OFFCURVE",
"556 31 OFFCURVE",
"384 31 CURVE SMOOTH"
);
},
{
closed = 1;
nodes = (
"273 746 LINE SMOOTH",
"289 746 OFFCURVE",
"292 753 OFFCURVE",
"299 763 CURVE SMOOTH",
"383 885 LINE",
"467 763 LINE SMOOTH",
"474 753 OFFCURVE",
"477 746 OFFCURVE",
"493 746 CURVE SMOOTH",
"512 746 LINE SMOOTH",
"522 746 OFFCURVE",
"531 755 OFFCURVE",
"524 764 CURVE",
"412 920 LINE SMOOTH",
"404 931 OFFCURVE",
"401 937 OFFCURVE",
"389 937 CURVE SMOOTH",
"377 937 LINE SMOOTH",
"365 937 OFFCURVE",
"362 931 OFFCURVE",
"354 920 CURVE SMOOTH",
"242 764 LINE",
"235 755 OFFCURVE",
"244 746 OFFCURVE",
"254 746 CURVE SMOOTH"
);
}
);
width = 768;
}
);
note = Ocircumflexdotbelow;
unicode = 1ED8;
},
{
glyphname = Ocircumflexgrave;
lastChange = "2015-07-18 10:07:16 +0000";
layers = (
{
layerId = "63696E93-80B4-4894-80FD-D92E433586BC";
name = "Light ExtraLight";
paths = (
{
closed = 1;
nodes = (
"591 -15 OFFCURVE",
"713 116 OFFCURVE",
"713 340 CURVE SMOOTH",
"713 564 OFFCURVE",
"591 695 OFFCURVE",
"384 695 CURVE SMOOTH",
"177 695 OFFCURVE",
"55 564 OFFCURVE",
"55 340 CURVE SMOOTH",
"55 116 OFFCURVE",
"177 -15 OFFCURVE",
"384 -15 CURVE SMOOTH"
);
},
{
closed = 1;
nodes = (
"212 31 OFFCURVE",
"107 137 OFFCURVE",
"107 340 CURVE SMOOTH",
"107 543 OFFCURVE",
"212 649 OFFCURVE",
"384 649 CURVE SMOOTH",
"556 649 OFFCURVE",
"661 543 OFFCURVE",
"661 340 CURVE SMOOTH",
"661 137 OFFCURVE",
"556 31 OFFCURVE",
"384 31 CURVE SMOOTH"
);
},
{
closed = 1;
nodes = (
"286 852 LINE SMOOTH",
"296 852 OFFCURVE",
"298 858 OFFCURVE",
"294 868 CURVE SMOOTH",
"255 976 LINE SMOOTH",
"251 987 OFFCURVE",
"247 990 OFFCURVE",
"233 990 CURVE SMOOTH",
"206 990 LINE SMOOTH",
"194 990 OFFCURVE",
"191 984 OFFCURVE",
"196 974 CURVE SMOOTH",
"251 863 LINE SMOOTH",
"255 855 OFFCURVE",
"260 852 OFFCURVE",
"271 852 CURVE SMOOTH"
);
},
{
closed = 1;
nodes = (
"277 747 LINE SMOOTH",
"289 747 OFFCURVE",
"292 748 OFFCURVE",
"301 758 CURVE SMOOTH",
"385 856 LINE",
"469 758 LINE SMOOTH",
"478 748 OFFCURVE",
"481 747 OFFCURVE",
"493 747 CURVE SMOOTH",
"512 747 LINE SMOOTH",
"522 747 OFFCURVE",
"528 756 OFFCURVE",
"521 765 CURVE",
"414 891 LINE SMOOTH",
"405 901 OFFCURVE",
"400 908 OFFCURVE",
"388 908 CURVE SMOOTH",
"382 908 LINE SMOOTH",
"370 908 OFFCURVE",
"365 901 OFFCURVE",
"356 891 CURVE SMOOTH",
"249 765 LINE",
"242 756 OFFCURVE",
"248 747 OFFCURVE",
"258 747 CURVE SMOOTH"
);
}
);
width = 768;
}
);
note = Ocircumflexgrave;
unicode = 1ED2;
},
{
glyphname = Ocircumflexhookabove;
lastChange = "2015-07-18 10:04:44 +0000";
layers = (
{
layerId = "63696E93-80B4-4894-80FD-D92E433586BC";
name = "Light ExtraLight";
paths = (
{
closed = 1;
nodes = (
"591 -15 OFFCURVE",
"713 116 OFFCURVE",
"713 340 CURVE SMOOTH",
"713 564 OFFCURVE",
"591 695 OFFCURVE",
"384 695 CURVE SMOOTH",
"177 695 OFFCURVE",
"55 564 OFFCURVE",
"55 340 CURVE SMOOTH",
"55 116 OFFCURVE",
"177 -15 OFFCURVE",
"384 -15 CURVE SMOOTH"
);
},
{
closed = 1;
nodes = (
"212 31 OFFCURVE",
"107 137 OFFCURVE",
"107 340 CURVE SMOOTH",
"107 543 OFFCURVE",
"212 649 OFFCURVE",
"384 649 CURVE SMOOTH",
"556 649 OFFCURVE",
"661 543 OFFCURVE",
"661 340 CURVE SMOOTH",
"661 137 OFFCURVE",
"556 31 OFFCURVE",
"384 31 CURVE SMOOTH"
);
},
{
closed = 1;
nodes = (
"276 747 LINE SMOOTH",
"288 747 OFFCURVE",
"291 748 OFFCURVE",
"300 758 CURVE SMOOTH",
"384 856 LINE",
"468 758 LINE SMOOTH",
"477 748 OFFCURVE",
"480 747 OFFCURVE",
"492 747 CURVE SMOOTH",
"511 747 LINE SMOOTH",
"521 747 OFFCURVE",
"527 756 OFFCURVE",
"520 765 CURVE",
"413 891 LINE SMOOTH",
"404 901 OFFCURVE",
"399 908 OFFCURVE",
"387 908 CURVE SMOOTH",
"381 908 LINE SMOOTH",
"369 908 OFFCURVE",
"364 901 OFFCURVE",
"355 891 CURVE SMOOTH",
"248 765 LINE",
"241 756 OFFCURVE",
"247 747 OFFCURVE",
"257 747 CURVE SMOOTH"
);
},
{
closed = 1;
nodes = (
"507 843 LINE SMOOTH",
"522 843 OFFCURVE",
"529 851 OFFCURVE",
"529 866 CURVE SMOOTH",
"529 878 LINE",
"570 878 OFFCURVE",
"609 902 OFFCURVE",
"609 954 CURVE SMOOTH",
"609 1002 OFFCURVE",
"575 1029 OFFCURVE",
"515 1029 CURVE SMOOTH",
"486 1029 OFFCURVE",
"454 1021 OFFCURVE",
"435 1009 CURVE",
"431 1006 OFFCURVE",
"430 1005 OFFCURVE",
"432 1000 CURVE",
"446 971 LINE",
"447 968 OFFCURVE",
"450 968 OFFCURVE",
"454 970 CURVE",
"470 979 OFFCURVE",
"493 984 OFFCURVE",
"513 984 CURVE SMOOTH",
"543 984 OFFCURVE",
"558 975 OFFCURVE",
"558 954 CURVE SMOOTH",
"558 930 OFFCURVE",
"547 920 OFFCURVE",
"511 920 CURVE SMOOTH",
"489 920 OFFCURVE",
"476 909 OFFCURVE",
"476 889 CURVE SMOOTH",
"476 866 LINE SMOOTH",
"476 851 OFFCURVE",
"483 843 OFFCURVE",
"499 843 CURVE SMOOTH"
);
}
);
width = 768;
}
);
note = Ocircumflexhookabove;
unicode = 1ED4;
},
{
glyphname = Ocircumflextilde;
lastChange = "2015-07-18 10:04:45 +0000";
layers = (
{
layerId = "63696E93-80B4-4894-80FD-D92E433586BC";
name = "Light ExtraLight";
paths = (
{
closed = 1;
nodes = (
"591 -15 OFFCURVE",
"713 116 OFFCURVE",
"713 340 CURVE SMOOTH",
"713 564 OFFCURVE",
"591 695 OFFCURVE",
"384 695 CURVE SMOOTH",
"177 695 OFFCURVE",
"55 564 OFFCURVE",
"55 340 CURVE SMOOTH",
"55 116 OFFCURVE",
"177 -15 OFFCURVE",
"384 -15 CURVE SMOOTH"
);
},
{
closed = 1;
nodes = (
"212 31 OFFCURVE",
"107 137 OFFCURVE",
"107 340 CURVE SMOOTH",
"107 543 OFFCURVE",
"212 649 OFFCURVE",
"384 649 CURVE SMOOTH",
"556 649 OFFCURVE",
"661 543 OFFCURVE",
"661 340 CURVE SMOOTH",
"661 137 OFFCURVE",
"556 31 OFFCURVE",
"384 31 CURVE SMOOTH"
);
},
{
closed = 1;
nodes = (
"463 746 OFFCURVE",
"526 786 OFFCURVE",
"526 866 CURVE SMOOTH",
"526 877 OFFCURVE",
"520 884 OFFCURVE",
"510 884 CURVE SMOOTH",
"488 884 LINE SMOOTH",
"474 884 OFFCURVE",
"471 877 OFFCURVE",
"471 865 CURVE SMOOTH",
"471 818 OFFCURVE",
"443 795 OFFCURVE",
"386 795 CURVE SMOOTH",
"329 795 OFFCURVE",
"301 818 OFFCURVE",
"301 865 CURVE SMOOTH",
"301 877 OFFCURVE",
"298 884 OFFCURVE",
"284 884 CURVE SMOOTH",
"262 884 LINE SMOOTH",
"252 884 OFFCURVE",
"246 877 OFFCURVE",
"246 866 CURVE SMOOTH",
"246 786 OFFCURVE",
"309 746 OFFCURVE",
"386 746 CURVE SMOOTH"
);
},
{
closed = 1;
nodes = (
"486 921 OFFCURVE",
"517 937 OFFCURVE",
"540 968 CURVE SMOOTH",
"553 985 OFFCURVE",
"552 994 OFFCURVE",
"543 1002 CURVE",
"529 1016 OFFCURVE",
"515 1012 OFFCURVE",
"503 996 CURVE SMOOTH",
"488 975 OFFCURVE",
"475 966 OFFCURVE",
"446 966 CURVE SMOOTH",
"397 966 OFFCURVE",
"392 1022 OFFCURVE",
"317 1022 CURVE SMOOTH",
"279 1022 OFFCURVE",
"248 1006 OFFCURVE",
"225 975 CURVE SMOOTH",
"212 958 OFFCURVE",
"213 949 OFFCURVE",
"222 941 CURVE",
"236 927 OFFCURVE",
"250 931 OFFCURVE",
"262 947 CURVE SMOOTH",
"277 968 OFFCURVE",
"290 977 OFFCURVE",
"319 977 CURVE SMOOTH",
"366 977 OFFCURVE",
"381 921 OFFCURVE",
"448 921 CURVE SMOOTH"
);
}
);
width = 768;
}
);
note = Ocircumflextilde;
unicode = 1ED6;
},
{
glyphname = Odieresis;
lastChange = "2015-07-18 10:04:43 +0000";
layers = (
{
layerId = "63696E93-80B4-4894-80FD-D92E433586BC";
name = "Light ExtraLight";
paths = (
{
closed = 1;
nodes = (
"591 -15 OFFCURVE",
"713 116 OFFCURVE",
"713 340 CURVE SMOOTH",
"713 564 OFFCURVE",
"591 695 OFFCURVE",
"384 695 CURVE SMOOTH",
"177 695 OFFCURVE",
"55 564 OFFCURVE",
"55 340 CURVE SMOOTH",
"55 116 OFFCURVE",
"177 -15 OFFCURVE",
"384 -15 CURVE SMOOTH"
);
},
{
closed = 1;
nodes = (
"212 31 OFFCURVE",
"107 137 OFFCURVE",
"107 340 CURVE SMOOTH",
"107 543 OFFCURVE",
"212 649 OFFCURVE",
"384 649 CURVE SMOOTH",
"556 649 OFFCURVE",
"661 543 OFFCURVE",
"661 340 CURVE SMOOTH",
"661 137 OFFCURVE",
"556 31 OFFCURVE",
"384 31 CURVE SMOOTH"
);
},
{
closed = 1;
nodes = (
"301 762 LINE SMOOTH",
"321 762 OFFCURVE",
"334 778 OFFCURVE",
"334 797 CURVE SMOOTH",
"334 810 LINE SMOOTH",
"334 829 OFFCURVE",
"320 845 OFFCURVE",
"301 845 CURVE SMOOTH",
"287 845 LINE SMOOTH",
"268 845 OFFCURVE",
"254 829 OFFCURVE",
"254 810 CURVE SMOOTH",
"254 797 LINE SMOOTH",
"254 778 OFFCURVE",
"268 762 OFFCURVE",
"287 762 CURVE SMOOTH"
);
},
{
closed = 1;
nodes = (
"481 762 LINE SMOOTH",
"501 762 OFFCURVE",
"514 778 OFFCURVE",
"514 797 CURVE SMOOTH",
"514 810 LINE SMOOTH",
"514 829 OFFCURVE",
"500 845 OFFCURVE",
"481 845 CURVE SMOOTH",
"467 845 LINE SMOOTH",
"448 845 OFFCURVE",
"434 829 OFFCURVE",
"434 810 CURVE SMOOTH",
"434 797 LINE SMOOTH",
"434 778 OFFCURVE",
"448 762 OFFCURVE",
"467 762 CURVE SMOOTH"
);
}
);
width = 768;
}
);
note = Odieresis;
unicode = 00D6;
},
{
glyphname = Odotbelow;
lastChange = "2015-07-18 10:04:44 +0000";
layers = (
{
layerId = "63696E93-80B4-4894-80FD-D92E433586BC";
name = "Light ExtraLight";
paths = (
{
closed = 1;
nodes = (
"591 -15 OFFCURVE",
"713 116 OFFCURVE",
"713 340 CURVE SMOOTH",
"713 564 OFFCURVE",
"591 695 OFFCURVE",
"384 695 CURVE SMOOTH",
"177 695 OFFCURVE",
"55 564 OFFCURVE",
"55 340 CURVE SMOOTH",
"55 116 OFFCURVE",
"177 -15 OFFCURVE",
"384 -15 CURVE SMOOTH"
);
},
{
closed = 1;
nodes = (
"391 -161 LINE SMOOTH",
"411 -161 OFFCURVE",
"424 -145 OFFCURVE",
"424 -126 CURVE SMOOTH",
"424 -113 LINE SMOOTH",
"424 -94 OFFCURVE",
"410 -78 OFFCURVE",
"391 -78 CURVE SMOOTH",
"377 -78 LINE SMOOTH",
"358 -78 OFFCURVE",
"344 -94 OFFCURVE",
"344 -113 CURVE SMOOTH",
"344 -126 LINE SMOOTH",
"344 -145 OFFCURVE",
"358 -161 OFFCURVE",
"377 -161 CURVE SMOOTH"
);
},
{
closed = 1;
nodes = (
"212 31 OFFCURVE",
"107 137 OFFCURVE",
"107 340 CURVE SMOOTH",
"107 543 OFFCURVE",
"212 649 OFFCURVE",
"384 649 CURVE SMOOTH",
"556 649 OFFCURVE",
"661 543 OFFCURVE",
"661 340 CURVE SMOOTH",
"661 137 OFFCURVE",
"556 31 OFFCURVE",
"384 31 CURVE SMOOTH"
);
}
);
width = 768;
}
);
note = Odotbelow;
unicode = 1ECC;
},
{
glyphname = Ograve;
lastChange = "2015-07-18 10:04:44 +0000";
layers = (
{
layerId = "63696E93-80B4-4894-80FD-D92E433586BC";
name = "Light ExtraLight";
paths = (
{
closed = 1;
nodes = (
"591 -15 OFFCURVE",
"713 116 OFFCURVE",
"713 340 CURVE SMOOTH",
"713 564 OFFCURVE",
"591 695 OFFCURVE",
"384 695 CURVE SMOOTH",
"177 695 OFFCURVE",
"55 564 OFFCURVE",
"55 340 CURVE SMOOTH",
"55 116 OFFCURVE",
"177 -15 OFFCURVE",
"384 -15 CURVE SMOOTH"
);
},
{
closed = 1;
nodes = (
"212 31 OFFCURVE",
"107 137 OFFCURVE",
"107 340 CURVE SMOOTH",
"107 543 OFFCURVE",
"212 649 OFFCURVE",
"384 649 CURVE SMOOTH",
"556 649 OFFCURVE",
"661 543 OFFCURVE",
"661 340 CURVE SMOOTH",
"661 137 OFFCURVE",
"556 31 OFFCURVE",
"384 31 CURVE SMOOTH"
);
},
{
closed = 1;
nodes = (
"410 765 LINE SMOOTH",
"420 765 OFFCURVE",
"422 771 OFFCURVE",
"418 781 CURVE SMOOTH",
"367 922 LINE SMOOTH",
"363 933 OFFCURVE",
"359 936 OFFCURVE",
"345 936 CURVE SMOOTH",
"318 936 LINE SMOOTH",
"306 936 OFFCURVE",
"303 930 OFFCURVE",
"308 920 CURVE SMOOTH",
"375 776 LINE SMOOTH",
"379 768 OFFCURVE",
"384 765 OFFCURVE",
"395 765 CURVE SMOOTH"
);
}
);
width = 768;
}
);
note = Ograve;
unicode = 00D2;
},
{
glyphname = Ohookabove;
lastChange = "2015-07-18 10:04:43 +0000";
layers = (
{
layerId = "63696E93-80B4-4894-80FD-D92E433586BC";
name = "Light ExtraLight";
paths = (
{
closed = 1;
nodes = (
"591 -15 OFFCURVE",
"713 116 OFFCURVE",
"713 340 CURVE SMOOTH",
"713 564 OFFCURVE",
"591 695 OFFCURVE",
"384 695 CURVE SMOOTH",
"177 695 OFFCURVE",
"55 564 OFFCURVE",
"55 340 CURVE SMOOTH",
"55 116 OFFCURVE",
"177 -15 OFFCURVE",
"384 -15 CURVE SMOOTH"
);
},
{
closed = 1;
nodes = (
"212 31 OFFCURVE",
"107 137 OFFCURVE",
"107 340 CURVE SMOOTH",
"107 543 OFFCURVE",
"212 649 OFFCURVE",
"384 649 CURVE SMOOTH",
"556 649 OFFCURVE",
"661 543 OFFCURVE",
"661 340 CURVE SMOOTH",
"661 137 OFFCURVE",
"556 31 OFFCURVE",
"384 31 CURVE SMOOTH"
);
},
{
closed = 1;
nodes = (
"385 737 LINE SMOOTH",
"401 737 OFFCURVE",
"408 745 OFFCURVE",
"408 760 CURVE SMOOTH",
"408 787 LINE",
"460 787 OFFCURVE",
"512 819 OFFCURVE",
"512 878 CURVE SMOOTH",
"512 931 OFFCURVE",
"474 968 OFFCURVE",
"391 968 CURVE SMOOTH",
"353 968 OFFCURVE",
"314 958 OFFCURVE",
"289 942 CURVE",
"285 939 OFFCURVE",
"284 938 OFFCURVE",
"286 933 CURVE",
"300 903 LINE",
"301 900 OFFCURVE",
"304 900 OFFCURVE",
"308 902 CURVE SMOOTH",
"335 916 OFFCURVE",
"359 922 OFFCURVE",
"391 922 CURVE SMOOTH",
"437 922 OFFCURVE",
"460 909 OFFCURVE",
"460 878 CURVE SMOOTH",
"460 845 OFFCURVE",
"444 829 OFFCURVE",
"389 829 CURVE SMOOTH",
"367 829 OFFCURVE",
"354 818 OFFCURVE",
"354 798 CURVE SMOOTH",
"354 760 LINE SMOOTH",
"354 745 OFFCURVE",
"361 737 OFFCURVE",
"377 737 CURVE SMOOTH"
);
}
);
width = 768;
}
);
note = Ohookabove;
unicode = 1ECE;
},
{
glyphname = Ohorn;
lastChange = "2015-07-18 10:04:45 +0000";
layers = (
{
layerId = "63696E93-80B4-4894-80FD-D92E433586BC";
name = "Light ExtraLight";
paths = (
{
closed = 1;
nodes = (
"591 -15 OFFCURVE",
"713 116 OFFCURVE",
"713 340 CURVE SMOOTH",
"713 429 OFFCURVE",
"693 504 OFFCURVE",
"657 561 CURVE",
"726 575 OFFCURVE",
"770 630 OFFCURVE",
"770 731 CURVE SMOOTH",
"770 742 OFFCURVE",
"764 749 OFFCURVE",
"754 749 CURVE SMOOTH",
"730 749 LINE SMOOTH",
"716 749 OFFCURVE",
"713 742 OFFCURVE",
"713 730 CURVE SMOOTH",
"713 641 OFFCURVE",
"684 609 OFFCURVE",
"619 609 CURVE",
"563 665 OFFCURVE",
"483 695 OFFCURVE",
"384 695 CURVE SMOOTH",
"177 695 OFFCURVE",
"55 564 OFFCURVE",
"55 340 CURVE SMOOTH",
"55 116 OFFCURVE",
"177 -15 OFFCURVE",
"384 -15 CURVE SMOOTH"
);
},
{
closed = 1;
nodes = (
"212 31 OFFCURVE",
"107 137 OFFCURVE",
"107 340 CURVE SMOOTH",
"107 543 OFFCURVE",
"212 649 OFFCURVE",
"384 649 CURVE SMOOTH",
"556 649 OFFCURVE",
"661 543 OFFCURVE",
"661 340 CURVE SMOOTH",
"661 137 OFFCURVE",
"556 31 OFFCURVE",
"384 31 CURVE SMOOTH"
);
}
);
width = 795;
}
);
note = Ohorn;
unicode = 01A0;
},
{
glyphname = Ohornacute;
lastChange = "2015-07-18 10:04:45 +0000";
layers = (
{
layerId = "63696E93-80B4-4894-80FD-D92E433586BC";
name = "Light ExtraLight";
paths = (
{
closed = 1;
nodes = (
"591 -15 OFFCURVE",
"713 116 OFFCURVE",
"713 340 CURVE SMOOTH",
"713 429 OFFCURVE",
"693 504 OFFCURVE",
"657 561 CURVE",
"726 575 OFFCURVE",
"770 630 OFFCURVE",
"770 731 CURVE SMOOTH",
"770 742 OFFCURVE",
"764 749 OFFCURVE",
"754 749 CURVE SMOOTH",
"730 749 LINE SMOOTH",
"716 749 OFFCURVE",
"713 742 OFFCURVE",
"713 730 CURVE SMOOTH",
"713 641 OFFCURVE",
"684 609 OFFCURVE",
"619 609 CURVE",
"563 665 OFFCURVE",
"483 695 OFFCURVE",
"384 695 CURVE SMOOTH",
"177 695 OFFCURVE",
"55 564 OFFCURVE",
"55 340 CURVE SMOOTH",
"55 116 OFFCURVE",
"177 -15 OFFCURVE",
"384 -15 CURVE SMOOTH"
);
},
{
closed = 1;
nodes = (
"212 31 OFFCURVE",
"107 137 OFFCURVE",
"107 340 CURVE SMOOTH",
"107 543 OFFCURVE",
"212 649 OFFCURVE",
"384 649 CURVE SMOOTH",
"556 649 OFFCURVE",
"661 543 OFFCURVE",
"661 340 CURVE SMOOTH",
"661 137 OFFCURVE",
"556 31 OFFCURVE",
"384 31 CURVE SMOOTH"
);
},
{
closed = 1;
nodes = (
"385 741 LINE SMOOTH",
"396 741 OFFCURVE",
"401 744 OFFCURVE",
"405 752 CURVE SMOOTH",
"472 896 LINE SMOOTH",
"477 906 OFFCURVE",
"474 912 OFFCURVE",
"462 912 CURVE SMOOTH",
"435 912 LINE SMOOTH",
"421 912 OFFCURVE",
"417 909 OFFCURVE",
"413 898 CURVE SMOOTH",
"362 757 LINE SMOOTH",
"358 747 OFFCURVE",
"360 741 OFFCURVE",
"370 741 CURVE SMOOTH"
);
}
);
width = 795;
}
);
note = Ohornacute;
unicode = 1EDA;
},
{
glyphname = Ohorndotbelow;
lastChange = "2015-07-18 10:04:45 +0000";
layers = (
{
layerId = "63696E93-80B4-4894-80FD-D92E433586BC";
name = "Light ExtraLight";
paths = (
{
closed = 1;
nodes = (
"591 -15 OFFCURVE",
"713 116 OFFCURVE",
"713 340 CURVE SMOOTH",
"713 429 OFFCURVE",
"693 504 OFFCURVE",
"657 561 CURVE",
"726 575 OFFCURVE",
"770 630 OFFCURVE",
"770 731 CURVE SMOOTH",
"770 742 OFFCURVE",
"764 749 OFFCURVE",
"754 749 CURVE SMOOTH",
"730 749 LINE SMOOTH",
"716 749 OFFCURVE",
"713 742 OFFCURVE",
"713 730 CURVE SMOOTH",
"713 641 OFFCURVE",
"684 609 OFFCURVE",
"619 609 CURVE",
"563 665 OFFCURVE",
"483 695 OFFCURVE",
"384 695 CURVE SMOOTH",
"177 695 OFFCURVE",
"55 564 OFFCURVE",
"55 340 CURVE SMOOTH",
"55 116 OFFCURVE",
"177 -15 OFFCURVE",
"384 -15 CURVE SMOOTH"
);
},
{
closed = 1;
nodes = (
"390 -161 LINE SMOOTH",
"410 -161 OFFCURVE",
"423 -145 OFFCURVE",
"423 -126 CURVE SMOOTH",
"423 -113 LINE SMOOTH",
"423 -94 OFFCURVE",
"409 -78 OFFCURVE",
"390 -78 CURVE SMOOTH",
"376 -78 LINE SMOOTH",
"357 -78 OFFCURVE",
"343 -94 OFFCURVE",
"343 -113 CURVE SMOOTH",
"343 -126 LINE SMOOTH",
"343 -145 OFFCURVE",
"357 -161 OFFCURVE",
"376 -161 CURVE SMOOTH"
);
},
{
closed = 1;
nodes = (
"212 31 OFFCURVE",
"107 137 OFFCURVE",
"107 340 CURVE SMOOTH",
"107 543 OFFCURVE",
"212 649 OFFCURVE",
"384 649 CURVE SMOOTH",
"556 649 OFFCURVE",
"661 543 OFFCURVE",
"661 340 CURVE SMOOTH",
"661 137 OFFCURVE",
"556 31 OFFCURVE",
"384 31 CURVE SMOOTH"
);
}
);
width = 795;
}
);
note = Ohorndotbelow;
unicode = 1EE2;
},
{
glyphname = Ohorngrave;
lastChange = "2015-07-18 10:04:44 +0000";
layers = (
{
layerId = "63696E93-80B4-4894-80FD-D92E433586BC";
name = "Light ExtraLight";
paths = (
{
closed = 1;
nodes = (
"591 -15 OFFCURVE",
"713 116 OFFCURVE",
"713 340 CURVE SMOOTH",
"713 429 OFFCURVE",
"693 504 OFFCURVE",
"657 561 CURVE",
"726 575 OFFCURVE",
"770 630 OFFCURVE",
"770 731 CURVE SMOOTH",
"770 742 OFFCURVE",
"764 749 OFFCURVE",
"754 749 CURVE SMOOTH",
"730 749 LINE SMOOTH",
"716 749 OFFCURVE",
"713 742 OFFCURVE",
"713 730 CURVE SMOOTH",
"713 641 OFFCURVE",
"684 609 OFFCURVE",
"619 609 CURVE",
"563 665 OFFCURVE",
"483 695 OFFCURVE",
"384 695 CURVE SMOOTH",
"177 695 OFFCURVE",
"55 564 OFFCURVE",
"55 340 CURVE SMOOTH",
"55 116 OFFCURVE",
"177 -15 OFFCURVE",
"384 -15 CURVE SMOOTH"
);
},
{
closed = 1;
nodes = (
"212 31 OFFCURVE",
"107 137 OFFCURVE",
"107 340 CURVE SMOOTH",
"107 543 OFFCURVE",
"212 649 OFFCURVE",
"384 649 CURVE SMOOTH",
"556 649 OFFCURVE",
"661 543 OFFCURVE",
"661 340 CURVE SMOOTH",
"661 137 OFFCURVE",
"556 31 OFFCURVE",
"384 31 CURVE SMOOTH"
);
},
{
closed = 1;
nodes = (
"411 741 LINE SMOOTH",
"421 741 OFFCURVE",
"423 747 OFFCURVE",
"419 757 CURVE SMOOTH",
"368 898 LINE SMOOTH",
"364 909 OFFCURVE",
"360 912 OFFCURVE",
"346 912 CURVE SMOOTH",
"319 912 LINE SMOOTH",
"307 912 OFFCURVE",
"304 906 OFFCURVE",
"309 896 CURVE SMOOTH",
"376 752 LINE SMOOTH",
"380 744 OFFCURVE",
"385 741 OFFCURVE",
"396 741 CURVE SMOOTH"
);
}
);
width = 795;
}
);
note = Ohorngrave;
unicode = 1EDC;
},
{
glyphname = Ohornhookabove;
lastChange = "2015-07-18 10:04:44 +0000";
layers = (
{
layerId = "63696E93-80B4-4894-80FD-D92E433586BC";
name = "Light ExtraLight";
paths = (
{
closed = 1;
nodes = (
"591 -15 OFFCURVE",
"713 116 OFFCURVE",
"713 340 CURVE SMOOTH",
"713 429 OFFCURVE",
"693 504 OFFCURVE",
"657 561 CURVE",
"726 575 OFFCURVE",
"770 630 OFFCURVE",
"770 731 CURVE SMOOTH",
"770 742 OFFCURVE",
"764 749 OFFCURVE",
"754 749 CURVE SMOOTH",
"730 749 LINE SMOOTH",
"716 749 OFFCURVE",
"713 742 OFFCURVE",
"713 730 CURVE SMOOTH",
"713 641 OFFCURVE",
"684 609 OFFCURVE",
"619 609 CURVE",
"563 665 OFFCURVE",
"483 695 OFFCURVE",
"384 695 CURVE SMOOTH",
"177 695 OFFCURVE",
"55 564 OFFCURVE",
"55 340 CURVE SMOOTH",
"55 116 OFFCURVE",
"177 -15 OFFCURVE",
"384 -15 CURVE SMOOTH"
);
},
{
closed = 1;
nodes = (
"212 31 OFFCURVE",
"107 137 OFFCURVE",
"107 340 CURVE SMOOTH",
"107 543 OFFCURVE",
"212 649 OFFCURVE",
"384 649 CURVE SMOOTH",
"556 649 OFFCURVE",
"661 543 OFFCURVE",
"661 340 CURVE SMOOTH",
"661 137 OFFCURVE",
"556 31 OFFCURVE",
"384 31 CURVE SMOOTH"
);
},
{
closed = 1;
nodes = (
"395 737 LINE SMOOTH",
"411 737 OFFCURVE",
"418 745 OFFCURVE",
"418 760 CURVE SMOOTH",
"418 787 LINE",
"470 787 OFFCURVE",
"522 819 OFFCURVE",
"522 878 CURVE SMOOTH",
"522 931 OFFCURVE",
"484 968 OFFCURVE",
"401 968 CURVE SMOOTH",
"363 968 OFFCURVE",
"324 958 OFFCURVE",
"299 942 CURVE",
"295 939 OFFCURVE",
"294 938 OFFCURVE",
"296 933 CURVE",
"310 903 LINE",
"311 900 OFFCURVE",
"314 900 OFFCURVE",
"318 902 CURVE SMOOTH",
"345 916 OFFCURVE",
"369 922 OFFCURVE",
"401 922 CURVE SMOOTH",
"447 922 OFFCURVE",
"470 909 OFFCURVE",
"470 878 CURVE SMOOTH",
"470 845 OFFCURVE",
"454 829 OFFCURVE",
"399 829 CURVE SMOOTH",
"377 829 OFFCURVE",
"364 818 OFFCURVE",
"364 798 CURVE SMOOTH",
"364 760 LINE SMOOTH",
"364 745 OFFCURVE",
"371 737 OFFCURVE",
"387 737 CURVE SMOOTH"
);
}
);
width = 795;
}
);
note = Ohornhookabove;
unicode = 1EDE;
},
{
glyphname = Ohorntilde;
lastChange = "2015-07-18 10:04:44 +0000";
layers = (
{
layerId = "63696E93-80B4-4894-80FD-D92E433586BC";
name = "Light ExtraLight";
paths = (
{
closed = 1;
nodes = (
"591 -15 OFFCURVE",
"713 116 OFFCURVE",
"713 340 CURVE SMOOTH",
"713 429 OFFCURVE",
"693 504 OFFCURVE",
"657 561 CURVE",
"726 575 OFFCURVE",
"770 630 OFFCURVE",
"770 731 CURVE SMOOTH",
"770 742 OFFCURVE",
"764 749 OFFCURVE",
"754 749 CURVE SMOOTH",
"730 749 LINE SMOOTH",
"716 749 OFFCURVE",
"713 742 OFFCURVE",
"713 730 CURVE SMOOTH",
"713 641 OFFCURVE",
"684 609 OFFCURVE",
"619 609 CURVE",
"563 665 OFFCURVE",
"483 695 OFFCURVE",
"384 695 CURVE SMOOTH",
"177 695 OFFCURVE",
"55 564 OFFCURVE",
"55 340 CURVE SMOOTH",
"55 116 OFFCURVE",
"177 -15 OFFCURVE",
"384 -15 CURVE SMOOTH"
);
},
{
closed = 1;
nodes = (
"212 31 OFFCURVE",
"107 137 OFFCURVE",
"107 340 CURVE SMOOTH",
"107 543 OFFCURVE",
"212 649 OFFCURVE",
"384 649 CURVE SMOOTH",
"556 649 OFFCURVE",
"661 543 OFFCURVE",
"661 340 CURVE SMOOTH",
"661 137 OFFCURVE",
"556 31 OFFCURVE",
"384 31 CURVE SMOOTH"
);
},
{
closed = 1;
nodes = (
"516 738 OFFCURVE",
"552 755 OFFCURVE",
"577 786 CURVE SMOOTH",
"591 803 OFFCURVE",
"589 813 OFFCURVE",
"580 821 CURVE SMOOTH",
"565 835 OFFCURVE",
"552 831 OFFCURVE",
"539 815 CURVE SMOOTH",
"522 795 OFFCURVE",
"503 784 OFFCURVE",
"471 784 CURVE SMOOTH",
"411 784 OFFCURVE",
"403 841 OFFCURVE",
"322 841 CURVE SMOOTH",
"279 841 OFFCURVE",
"243 824 OFFCURVE",
"218 793 CURVE SMOOTH",
"204 776 OFFCURVE",
"206 766 OFFCURVE",
"215 758 CURVE SMOOTH",
"230 744 OFFCURVE",
"243 748 OFFCURVE",
"256 764 CURVE SMOOTH",
"273 784 OFFCURVE",
"292 795 OFFCURVE",
"324 795 CURVE SMOOTH",
"382 795 OFFCURVE",
"396 738 OFFCURVE",
"473 738 CURVE SMOOTH"
);
}
);
width = 795;
}
);
note = Ohorntilde;
unicode = 1EE0;
},
{
glyphname = Ohungarumlaut;
lastChange = "2015-07-18 10:04:46 +0000";
layers = (
{
layerId = "63696E93-80B4-4894-80FD-D92E433586BC";
name = "Light ExtraLight";
paths = (
{
closed = 1;
nodes = (
"591 -15 OFFCURVE",
"713 116 OFFCURVE",
"713 340 CURVE SMOOTH",
"713 564 OFFCURVE",
"591 695 OFFCURVE",
"384 695 CURVE SMOOTH",
"177 695 OFFCURVE",
"55 564 OFFCURVE",
"55 340 CURVE SMOOTH",
"55 116 OFFCURVE",
"177 -15 OFFCURVE",
"384 -15 CURVE SMOOTH"
);
},
{
closed = 1;
nodes = (
"212 31 OFFCURVE",
"107 137 OFFCURVE",
"107 340 CURVE SMOOTH",
"107 543 OFFCURVE",
"212 649 OFFCURVE",
"384 649 CURVE SMOOTH",
"556 649 OFFCURVE",
"661 543 OFFCURVE",
"661 340 CURVE SMOOTH",
"661 137 OFFCURVE",
"556 31 OFFCURVE",
"384 31 CURVE SMOOTH"
);
},
{
closed = 1;
nodes = (
"294 753 LINE SMOOTH",
"305 753 OFFCURVE",
"309 756 OFFCURVE",
"314 764 CURVE SMOOTH",
"401 908 LINE SMOOTH",
"407 918 OFFCURVE",
"403 924 OFFCURVE",
"391 924 CURVE SMOOTH",
"364 924 LINE SMOOTH",
"350 924 OFFCURVE",
"347 920 OFFCURVE",
"342 910 CURVE SMOOTH",
"271 769 LINE SMOOTH",
"266 759 OFFCURVE",
"269 753 OFFCURVE",
"279 753 CURVE SMOOTH"
);
},
{
closed = 1;
nodes = (
"451 753 LINE SMOOTH",
"462 753 OFFCURVE",
"466 756 OFFCURVE",
"471 764 CURVE SMOOTH",
"558 908 LINE SMOOTH",
"564 918 OFFCURVE",
"560 924 OFFCURVE",
"548 924 CURVE SMOOTH",
"521 924 LINE SMOOTH",
"507 924 OFFCURVE",
"504 920 OFFCURVE",
"499 910 CURVE SMOOTH",
"428 769 LINE SMOOTH",
"423 759 OFFCURVE",
"426 753 OFFCURVE",
"436 753 CURVE SMOOTH"
);
}
);
width = 768;
}
);
note = Ohungarumlaut;
unicode = 0150;
},
{
glyphname = Omacron;
lastChange = "2015-07-18 10:04:44 +0000";
layers = (
{
layerId = "63696E93-80B4-4894-80FD-D92E433586BC";
name = "Light ExtraLight";
paths = (
{
closed = 1;
nodes = (
"591 -15 OFFCURVE",
"713 116 OFFCURVE",
"713 340 CURVE SMOOTH",
"713 564 OFFCURVE",
"591 695 OFFCURVE",
"384 695 CURVE SMOOTH",
"177 695 OFFCURVE",
"55 564 OFFCURVE",
"55 340 CURVE SMOOTH",
"55 116 OFFCURVE",
"177 -15 OFFCURVE",
"384 -15 CURVE SMOOTH"
);
},
{
closed = 1;
nodes = (
"212 31 OFFCURVE",
"107 137 OFFCURVE",
"107 340 CURVE SMOOTH",
"107 543 OFFCURVE",
"212 649 OFFCURVE",
"384 649 CURVE SMOOTH",
"556 649 OFFCURVE",
"661 543 OFFCURVE",
"661 340 CURVE SMOOTH",
"661 137 OFFCURVE",
"556 31 OFFCURVE",
"384 31 CURVE SMOOTH"
);
},
{
closed = 1;
nodes = (
"523 789 LINE SMOOTH",
"538 789 OFFCURVE",
"546 793 OFFCURVE",
"546 809 CURVE SMOOTH",
"546 816 LINE SMOOTH",
"546 832 OFFCURVE",
"538 838 OFFCURVE",
"523 838 CURVE SMOOTH",
"245 838 LINE SMOOTH",
"230 838 OFFCURVE",
"222 832 OFFCURVE",
"222 816 CURVE SMOOTH",
"222 809 LINE SMOOTH",
"222 793 OFFCURVE",
"230 789 OFFCURVE",
"245 789 CURVE SMOOTH"
);
}
);
width = 768;
}
);
note = Omacron;
unicode = 014C;
},
{
glyphname = Oslash;
lastChange = "2015-07-18 10:04:44 +0000";
layers = (
{
layerId = "63696E93-80B4-4894-80FD-D92E433586BC";
name = "Light ExtraLight";
paths = (
{
closed = 1;
nodes = (
"591 -15 OFFCURVE",
"713 116 OFFCURVE",
"713 340 CURVE SMOOTH",
"713 564 OFFCURVE",
"591 695 OFFCURVE",
"384 695 CURVE SMOOTH",
"177 695 OFFCURVE",
"55 564 OFFCURVE",
"55 340 CURVE SMOOTH",
"55 116 OFFCURVE",
"177 -15 OFFCURVE",
"384 -15 CURVE SMOOTH"
);
},
{
closed = 1;
nodes = (
"226 -86 LINE SMOOTH",
"234 -86 OFFCURVE",
"238 -83 OFFCURVE",
"241 -76 CURVE SMOOTH",
"575 738 LINE SMOOTH",
"578 745 OFFCURVE",
"578 751 OFFCURVE",
"568 751 CURVE SMOOTH",
"535 751 LINE SMOOTH",
"527 751 OFFCURVE",
"523 748 OFFCURVE",
"520 741 CURVE SMOOTH",
"186 -73 LINE SMOOTH",
"183 -80 OFFCURVE",
"183 -86 OFFCURVE",
"193 -86 CURVE SMOOTH"
);
},
{
closed = 1;
nodes = (
"212 31 OFFCURVE",
"107 137 OFFCURVE",
"107 340 CURVE SMOOTH",
"107 543 OFFCURVE",
"212 649 OFFCURVE",
"384 649 CURVE SMOOTH",
"556 649 OFFCURVE",
"661 543 OFFCURVE",
"661 340 CURVE SMOOTH",
"661 137 OFFCURVE",
"556 31 OFFCURVE",
"384 31 CURVE SMOOTH"
);
}
);
width = 768;
}
);
note = Oslash;
unicode = 00D8;
},
{
glyphname = Oslashacute;
lastChange = "2015-07-18 10:04:44 +0000";
layers = (
{
layerId = "63696E93-80B4-4894-80FD-D92E433586BC";
name = "Light ExtraLight";
paths = (
{
closed = 1;
nodes = (
"591 -15 OFFCURVE",
"713 116 OFFCURVE",
"713 340 CURVE SMOOTH",
"713 564 OFFCURVE",
"591 695 OFFCURVE",
"384 695 CURVE SMOOTH",
"177 695 OFFCURVE",
"55 564 OFFCURVE",
"55 340 CURVE SMOOTH",
"55 116 OFFCURVE",
"177 -15 OFFCURVE",
"384 -15 CURVE SMOOTH"
);
},
{
closed = 1;
nodes = (
"226 -86 LINE SMOOTH",
"234 -86 OFFCURVE",
"238 -83 OFFCURVE",
"241 -76 CURVE SMOOTH",
"575 738 LINE SMOOTH",
"578 745 OFFCURVE",
"578 751 OFFCURVE",
"568 751 CURVE SMOOTH",
"535 751 LINE SMOOTH",
"527 751 OFFCURVE",
"523 748 OFFCURVE",
"520 741 CURVE SMOOTH",
"186 -73 LINE SMOOTH",
"183 -80 OFFCURVE",
"183 -86 OFFCURVE",
"193 -86 CURVE SMOOTH"
);
},
{
closed = 1;
nodes = (
"212 31 OFFCURVE",
"107 137 OFFCURVE",
"107 340 CURVE SMOOTH",
"107 543 OFFCURVE",
"212 649 OFFCURVE",
"384 649 CURVE SMOOTH",
"556 649 OFFCURVE",
"661 543 OFFCURVE",
"661 340 CURVE SMOOTH",
"661 137 OFFCURVE",
"556 31 OFFCURVE",
"384 31 CURVE SMOOTH"
);
},
{
closed = 1;
nodes = (
"354 795 LINE SMOOTH",
"365 795 OFFCURVE",
"370 798 OFFCURVE",
"374 806 CURVE SMOOTH",
"441 950 LINE SMOOTH",
"446 960 OFFCURVE",
"443 966 OFFCURVE",
"431 966 CURVE SMOOTH",
"404 966 LINE SMOOTH",
"390 966 OFFCURVE",
"386 963 OFFCURVE",
"382 952 CURVE SMOOTH",
"331 811 LINE SMOOTH",
"327 801 OFFCURVE",
"329 795 OFFCURVE",
"339 795 CURVE SMOOTH"
);
}
);
width = 768;
}
);
note = Oslashacute;
unicode = 01FE;
},
{
glyphname = Otilde;
lastChange = "2015-07-18 10:04:45 +0000";
layers = (
{
layerId = "63696E93-80B4-4894-80FD-D92E433586BC";
name = "Light ExtraLight";
paths = (
{
closed = 1;
nodes = (
"591 -15 OFFCURVE",
"713 116 OFFCURVE",
"713 340 CURVE SMOOTH",
"713 564 OFFCURVE",
"591 695 OFFCURVE",
"384 695 CURVE SMOOTH",
"177 695 OFFCURVE",
"55 564 OFFCURVE",
"55 340 CURVE SMOOTH",
"55 116 OFFCURVE",
"177 -15 OFFCURVE",
"384 -15 CURVE SMOOTH"
);
},
{
closed = 1;
nodes = (
"212 31 OFFCURVE",
"107 137 OFFCURVE",
"107 340 CURVE SMOOTH",
"107 543 OFFCURVE",
"212 649 OFFCURVE",
"384 649 CURVE SMOOTH",
"556 649 OFFCURVE",
"661 543 OFFCURVE",
"661 340 CURVE SMOOTH",
"661 137 OFFCURVE",
"556 31 OFFCURVE",
"384 31 CURVE SMOOTH"
);
},
{
closed = 1;
nodes = (
"503 762 OFFCURVE",
"539 779 OFFCURVE",
"564 810 CURVE SMOOTH",
"578 827 OFFCURVE",
"576 837 OFFCURVE",
"567 845 CURVE SMOOTH",
"552 859 OFFCURVE",
"539 855 OFFCURVE",
"526 839 CURVE SMOOTH",
"509 819 OFFCURVE",
"490 808 OFFCURVE",
"458 808 CURVE SMOOTH",
"398 808 OFFCURVE",
"390 865 OFFCURVE",
"309 865 CURVE SMOOTH",
"266 865 OFFCURVE",
"230 848 OFFCURVE",
"205 817 CURVE SMOOTH",
"191 800 OFFCURVE",
"193 790 OFFCURVE",
"202 782 CURVE SMOOTH",
"217 768 OFFCURVE",
"230 772 OFFCURVE",
"243 788 CURVE SMOOTH",
"260 808 OFFCURVE",
"279 819 OFFCURVE",
"311 819 CURVE SMOOTH",
"369 819 OFFCURVE",
"383 762 OFFCURVE",
"460 762 CURVE SMOOTH"
);
}
);
width = 768;
}
);
note = Otilde;
unicode = 00D5;
},
{
glyphname = OE;
lastChange = "2015-07-18 10:04:44 +0000";
layers = (
{
layerId = "63696E93-80B4-4894-80FD-D92E433586BC";
name = "Light ExtraLight";
paths = (
{
closed = 1;
nodes = (
"591 -15 OFFCURVE",
"713 116 OFFCURVE",
"713 340 CURVE SMOOTH",
"713 564 OFFCURVE",
"591 695 OFFCURVE",
"384 695 CURVE SMOOTH",
"177 695 OFFCURVE",
"55 564 OFFCURVE",
"55 340 CURVE SMOOTH",
"55 116 OFFCURVE",
"177 -15 OFFCURVE",
"384 -15 CURVE SMOOTH"
);
},
{
closed = 1;
nodes = (
"212 31 OFFCURVE",
"107 137 OFFCURVE",
"107 340 CURVE SMOOTH",
"107 543 OFFCURVE",
"212 649 OFFCURVE",
"384 649 CURVE SMOOTH",
"556 649 OFFCURVE",
"661 543 OFFCURVE",
"661 340 CURVE SMOOTH",
"661 137 OFFCURVE",
"556 31 OFFCURVE",
"384 31 CURVE SMOOTH"
);
},
{
closed = 1;
nodes = (
"1100 0 LINE SMOOTH",
"1115 0 OFFCURVE",
"1123 4 OFFCURVE",
"1123 20 CURVE SMOOTH",
"1123 27 LINE SMOOTH",
"1123 43 OFFCURVE",
"1115 49 OFFCURVE",
"1100 49 CURVE SMOOTH",
"715 49 LINE",
"715 316 LINE",
"1013 316 LINE SMOOTH",
"1028 316 OFFCURVE",
"1036 322 OFFCURVE",
"1036 338 CURVE SMOOTH",
"1036 345 LINE SMOOTH",
"1036 361 OFFCURVE",
"1028 365 OFFCURVE",
"1013 365 CURVE SMOOTH",
"715 365 LINE",
"715 631 LINE",
"1100 631 LINE SMOOTH",
"1115 631 OFFCURVE",
"1123 637 OFFCURVE",
"1123 653 CURVE SMOOTH",
"1123 660 LINE SMOOTH",
"1123 676 OFFCURVE",
"1115 680 OFFCURVE",
"1100 680 CURVE SMOOTH",
"684 680 LINE SMOOTH",
"668 680 OFFCURVE",
"661 672 OFFCURVE",
"661 657 CURVE SMOOTH",
"661 23 LINE SMOOTH",
"661 8 OFFCURVE",
"668 0 OFFCURVE",
"684 0 CURVE SMOOTH"
);
}
);
width = 1178;
}
);
note = OE;
unicode = 0152;
},
{
glyphname = P;
lastChange = "2015-07-18 10:04:45 +0000";
layers = (
{
layerId = "63696E93-80B4-4894-80FD-D92E433586BC";
name = "Light ExtraLight";
paths = (
{
closed = 1;
nodes = (
"106 0 LINE SMOOTH",
"122 0 OFFCURVE",
"129 8 OFFCURVE",
"129 23 CURVE SMOOTH",
"129 248 LINE",
"364 248 LINE SMOOTH",
"507 248 OFFCURVE",
"577 333 OFFCURVE",
"577 464 CURVE SMOOTH",
"577 595 OFFCURVE",
"507 680 OFFCURVE",
"365 680 CURVE SMOOTH",
"98 680 LINE SMOOTH",
"82 680 OFFCURVE",
"75 672 OFFCURVE",
"75 657 CURVE SMOOTH",
"75 23 LINE SMOOTH",
"75 8 OFFCURVE",
"82 0 OFFCURVE",
"98 0 CURVE SMOOTH"
);
},
{
closed = 1;
nodes = (
"129 631 LINE",
"369 631 LINE SMOOTH",
"476 631 OFFCURVE",
"525 576 OFFCURVE",
"525 464 CURVE SMOOTH",
"525 352 OFFCURVE",
"476 297 OFFCURVE",
"369 297 CURVE SMOOTH",
"129 297 LINE"
);
}
);
width = 612;
}
);
note = P;
unicode = 0050;
},
{
glyphname = Thorn;
lastChange = "2015-07-18 10:04:45 +0000";
layers = (
{
layerId = "63696E93-80B4-4894-80FD-D92E433586BC";
name = "Light ExtraLight";
paths = (
{
closed = 1;
nodes = (
"106 0 LINE SMOOTH",
"122 0 OFFCURVE",
"129 8 OFFCURVE",
"129 23 CURVE SMOOTH",
"129 124 LINE",
"364 124 LINE SMOOTH",
"507 124 OFFCURVE",
"577 209 OFFCURVE",
"577 340 CURVE SMOOTH",
"577 471 OFFCURVE",
"507 556 OFFCURVE",
"365 556 CURVE SMOOTH",
"129 556 LINE",
"129 657 LINE SMOOTH",
"129 672 OFFCURVE",
"122 680 OFFCURVE",
"106 680 CURVE SMOOTH",
"98 680 LINE SMOOTH",
"82 680 OFFCURVE",
"75 672 OFFCURVE",
"75 657 CURVE SMOOTH",
"75 23 LINE SMOOTH",
"75 8 OFFCURVE",
"82 0 OFFCURVE",
"98 0 CURVE SMOOTH"
);
},
{
closed = 1;
nodes = (
"129 507 LINE",
"369 507 LINE SMOOTH",
"476 507 OFFCURVE",
"525 452 OFFCURVE",
"525 340 CURVE SMOOTH",
"525 228 OFFCURVE",
"476 173 OFFCURVE",
"369 173 CURVE SMOOTH",
"129 173 LINE"
);
}
);
width = 632;
}
);
note = Thorn;
unicode = 00DE;
},
{
glyphname = Q;
lastChange = "2015-07-18 10:04:44 +0000";
layers = (
{
layerId = "63696E93-80B4-4894-80FD-D92E433586BC";
name = "Light ExtraLight";
paths = (
{
closed = 1;
nodes = (
"588 -181 OFFCURVE",
"630 -170 OFFCURVE",
"676 -144 CURVE",
"682 -141 OFFCURVE",
"686 -136 OFFCURVE",
"681 -128 CURVE SMOOTH",
"667 -106 LINE",
"663 -99 OFFCURVE",
"661 -98 OFFCURVE",
"653 -103 CURVE SMOOTH",
"623 -123 OFFCURVE",
"584 -135 OFFCURVE",
"540 -135 CURVE SMOOTH",
"461 -135 OFFCURVE",
"402 -99 OFFCURVE",
"402 -15 CURVE",
"598 -7 OFFCURVE",
"713 122 OFFCURVE",
"713 340 CURVE SMOOTH",
"713 564 OFFCURVE",
"591 695 OFFCURVE",
"384 695 CURVE SMOOTH",
"177 695 OFFCURVE",
"55 564 OFFCURVE",
"55 340 CURVE SMOOTH",
"55 129 OFFCURVE",
"163 1 OFFCURVE",
"348 -13 CURVE",
"348 -113 OFFCURVE",
"418 -181 OFFCURVE",
"532 -181 CURVE SMOOTH"
);
},
{
closed = 1;
nodes = (
"212 31 OFFCURVE",
"107 137 OFFCURVE",
"107 340 CURVE SMOOTH",
"107 543 OFFCURVE",
"212 649 OFFCURVE",
"384 649 CURVE SMOOTH",
"556 649 OFFCURVE",
"661 543 OFFCURVE",
"661 340 CURVE SMOOTH",
"661 137 OFFCURVE",
"556 31 OFFCURVE",
"384 31 CURVE SMOOTH"
);
}
);
width = 768;
}
);
note = Q;
unicode = 0051;
},
{
glyphname = R;
lastChange = "2015-07-18 10:04:45 +0000";
layers = (
{
layerId = "63696E93-80B4-4894-80FD-D92E433586BC";
name = "Light ExtraLight";
paths = (
{
closed = 1;
nodes = (
"106 0 LINE SMOOTH",
"122 0 OFFCURVE",
"129 8 OFFCURVE",
"129 23 CURVE SMOOTH",
"129 288 LINE",
"364 288 LINE",
"374 288 LINE",
"494 17 LINE SMOOTH",
"500 3 OFFCURVE",
"503 0 OFFCURVE",
"517 0 CURVE SMOOTH",
"541 0 LINE SMOOTH",
"553 0 OFFCURVE",
"555 6 OFFCURVE",
"551 16 CURVE",
"428 293 LINE",
"528 313 OFFCURVE",
"577 382 OFFCURVE",
"577 484 CURVE SMOOTH",
"577 605 OFFCURVE",
"507 680 OFFCURVE",
"365 680 CURVE SMOOTH",
"98 680 LINE SMOOTH",
"82 680 OFFCURVE",
"75 672 OFFCURVE",
"75 657 CURVE SMOOTH",
"75 23 LINE SMOOTH",
"75 8 OFFCURVE",
"82 0 OFFCURVE",
"98 0 CURVE SMOOTH"
);
},
{
closed = 1;
nodes = (
"129 631 LINE",
"369 631 LINE SMOOTH",
"476 631 OFFCURVE",
"525 586 OFFCURVE",
"525 484 CURVE SMOOTH",
"525 382 OFFCURVE",
"476 337 OFFCURVE",
"369 337 CURVE SMOOTH",
"129 337 LINE"
);
}
);
width = 632;
}
);
note = R;
unicode = 0052;
},
{
glyphname = Racute;
lastChange = "2015-07-18 10:04:45 +0000";
layers = (
{
layerId = "63696E93-80B4-4894-80FD-D92E433586BC";
name = "Light ExtraLight";
paths = (
{
closed = 1;
nodes = (
"106 0 LINE SMOOTH",
"122 0 OFFCURVE",
"129 8 OFFCURVE",
"129 23 CURVE SMOOTH",
"129 288 LINE",
"364 288 LINE",
"374 288 LINE",
"494 17 LINE SMOOTH",
"500 3 OFFCURVE",
"503 0 OFFCURVE",
"517 0 CURVE SMOOTH",
"541 0 LINE SMOOTH",
"553 0 OFFCURVE",
"555 6 OFFCURVE",
"551 16 CURVE",
"428 293 LINE",
"528 313 OFFCURVE",
"577 382 OFFCURVE",
"577 484 CURVE SMOOTH",
"577 605 OFFCURVE",
"507 680 OFFCURVE",
"365 680 CURVE SMOOTH",
"98 680 LINE SMOOTH",
"82 680 OFFCURVE",
"75 672 OFFCURVE",
"75 657 CURVE SMOOTH",
"75 23 LINE SMOOTH",
"75 8 OFFCURVE",
"82 0 OFFCURVE",
"98 0 CURVE SMOOTH"
);
},
{
closed = 1;
nodes = (
"129 631 LINE",
"369 631 LINE SMOOTH",
"476 631 OFFCURVE",
"525 586 OFFCURVE",
"525 484 CURVE SMOOTH",
"525 382 OFFCURVE",
"476 337 OFFCURVE",
"369 337 CURVE SMOOTH",
"129 337 LINE"
);
},
{
closed = 1;
nodes = (
"279 753 LINE SMOOTH",
"290 753 OFFCURVE",
"295 756 OFFCURVE",
"299 764 CURVE SMOOTH",
"366 908 LINE SMOOTH",
"371 918 OFFCURVE",
"368 924 OFFCURVE",
"356 924 CURVE SMOOTH",
"329 924 LINE SMOOTH",
"315 924 OFFCURVE",
"311 921 OFFCURVE",
"307 910 CURVE SMOOTH",
"256 769 LINE SMOOTH",
"252 759 OFFCURVE",
"254 753 OFFCURVE",
"264 753 CURVE SMOOTH"
);
}
);
width = 632;
}
);
note = Racute;
unicode = 0154;
},
{
glyphname = Rcaron;
lastChange = "2015-07-18 10:04:45 +0000";
layers = (
{
layerId = "63696E93-80B4-4894-80FD-D92E433586BC";
name = "Light ExtraLight";
paths = (
{
closed = 1;
nodes = (
"106 0 LINE SMOOTH",
"122 0 OFFCURVE",
"129 8 OFFCURVE",
"129 23 CURVE SMOOTH",
"129 288 LINE",
"364 288 LINE",
"374 288 LINE",
"494 17 LINE SMOOTH",
"500 3 OFFCURVE",
"503 0 OFFCURVE",
"517 0 CURVE SMOOTH",
"541 0 LINE SMOOTH",
"553 0 OFFCURVE",
"555 6 OFFCURVE",
"551 16 CURVE",
"428 293 LINE",
"528 313 OFFCURVE",
"577 382 OFFCURVE",
"577 484 CURVE SMOOTH",
"577 605 OFFCURVE",
"507 680 OFFCURVE",
"365 680 CURVE SMOOTH",
"98 680 LINE SMOOTH",
"82 680 OFFCURVE",
"75 672 OFFCURVE",
"75 657 CURVE SMOOTH",
"75 23 LINE SMOOTH",
"75 8 OFFCURVE",
"82 0 OFFCURVE",
"98 0 CURVE SMOOTH"
);
},
{
closed = 1;
nodes = (
"129 631 LINE",
"369 631 LINE SMOOTH",
"476 631 OFFCURVE",
"525 586 OFFCURVE",
"525 484 CURVE SMOOTH",
"525 382 OFFCURVE",
"476 337 OFFCURVE",
"369 337 CURVE SMOOTH",
"129 337 LINE"
);
},
{
closed = 1;
nodes = (
"286 746 LINE SMOOTH",
"298 746 OFFCURVE",
"301 752 OFFCURVE",
"309 763 CURVE SMOOTH",
"421 919 LINE",
"428 928 OFFCURVE",
"419 937 OFFCURVE",
"409 937 CURVE SMOOTH",
"390 937 LINE SMOOTH",
"374 937 OFFCURVE",
"371 930 OFFCURVE",
"364 920 CURVE SMOOTH",
"280 798 LINE",
"196 920 LINE SMOOTH",
"189 930 OFFCURVE",
"186 937 OFFCURVE",
"170 937 CURVE SMOOTH",
"151 937 LINE SMOOTH",
"141 937 OFFCURVE",
"132 928 OFFCURVE",
"139 919 CURVE",
"251 763 LINE SMOOTH",
"259 752 OFFCURVE",
"262 746 OFFCURVE",
"274 746 CURVE SMOOTH"
);
}
);
width = 632;
}
);
note = Rcaron;
unicode = 0158;
},
{
glyphname = Rcommaaccent;
lastChange = "2015-07-18 10:04:43 +0000";
layers = (
{
layerId = "63696E93-80B4-4894-80FD-D92E433586BC";
name = "Light ExtraLight";
paths = (
{
closed = 1;
nodes = (
"106 0 LINE SMOOTH",
"122 0 OFFCURVE",
"129 8 OFFCURVE",
"129 23 CURVE SMOOTH",
"129 288 LINE",
"364 288 LINE",
"374 288 LINE",
"494 17 LINE SMOOTH",
"500 3 OFFCURVE",
"503 0 OFFCURVE",
"517 0 CURVE SMOOTH",
"541 0 LINE SMOOTH",
"553 0 OFFCURVE",
"555 6 OFFCURVE",
"551 16 CURVE",
"428 293 LINE",
"528 313 OFFCURVE",
"577 382 OFFCURVE",
"577 484 CURVE SMOOTH",
"577 605 OFFCURVE",
"507 680 OFFCURVE",
"365 680 CURVE SMOOTH",
"98 680 LINE SMOOTH",
"82 680 OFFCURVE",
"75 672 OFFCURVE",
"75 657 CURVE SMOOTH",
"75 23 LINE SMOOTH",
"75 8 OFFCURVE",
"82 0 OFFCURVE",
"98 0 CURVE SMOOTH"
);
},
{
closed = 1;
nodes = (
"248 -211 LINE SMOOTH",
"259 -211 OFFCURVE",
"264 -208 OFFCURVE",
"268 -200 CURVE",
"332 -52 LINE SMOOTH",
"336 -42 OFFCURVE",
"334 -36 OFFCURVE",
"322 -36 CURVE SMOOTH",
"298 -36 LINE SMOOTH",
"284 -36 OFFCURVE",
"280 -39 OFFCURVE",
"276 -50 CURVE SMOOTH",
"228 -195 LINE SMOOTH",
"225 -205 OFFCURVE",
"226 -211 OFFCURVE",
"236 -211 CURVE SMOOTH"
);
},
{
closed = 1;
nodes = (
"129 631 LINE",
"369 631 LINE SMOOTH",
"476 631 OFFCURVE",
"525 586 OFFCURVE",
"525 484 CURVE SMOOTH",
"525 382 OFFCURVE",
"476 337 OFFCURVE",
"369 337 CURVE SMOOTH",
"129 337 LINE"
);
}
);
width = 632;
}
);
note = Rcommaaccent;
unicode = 0156;
},
